<svg width="329" height="421" viewBox="0 0 329 421" fill="none" xmlns="http://www.w3.org/2000/svg">
<path d="M250.594 235.385C228.989 282.813 192.565 312.646 169.237 302.02C145.91 291.394 144.514 244.332 166.119 196.904C187.723 149.477 262.975 48.4408 293.234 48.4408C303.747 65.6216 272.199 187.958 250.594 235.385Z" fill="#8BD778"/>
<path d="M238.195 229.801C216.604 277.199 186.795 310.018 171.615 303.103C156.435 296.188 161.633 252.158 183.224 204.76C204.816 157.361 271.583 52.542 293.087 48.562C298.298 63.3201 259.787 182.402 238.195 229.801Z" fill="#7DD168"/>
<path d="M229.431 258.774C228.914 284.225 210.193 304.485 187.616 304.027C165.039 303.568 147.156 282.563 147.673 257.112C148.19 231.661 162 159 174.5 147C189.088 152.806 229.949 233.322 229.431 258.774Z" fill="#82E06A"/>
<path d="M219.468 272.784C203.334 292.475 176.096 296.837 158.628 282.525C141.16 268.214 140.079 240.65 156.212 220.958C172.346 201.266 252.353 166.366 275 177C282.882 190.579 239 277 219.468 272.784Z" fill="#4BAE32" fill-opacity="0.6"/>
<path d="M141.476 180.364C155.997 230.417 147.811 276.783 123.193 283.925C98.5746 291.067 66.846 256.281 52.3253 206.228C37.8045 156.175 29.0392 30.4997 51.99 10.7808C71.1609 16.9607 126.956 130.312 141.476 180.364Z" fill="url(#paint0_linear_116_18)" fill-opacity="0.4"/>
<path d="M145.103 208.577C155.299 243.722 144.548 277.729 121.09 284.535C97.6329 291.34 70.3513 268.366 60.1554 233.221C49.9595 198.076 16.7547 171.269 39.4995 155.5C60.1554 174.5 134.907 173.432 145.103 208.577Z" fill="#77FF37" fill-opacity="0.4"/>
<path d="M168 250C168 275.957 146.957 297 121 297C95.0426 297 58.5 248.957 58.5 223C99.5 213 84.5426 240 110.5 240C136.457 240 129 98.5 168 250Z" fill="#FFB59D"/>
<path d="M232 261C232 269.11 229.902 277.081 225.909 284.14C221.916 291.199 216.165 297.104 209.215 301.282C202.264 305.46 194.351 307.769 186.244 307.984C178.137 308.198 170.113 306.312 162.951 302.507C155.789 298.703 149.733 293.11 145.373 286.272C141.012 279.435 138.495 271.585 138.066 263.487C137.637 255.389 139.31 247.317 142.924 240.057C146.538 232.797 161.78 200.04 168.5 195.5V233L185 261H232Z" fill="#FF7E7E"/>
<path d="M114 295.5L122 295.5L128 293L133 288.5L141 276L144.001 286.5L150.001 293L164.5 293L145.5 321.5L115 414L114.5 401.5L112.5 394.5L111.5 390.5L109.5 387L106.5 384L102.5 383L95 386.5L88.5 391.5L77.0001 406.008L99.0004 351L100.501 329.5L110.5 317.5L114 295.5Z" fill="#A0445A"/>
<path d="M120.032 298.417L125.5 294.598L130 291.501L133 288.501L141 276L144 286.5L150 293L164 293L140.503 320.124L108.714 411.851L109.618 399.926L108.863 393.422L108.536 389.692L107.424 386.542L105.528 383.973L102.694 383.421L96.8347 387.537L91.5564 392.989L87.5003 393.422L103.381 353.117L107.424 332.001L120.032 319.001L120.032 298.417Z" fill="#8D3A4E"/>
<path d="M114.84 399.778C114.84 408.338 122.5 417.5 99.3398 415.278C90.7794 415.278 78.3398 412.838 78.3398 404.278C81.8398 396.278 101.108 377.278 104.108 381.778C112.669 381.778 114.84 391.218 114.84 399.778Z" fill="#7A2C2C"/>
<defs>
<linearGradient id="paint0_linear_116_18" x1="44.5755" y1="12.9318" x2="123.193" y2="283.925" gradientUnits="userSpaceOnUse">
<stop stop-color="#E80000"/>
<stop offset="1" stop-color="#006B11" stop-opacity="0"/>
</linearGradient>
</defs>
</svg>
