<svg width="610" height="349" viewBox="0 0 610 349" fill="none" xmlns="http://www.w3.org/2000/svg">
<path d="M168.689 189.422L196.501 174.546L200.001 172.046L203.001 169.546L205.501 167.046L207.501 164.046L210.001 159.046L212.501 155.046L215.001 151.546L217.501 149.046L222.073 145.369L229.814 140.431L220.936 158.837L244.288 165.572L242.301 202.713L222.501 206.046L213.501 208.046L204.094 213.013L187.007 217.749L176.83 204.305L168.689 189.422Z" fill="#EBEBEB"/>
<path d="M149.5 153.671H158.5H180.5L199 152.671L197.5 175.671L180.5 191.671L143.5 182.671L149.5 153.671Z" fill="#C0C0C0"/>
<path d="M278.5 271.5L284.5 261.5L296.5 256.5H310.5L322.5 261.5L338.5 285L354.5 290L498.5 227L355.5 291.5L336.5 285L309 264.5L296.5 267L299.5 290L287 271.5V288.25L272 302L259 324L261.5 302L278.5 288V271.5Z" fill="#E9F3F5"/>
<path d="M120.5 232.671L272.5 195.671L446 108.171L471.5 118.671L488 147.671L502 186.171L499 229.171L421.5 264.171L354.5 292.671L338.5 287.671L329.5 274.171L321.5 264.171L310.5 259.171H296.5L294.5 264.171V264.671L294 265.171L293.5 265.671L292.5 266.171H291.5L287.5 265.671L284.5 264.171L281.5 277.171L278.5 290.671L261.5 304.671L259 326.671L221 341.671L190.5 344.171L167 326.671L144 313.671L125.5 321.171L41.5 285.171L29.5 272.171L24 251.171L43.5 232.671L65 224.171L120.5 232.671Z" fill="white"/>
<path d="M328.645 158.908L416.315 122.266L404.999 103.17L400.499 92.6703L398.999 86.1703L399.497 79.1699L389.497 49.6699L388 46.1708L390.5 47.6709L393 48.1709L395 43.1709L395.5 39.6709L397.497 36.1709L401 27.6709L404.999 25.6709L404 30.1709L402 33.1709L401 35.1709L399 41.1709L396.5 44.6709L397.497 49.6699L416.315 83.1699L435.497 122.266L438.452 137.453L357.145 190.408L328.645 158.908Z" fill="#E6E6E6"/>
<path d="M330.443 100.839L369.5 106.671L389 106.671L404.707 109.218L409.796 90.5742L414.984 75.0936L420.164 66.6036L431 48.1709L443.5 32.1709L449 26.6709L444.5 35.1709L442.5 39.6709L438.5 47.6709L434.5 63.1709L418.122 119.799L357.173 137.549L330.443 100.839Z" fill="#E6E6E6"/>
<path d="M191 140.171C191 165.092 170.5 175.171 170.5 175.171C154.806 165.987 147.5 163.092 147.5 138.171C147.5 113.25 152.301 109.671 172 109.671C191.699 109.671 191 115.25 191 140.171Z" fill="#E0E0E0"/>
<g filter="url(#filter0_d_135_398)">
<path d="M133.233 176.171L148 179.171H157L164.5 178.171L165 173.671L170.5 177.171L176.5 173.671L179 179.171L204 183.171L211 214.671L193.5 233.671L158.5 235.171L144 230.171L131.5 222.171L125 194.171L133.233 176.171Z" fill="#D1D1D1"/>
</g>
<path d="M149.178 305.901L146.561 305.714L143.911 304.15L144.561 302.552L147.872 300.143L151.074 298.516L156.842 294.787L160.873 290.287L165.665 288.051L169.165 292.551L170.165 292.551L170.722 299.26L166.911 303.694L166.873 308.941L167.873 313.441L166.911 321.941L166.373 323.941L164.873 323.941L163.763 323.349L163.763 322.334L164.873 314.941L164.373 306.441L160.973 321.763L160.373 322.334L159.373 322.334L158.373 321.941L157.862 321.53L159.873 313.941L160.871 305.783L157.373 308.441L155.873 311.941L153.637 320.124L152.873 320.941L151.873 320.941L150.873 320.441L151.166 319.214L154.175 309.94L154.872 307.441L158.694 304.168L155.34 304.441L153.072 305.714L151.873 307.941L152.561 308.941L153.637 309.44L154.175 309.94L153.637 311.94L151.873 311.44L148.872 308.441L149.178 306.94L153.637 300.643L151.342 301.787L148.872 302.552L147.872 304.15L148.372 304.695L149.178 305.901Z" fill="#E5E5E5"/>
<path d="M326.999 96.1713L346.999 97.6708L359.5 101.671L365 103.671L364.5 104.171L358.499 109.279L356.064 118.462L391.5 114.5L394 120.5L385.5 128L391.5 131L397.5 129.5L403.5 127L400.043 131.929L402.5 139.5L424.5 150L458.863 155.673L433.363 197.673L415.499 201.752L415.499 213.673L421.999 253.673L404.999 241.173L404.999 295.171L392.499 251.173L378.363 253.673L382.5 318.671L356.064 243.673L338.999 238.173L335 253.673L335 270.671L327.999 235.673L310.863 228.673L294.499 228.673L284 224.171L280 220.671L279.625 213.673L275 218.171L268.5 218.671L261 218.171L255 214.671L236.312 201.752L236.312 164.966L215.499 161.172L219.665 143.821L228.534 138.895L234.5 137.171L241 135.671L245.5 135.671L249 135.671L252.999 136.171L256.999 137.671L259.648 139.325L273.499 135.671L287.499 123.171L294.499 112.671L304.499 103.172L326.999 96.1713Z" fill="#EFFFFB"/>
<path d="M361.5 108.171V109.671L360 114.171L373 115.5L390 114.171L356 118.671L358.5 109.171L364.5 104.171L361.5 108.171Z" fill="#9DD6C8"/>
<path d="M147.914 185.752L134.414 202.252L112.914 222.252L140.414 203.252L154.914 192.752L163.914 185.752L165.916 181.25L171.417 187.249L160.416 200.25L147.914 211.752L135.916 222.75L122.414 232.252L110.92 236.752L103.92 238.752L95.9203 238.252L93.9203 236.252L94.9203 233.752L96.4144 228.752L102.42 218.752L112.914 205.252L121.918 193.751L126.418 189.751L131.418 186.751L139.418 185.251L147.914 185.752Z" fill="#EBEBEB"/>
<path d="M164.5 162.171L167.564 161.671L169 162.171H169.564L170.064 161.671L170.564 162.171H171.564L174.064 161.671L175.939 162.171H177.064L171.876 163.171H169.564L169.064 163.171H168L166 162.749L165 162.671L163 162.171H164.5Z" fill="#037C8C"/>
<path d="M163 162.171L165 162.671H167H169L171.5 163.171L173.5 162.671L177 162.171L175.5 163.171L174 164.171L171.5 164.671L169.5 164.171L165.5 164.571L163 162.171Z" fill="#CEFFEA"/>
<path d="M163 161.671H164.5H166L167.5 161.171L168.971 161.671H169.5L170 161.171L170.5 161.671H171.342L174 161.171L176 161.671H177.5L176 160.171L174.5 159.671H173L171.342 159.871L170 159.671L168.971 159.871L166.5 159.671L165 160.171L163 161.671Z" fill="#ABFFDC"/>
<path opacity="0.8" d="M174.5 136.167L182.799 134.309L189.993 132.171L190.198 132.966L183.072 135.369L175.394 137.633L175.189 136.838L174.5 136.167Z" fill="#3F3F3F" fill-opacity="0.7"/>
<g opacity="0.7">
<path d="M150.331 132.273L156.2 133.52L166.044 135.307L165.369 136.077L165.673 137.054L156.993 134.601L149.168 132.939L148.01 131.171L150.331 132.273Z" fill="#3F3F3F"/>
<path d="M150.331 132.273L156.2 133.52L166.044 135.307L165.369 136.077L165.673 137.054L156.993 134.601L149.168 132.939L148.01 131.171L150.331 132.273Z" fill="#3F3F3F"/>
<path d="M150.331 132.273L156.2 133.52L166.044 135.307L165.369 136.077L165.673 137.054L156.993 134.601L149.168 132.939L148.01 131.171L150.331 132.273Z" fill="#3F3F3F"/>
<path d="M150.331 132.273L156.2 133.52L166.044 135.307L165.369 136.077L165.673 137.054L156.993 134.601L149.168 132.939L148.01 131.171L150.331 132.273Z" fill="#3F3F3F"/>
</g>
<path d="M163 139.171L162 138.171L160.75 137.838L159.5 137.671L158 137.171H156.5L155 137.671L153.5 138.171L153 138.671" stroke="black" stroke-opacity="0.5" stroke-width="0.5"/>
<path d="M176.5 139.171L178.5 137.838L180.5 137.171H182.9L184.5 139.171" stroke="black" stroke-opacity="0.5" stroke-width="0.5"/>
<path d="M163 140.171H162L161 140.671L160.5 141.171L159.5 141.671H158L156.5 141.171L155 140.671L153.5 139.671" stroke="black" stroke-opacity="0.5" stroke-width="0.5"/>
<path d="M176.5 141.171L178.25 141.838L180 142.171H182.1L183.5 141.171" stroke="black" stroke-opacity="0.5" stroke-width="0.5"/>
<circle cx="159" cy="139.671" r="1.5" fill="white"/>
<circle cx="159" cy="139.671" r="1.5" fill="white"/>
<circle cx="180" cy="140.171" r="1.5" fill="white"/>
<circle cx="180" cy="140.171" r="1.5" fill="white"/>
<circle cx="159" cy="139.671" r="0.5" fill="white"/>
<circle cx="159" cy="139.671" r="0.5" fill="#00FFFF"/>
<path d="M172 155.171L171 155.671H170L168.5 155.171" stroke="black" stroke-opacity="0.5" stroke-width="0.5"/>
<path d="M168.749 153.171L170 148.171L170.25 141.171" stroke="black" stroke-opacity="0.5" stroke-width="0.3"/>
<path d="M167.009 169.219L168.51 169.219L169.009 168.718L170.509 169.219L171.509 169.219" stroke="black" stroke-opacity="0.2" stroke-width="0.1"/>
<path d="M169 158.671L168.998 158.671L169.499 158.171L169.499 157.671L169.499 156.671" stroke="black" stroke-opacity="0.1" stroke-width="0.1"/>
<path d="M171 158.671L171.023 158.653L170.742 157.993L170.499 156.671" stroke="black" stroke-opacity="0.1" stroke-width="0.1"/>
<path d="M68.0004 226.671L69.5031 226.17L73.5059 222.17L78.5059 219.67" stroke="black" stroke-opacity="0.1" stroke-width="0.3"/>
<circle cx="180" cy="140.171" r="0.5" fill="white"/>
<circle cx="180" cy="140.171" r="0.5" fill="#00FFFF"/>
<path d="M168.105 189.852L169.266 188.15L170.512 190.805L169.232 194.003L168.66 196.99L168.087 199.977L167.881 202.725L167.341 203.433L166.403 203.085L165.465 202.738L165.533 202.027L168.105 189.852Z" fill="#F1F1F1"/>
<path d="M164.833 182.971L165.329 181.472L166.449 179.397L167.829 179.472L168.829 179.972L169.329 179.472L170.329 179.397L172.829 180.472L173.829 180.472L175.833 182.971L178.333 185.471L179.833 190.471L175.013 189.363L169.224 191.178L164.833 182.971Z" fill="#F1F1F1"/>
<path d="M170.749 190.241L173.56 189.065L173.554 190.564L173.554 194.065L173.554 196.565L173.554 199.565L174.054 201.907L173.054 202.565L171.775 201.907L171.054 199.064L170.743 196.263L170.745 192.828L170.749 190.241Z" fill="#F1F1F1"/>
<path d="M173.356 189.722L174.855 189.221L177.045 189.722L177.355 193.221L178.781 198.471L179.981 200.45L180.531 202.604L180.479 203.155L179.676 203.758L178.171 203.859L177.469 203.359L175.874 197.732L173.356 189.722Z" fill="#F1F1F1"/>
<path d="M177.332 189.971L179.331 189.971L179.833 189.971L180.917 194.918L182.332 195.971L184.332 196.471L186.832 196.971L187.333 197.971L186.833 198.471L186.333 198.971L185.333 198.971L179.921 197.01L178.833 195.971L178.333 192.971L177.332 189.971Z" fill="#F1F1F1"/>
<path d="M165.867 183.119L166.833 181.195L167.333 179.971L168.833 180.471L169.833 179.971L171.333 180.471L173.698 181.195L176.833 184.973L179.035 188.066L170.833 183.119L168.333 183.973L167.833 182.473L165.867 183.119Z" fill="#A8A8A8" fill-opacity="0.1"/>
<g filter="url(#filter1_d_135_398)">
<path d="M195.922 184.671L201.07 186.379L237.5 246.766V257.675L169 292.671L165 287.671L219.335 243.289V238.795L195.922 184.671Z" fill="#ECECEC"/>
</g>
<mask id="path-39-inside-1_135_398" fill="white">
<path d="M139 125.671L147 114.171L155.5 110.171L162.5 105.171L173 102.671H181.5L188 105.171L198.5 116.171L203 135.671L204.5 162.171L206.5 183.171L211.5 193.671L222.5 198.671L227.5 214.171L241 249.171L243.5 275.171L256 284.171V297.171L274.5 308.171L253 302.671L271.5 322.671L253 309.171L253.5 318.171L261 325.671L253 319.171L250.5 316.171L247.5 302.671L249.5 316.171L253 321.171L248.5 317.171L243.5 308.171L243 313.671L246 318.171L249.5 324.171L242 315.671L244 323.671L240 326.171L242.5 322.671L241 317.671L234.5 313.171L237 326.671L227.5 315.671L215.5 330.171L222.5 315.671L192 325.671L215.5 311.671L198.5 289.171L204.5 262.171L198.5 209.671L187.5 202.171L193 187.171L183.5 198.671L189.5 183.171L181.5 191.671L185 181.171L186 176.171L189.5 163.671V137.171L187.5 127.171L186 121.171L180.5 119.171L175 118.671L169.5 120.171H166.5L163.5 121.171L159.5 130.671L151 137.171L149 163.171L151.5 173.671L153 193.671H139L134.5 214.171L139 227.171L175 251.171L134.5 231.671L139 246.171L154.5 260.671L128 246.171L147 265.671L151 270.671L160 273.171L174.5 277.671L164.5 277.171L170 283.671L160.5 276.671L163.5 282.671L158 277.171L160 282.671L155.5 278.171L156.5 282.671L170 287.171L155.5 284.171L153 278.171L155.5 293.171L132 273.671L122.5 280.671L100.5 314.671L112 209.671L125.5 191.671L130 171.171L140 154.671L139 125.671Z"/>
</mask>
<path d="M139 125.671L147 114.171L155.5 110.171L162.5 105.171L173 102.671H181.5L188 105.171L198.5 116.171L203 135.671L204.5 162.171L206.5 183.171L211.5 193.671L222.5 198.671L227.5 214.171L241 249.171L243.5 275.171L256 284.171V297.171L274.5 308.171L253 302.671L271.5 322.671L253 309.171L253.5 318.171L261 325.671L253 319.171L250.5 316.171L247.5 302.671L249.5 316.171L253 321.171L248.5 317.171L243.5 308.171L243 313.671L246 318.171L249.5 324.171L242 315.671L244 323.671L240 326.171L242.5 322.671L241 317.671L234.5 313.171L237 326.671L227.5 315.671L215.5 330.171L222.5 315.671L192 325.671L215.5 311.671L198.5 289.171L204.5 262.171L198.5 209.671L187.5 202.171L193 187.171L183.5 198.671L189.5 183.171L181.5 191.671L185 181.171L186 176.171L189.5 163.671V137.171L187.5 127.171L186 121.171L180.5 119.171L175 118.671L169.5 120.171H166.5L163.5 121.171L159.5 130.671L151 137.171L149 163.171L151.5 173.671L153 193.671H139L134.5 214.171L139 227.171L175 251.171L134.5 231.671L139 246.171L154.5 260.671L128 246.171L147 265.671L151 270.671L160 273.171L174.5 277.671L164.5 277.171L170 283.671L160.5 276.671L163.5 282.671L158 277.171L160 282.671L155.5 278.171L156.5 282.671L170 287.171L155.5 284.171L153 278.171L155.5 293.171L132 273.671L122.5 280.671L100.5 314.671L112 209.671L125.5 191.671L130 171.171L140 154.671L139 125.671Z" fill="#EFEFEF" stroke="black" stroke-opacity="0.05" stroke-width="2" mask="url(#path-39-inside-1_135_398)"/>
<path d="M194.73 188.251L199.501 187.171L204.001 185.671L208.001 183.171L212.001 180.171L214.001 179.171L216.001 177.671L217.501 176.171L218.501 174.671L219.501 173.671L220.501 171.671L221 169.671" stroke="#989898" stroke-opacity="0.2" stroke-width="0.3"/>
<path d="M218.499 145.669L219.498 143.67L221.5 142.671L221.499 143.671L217.498 161.669L236.499 164.669L236.499 201.669L239.499 202.669L235.499 204.169L233.999 201.669L231.999 167.169L214.5 163.169L218.499 145.669Z" fill="#E8F8AA"/>
<path d="M237.001 181.171L241 197.671L255 201.671L266.5 208.671L284.5 208.671L311.501 211.671L342.501 225.171L382 234.171L403.001 216.671L411.5 208.671L415 192.171L438.5 181.171L456.5 155.671L431.5 196.671L415 201.171L413 213.171L417.501 225.171L422.501 251.171L408.001 238.171L398.001 243.171L403.001 268.671L395.001 249.171L381 251.171L374 252.671L375 270.671L360.501 243.171L338.001 235.671L334.501 249.171L327.001 234.171L311.501 228.171L294.5 228.171L287 225.171L280.001 220.671L280.001 213.171L275.5 217.171L269 218.171L257.5 215.171L237 201.671L237.001 181.171Z" fill="#CCF9EE"/>
<path d="M273.296 148.564L271 146.171L267.5 143.671L260.293 139.171L275.001 145.671L279.793 154.171L282.5 165.671L282 171.671L288 175.171L299 172.671L285.5 178.171L279.001 172.671L278.001 169.171L280.001 165.171L279.793 160.671L279.001 157.671L278.001 155.171L275.001 150.723L273.296 148.564Z" fill="#CCF9EE"/>
<path d="M237.5 181.671L275.115 193.406L293.742 192.138L306.51 191.463L325.119 191.252L350.034 197.844L392.193 184.146L456 156.671L393.245 185.192L349.483 199.436L325.107 192.31L275.109 193.935L237.5 181.671Z" fill="#CCF9EE"/>
<path d="M236 182.764L272.137 196.784L290.684 196.78L303.38 196.969L321.813 198.002L345.858 206.13L368 204.171L388.838 195.499L424 177.171L456 156.671L424.5 178.171L389.782 196.595L368 206.13L345.165 207.655L321.704 199.039L272.082 197.303L236 182.764Z" fill="#CCF9EE"/>
<path d="M242.5 146.671L262.5 161.671L268.5 161.671L271 162.171L272 175.171L275 177.671L293.028 187.971L306 187.971L325.001 187.971L348.177 192.681L389.75 178.703L456.002 156.669L390.766 179.706L347.612 194.24L325.001 189.17L293.028 189.17L290.501 188.17L271 175.671L270.5 163.171L262 163.171L242.5 146.671Z" fill="#CCF9EE"/>
<path d="M294.032 184.005L314.442 174.949L334.825 175.838L368.5 166.167L379.5 168.667L386 157.671L398 137.671L402 146.671L412 146L412 154.171L416.5 147.671L421 149.167L418.5 149.167L407 161.671L391.5 168.062L379.5 171.196L368.5 168.667L351.5 176.668L334.821 176.668L314.435 175.812L294.032 184.005Z" fill="#ACF3E2" fill-opacity="0.7"/>
<path d="M247.019 139.506L251.977 140.687L255.675 142.494L260.908 145.423L262.831 147.202L265.105 148.665L266.835 150.687L263.665 151.681L262.091 148.238L256.871 144.817L253.806 142.574L250.696 142.296L246.676 140.953L237.015 141.077L247.019 139.506Z" fill="#D3FFF5"/>
<path d="M170 161.671L134.884 211.145L102.276 253.988L94.2492 265.719L102.276 280.51L64.1495 288.671L45.0864 285.611L27.5282 275.92L19 253.988L21.5083 234.607L27.5282 227.466L35.0532 221.856H45.0864L51.1063 233.077L38.5648 244.807L32.0432 251.438L36.5581 242.767L38.0631 235.627L37.5615 233.077L32.5449 230.526L31.0399 235.117L27.0266 236.137L25.0199 236.647V240.727L26.0233 242.767L29.0332 246.338L23.0133 252.458L26.5249 255.518L27.0266 261.129L37.5615 268.269L43.0797 266.739L42.0764 259.599L56.1229 257.558L77.1927 273.88L85.2193 251.438L133.88 207.575L170 161.671Z" fill="#C6FFFF" fill-opacity="0.3"/>
<path d="M170 161.671L127.947 218.829L112.173 239.281L94.946 265.5L102.039 280.183L88.9333 288.049L77.28 290.671L64.0394 289.098L44.786 285.427L37.186 281.232L26.5592 275.583L18 253.439L20.5333 233.512L26.5592 226.566L32.7405 221.381L35.1594 219.878H44.786L50.3594 231.415L41.3067 241.903L31.1733 251.342L34.72 244.525L36.7467 241.903L37.76 237.707L38.7733 234.037V230.89L34.2133 227.22L30.6667 227.744L28.64 232.988L23.0667 234.561L23.5733 240.854L28.1333 245.573L20.5333 249.768L20.0267 252.39L20.5333 254.488L23.0667 256.061L25.026 261.829L37.76 272.317L46.3733 269.171L41.3067 270.22L38.7733 269.171L39.7867 267.598L41.8133 266.025L38.7733 266.549H37L36.24 265.5L35 264.671L34.5 263.671V262.671L35.6945 261.829H39.5L37 260.671L36.24 259.806V258.683L37 258.171H38L38.7733 259.507L37.76 257.171L37.5 256.171L38 255.671L37.76 255.218V254.858L38 254.671L38.2539 254.488H38.7733L44.786 245.573L47.826 251.866L56 249.768L62.5867 253.439H75.4859L77.28 257.634L76.7733 262.878L72.2133 268.122L65.12 268.646L63.0933 262.354L58.0267 269.171L47.826 281.232L58.0267 280.183L60.9994 275.583L73.666 277.037H82.2794L84.306 268.122L86.4 251.866L106.599 236.134L124.4 218.829L170 161.671Z" fill="#F4FFFF"/>
<path d="M386.066 44.994L384.902 43.0971L384.986 40.2604L386.774 38.5139L389.418 37.3128L392.059 36.1114L394.393 33.5563L395.566 29.1047L395.803 26.9443L395.886 24.1077L397.674 22.3611L400.316 21.1602L405.054 19.5653L409.248 18.7774L410.1 19.3223L410.562 21.3507L410.155 24.2546L407.481 25.0513L404.343 26.0453L402.708 28.4682L400.375 31.0224L397.65 35.0611L397.021 38.7049L394.995 42.6118L394.214 45.5798L392.578 48.0027L389.698 51.3669L387.924 46.7613L386.066 44.994Z" fill="#C4C4C4"/>
<path d="M433.019 45.1705L434.018 41.1713L435.854 38.0062L437.759 35.9676L440.251 32.934L440.251 29.405L440.251 26.3725L441.21 22.8653L443.606 20.4682L446.771 18.983L448.4 19.8691L449 21.6669L449 26.3725L447.5 29.405L444 34.1709L443.564 35.9676L442.795 38.0062L443.019 39.1709L442.795 41.3597L439.672 45.6756L437.758 47.1709L437.019 48.1709L434.519 47.1709L433.019 45.1705Z" fill="#C4C4C4"/>
<path d="M382.706 30.3066L382.632 29.3735L383.096 29.709L386.863 35.9709L388.662 38.2864L385.664 42.3379L385.665 38.2857L382.706 30.3066Z" fill="#C4C4C4"/>
<path d="M432.692 43.7469L433.192 42.5861L434.191 43.0861L435 43.7468L437.143 43.7468L437.5 45.671L436.192 47.086L435 45.671L432.692 43.7469Z" fill="#ACACAC"/>
<path d="M388.14 38.1825L394.488 33.4145L395.698 27.5171V26.9273V23.9786L396.302 22.7991L397.512 22.2094L400.535 21.0299L405.372 19.2606L409 18.6709L401.744 21.6196L398.721 24.5683L397.512 25.7478L396.907 28.1068L395.698 32.8247L390.86 38.1825L390.256 41.0812L388.14 41.6709H385.419L384.814 40.4914L386.628 38.7222L385.419 35.1837L383 30.4658V29.876L386.628 36.3632L387.233 36.9529L388.14 38.1825Z" fill="#ADADAD"/>
<path d="M440.771 27.6691L443.501 28.6692L446.5 28.6709L443.271 33.6691L442.771 35.6691L441.501 42.1691L439.001 44.6691L436.501 43.6691L434.501 42.1691L436.501 38.1691L440.771 33.1689L440.771 30.1685L440.771 27.6691Z" fill="#AFAFAF"/>
<path d="M157.5 182.671L161 181.671L166.5 179.671L165.5 183.671L164 183.171H162H160.5H160L158.5 184.171L158 184.671L157 184.171V183.171L157.5 182.671Z" fill="#F1F1F1"/>
<path d="M433 43.1709H433.5L436 45.1709L433 43.6709V43.1709Z" fill="#898989"/>
<path d="M442 22.5L443.5 21L446 20L447.5 21.5L447 24.5L446 27H443.5L441 25.5L442 22.5Z" fill="#ACACAC"/>
<path d="M417.023 123.395L403.504 96.1711L399.504 85.6707L400.001 77.671L404.001 90.1711L407.501 95.6711L417.501 106.171L417.023 111.671L426.5 121.171L424.501 128.671L425.505 141.172L399.505 130.172L417.023 123.395Z" fill="#E0E0E0"/>
<line y1="-0.05" x2="421.245" y2="-0.05" transform="matrix(0.99786 -0.0653792 0.0359597 0.999353 35.582 196.945)" stroke="white" stroke-width="0.1"/>
<line y1="-0.05" x2="421.245" y2="-0.05" transform="matrix(0.99786 -0.0653792 0.0359597 0.999353 35.582 195.633)" stroke="white" stroke-width="0.1"/>
<line y1="-0.05" x2="414.559" y2="-0.05" transform="matrix(0.994789 -0.101953 0.0229975 0.999735 122.314 207.372)" stroke="white" stroke-width="0.1"/>
<line y1="-0.05" x2="414.559" y2="-0.05" transform="matrix(0.994789 -0.101953 0.0229975 0.999735 121.837 214.416)" stroke="white" stroke-width="0.1"/>
<line y1="-0.05" x2="414.53" y2="-0.05" transform="matrix(0.994926 -0.100608 0.0233081 0.999728 120.883 200.327)" stroke="white" stroke-width="0.1"/>
<line y1="-0.05" x2="414.559" y2="-0.05" transform="matrix(0.994789 -0.101953 0.0229975 0.999735 121.837 211.396)" stroke="white" stroke-width="0.1"/>
<line y1="-0.05" x2="414.559" y2="-0.05" transform="matrix(0.994789 -0.101953 0.0229975 0.999735 121.359 203.346)" stroke="white" stroke-width="0.1"/>
<line y1="-0.05" x2="415.859" y2="-0.05" transform="matrix(0.999698 -0.0245736 -0.103641 0.994615 116.798 191.981)" stroke="white" stroke-width="0.1"/>
<line y1="-0.05" x2="415.859" y2="-0.05" transform="matrix(0.999698 -0.0245736 -0.103641 0.994615 118.073 181.968)" stroke="white" stroke-width="0.1"/>
<line y1="-0.05" x2="415.859" y2="-0.05" transform="matrix(0.999698 -0.0245736 -0.103641 0.994615 114.537 205.964)" stroke="white" stroke-width="0.1"/>
<line y1="-0.05" x2="415.859" y2="-0.05" transform="matrix(0.999698 -0.0245736 -0.103641 0.994615 114.792 203.961)" stroke="white" stroke-width="0.1"/>
<line y1="-0.05" x2="415.859" y2="-0.05" transform="matrix(0.999698 -0.0245736 -0.103641 0.994615 115.649 200.994)" stroke="white" stroke-width="0.1"/>
<line y1="-0.05" x2="415.859" y2="-0.05" transform="matrix(0.999698 -0.0245736 -0.103641 0.994615 115.558 197.953)" stroke="white" stroke-width="0.1"/>
<line y1="-0.05" x2="415.859" y2="-0.05" transform="matrix(0.999698 -0.0245736 -0.103641 0.994615 116.068 193.947)" stroke="white" stroke-width="0.1"/>
<line y1="-0.05" x2="415.859" y2="-0.05" transform="matrix(0.999698 -0.0245736 -0.103641 0.994615 116.706 188.94)" stroke="white" stroke-width="0.1"/>
<line y1="-0.05" x2="415.802" y2="-0.05" transform="matrix(0.99973 -0.0232299 -0.103333 0.994647 117.543 174.847)" stroke="white" stroke-width="0.1"/>
<line y1="-0.05" x2="415.859" y2="-0.05" transform="matrix(0.999698 -0.0245736 -0.103641 0.994615 117.089 185.936)" stroke="white" stroke-width="0.1"/>
<line y1="-0.05" x2="415.859" y2="-0.05" transform="matrix(0.999698 -0.0245736 -0.103641 0.994615 117.634 177.888)" stroke="white" stroke-width="0.1"/>
<line y1="-0.05" x2="415.859" y2="-0.05" transform="matrix(0.999698 -0.0245736 -0.103641 0.994615 122.267 207.575)" stroke="white" stroke-width="0.1"/>
<line y1="-0.05" x2="415.802" y2="-0.05" transform="matrix(0.99973 -0.0232299 -0.103333 0.994647 121.736 200.455)" stroke="white" stroke-width="0.1"/>
<line y1="-0.05" x2="415.859" y2="-0.05" transform="matrix(0.999698 -0.0245736 -0.103641 0.994615 121.827 203.496)" stroke="white" stroke-width="0.1"/>
<line y1="-0.05" x2="401.826" y2="-0.05" transform="matrix(0.942682 -0.333693 0.3833 0.923624 8.74805 281.707)" stroke="white" stroke-width="0.1"/>
<line y1="-0.05" x2="401.826" y2="-0.05" transform="matrix(0.942682 -0.333693 0.3833 0.923624 4.99512 272.079)" stroke="white" stroke-width="0.1"/>
<line y1="-0.05" x2="401.826" y2="-0.05" transform="matrix(0.942682 -0.333693 0.3833 0.923624 7.16602 278.927)" stroke="white" stroke-width="0.1"/>
<line y1="-0.05" x2="401.872" y2="-0.05" transform="matrix(0.943161 -0.332336 0.38357 0.923512 1 265.665)" stroke="white" stroke-width="0.1"/>
<line y1="-0.05" x2="401.826" y2="-0.05" transform="matrix(0.942682 -0.333693 0.3833 0.923624 6.04004 276.039)" stroke="white" stroke-width="0.1"/>
<line y1="-0.05" x2="401.826" y2="-0.05" transform="matrix(0.942682 -0.333693 0.3833 0.923624 2.58203 268.444)" stroke="white" stroke-width="0.1"/>
<line y1="-0.05" x2="401.826" y2="-0.05" transform="matrix(0.942682 -0.333693 0.3833 0.923624 40.9004 262.505)" stroke="white" stroke-width="0.1"/>
<line y1="-0.05" x2="401.826" y2="-0.05" transform="matrix(0.942682 -0.333693 0.3833 0.923624 43.0703 269.353)" stroke="white" stroke-width="0.1"/>
<line y1="-0.05" x2="401.872" y2="-0.05" transform="matrix(0.943161 -0.332336 0.38357 0.923512 36.9043 256.091)" stroke="white" stroke-width="0.1"/>
<line y1="-0.05" x2="401.826" y2="-0.05" transform="matrix(0.942682 -0.333693 0.3833 0.923624 41.9443 266.464)" stroke="white" stroke-width="0.1"/>
<line y1="-0.05" x2="401.826" y2="-0.05" transform="matrix(0.942682 -0.333693 0.3833 0.923624 38.4863 258.871)" stroke="white" stroke-width="0.1"/>
<line y1="-0.05" x2="401.826" y2="-0.05" transform="matrix(0.942682 -0.333693 0.3833 0.923624 36.8564 225.599)" stroke="white" stroke-width="0.1"/>
<line y1="-0.05" x2="401.826" y2="-0.05" transform="matrix(0.942682 -0.333693 0.3833 0.923624 33.1035 215.971)" stroke="white" stroke-width="0.1"/>
<line y1="-0.05" x2="401.826" y2="-0.05" transform="matrix(0.942682 -0.333693 0.3833 0.923624 41.6533 239.186)" stroke="white" stroke-width="0.1"/>
<line y1="-0.05" x2="401.826" y2="-0.05" transform="matrix(0.942682 -0.333693 0.3833 0.923624 40.9023 237.26)" stroke="white" stroke-width="0.1"/>
<line y1="-0.05" x2="401.826" y2="-0.05" transform="matrix(0.942682 -0.333693 0.3833 0.923624 40.2324 234.263)" stroke="white" stroke-width="0.1"/>
<line y1="-0.05" x2="401.826" y2="-0.05" transform="matrix(0.942682 -0.333693 0.3833 0.923624 38.6514 231.483)" stroke="white" stroke-width="0.1"/>
<line y1="-0.05" x2="401.826" y2="-0.05" transform="matrix(0.942682 -0.333693 0.3833 0.923624 37.1514 227.632)" stroke="white" stroke-width="0.1"/>
<line y1="-0.05" x2="401.826" y2="-0.05" transform="matrix(0.942682 -0.333693 0.3833 0.923624 35.2744 222.818)" stroke="white" stroke-width="0.1"/>
<line y1="-0.05" x2="401.872" y2="-0.05" transform="matrix(0.943161 -0.332336 0.38357 0.923512 29.1084 209.556)" stroke="white" stroke-width="0.1"/>
<line y1="-0.05" x2="401.826" y2="-0.05" transform="matrix(0.942682 -0.333693 0.3833 0.923624 34.1484 219.93)" stroke="white" stroke-width="0.1"/>
<line y1="-0.05" x2="401.826" y2="-0.05" transform="matrix(0.942682 -0.333693 0.3833 0.923624 30.6895 212.336)" stroke="white" stroke-width="0.1"/>
<line y1="-0.05" x2="401.826" y2="-0.05" transform="matrix(0.942682 -0.333693 0.3833 0.923624 53.335 247.984)" stroke="white" stroke-width="0.1"/>
<line y1="-0.05" x2="401.826" y2="-0.05" transform="matrix(0.942682 -0.333693 0.3833 0.923624 49.582 238.355)" stroke="white" stroke-width="0.1"/>
<line y1="-0.05" x2="401.826" y2="-0.05" transform="matrix(0.942682 -0.333693 0.3833 0.923624 58.1328 261.571)" stroke="white" stroke-width="0.1"/>
<line y1="-0.05" x2="401.826" y2="-0.05" transform="matrix(0.942682 -0.333693 0.3833 0.923624 57.3818 259.645)" stroke="white" stroke-width="0.1"/>
<line y1="-0.05" x2="401.826" y2="-0.05" transform="matrix(0.942682 -0.333693 0.3833 0.923624 56.7109 256.648)" stroke="white" stroke-width="0.1"/>
<line y1="-0.05" x2="401.826" y2="-0.05" transform="matrix(0.942682 -0.333693 0.3833 0.923624 55.1299 253.868)" stroke="white" stroke-width="0.1"/>
<line y1="-0.05" x2="401.826" y2="-0.05" transform="matrix(0.942682 -0.333693 0.3833 0.923624 53.6289 250.017)" stroke="white" stroke-width="0.1"/>
<line y1="-0.05" x2="401.826" y2="-0.05" transform="matrix(0.942682 -0.333693 0.3833 0.923624 51.7529 245.203)" stroke="white" stroke-width="0.1"/>
<line y1="-0.05" x2="401.872" y2="-0.05" transform="matrix(0.943161 -0.332336 0.38357 0.923512 45.5869 231.941)" stroke="white" stroke-width="0.1"/>
<line y1="-0.05" x2="401.826" y2="-0.05" transform="matrix(0.942682 -0.333693 0.3833 0.923624 50.6279 242.315)" stroke="white" stroke-width="0.1"/>
<line y1="-0.05" x2="401.826" y2="-0.05" transform="matrix(0.942682 -0.333693 0.3833 0.923624 47.1689 234.721)" stroke="white" stroke-width="0.1"/>
<line y1="-0.05" x2="401.872" y2="-0.05" transform="matrix(0.943161 -0.332336 0.38357 0.923512 50.5342 262.322)" stroke="white" stroke-width="0.1"/>
<line y1="-0.05" x2="401.826" y2="-0.05" transform="matrix(0.942682 -0.333693 0.3833 0.923624 52.1162 265.102)" stroke="white" stroke-width="0.1"/>
<line y1="-0.05" x2="421.245" y2="-0.05" transform="matrix(0.99786 -0.0653792 0.0359597 0.999353 35.582 196.945)" stroke="white" stroke-width="0.1"/>
<line y1="-0.05" x2="421.245" y2="-0.05" transform="matrix(0.99786 -0.0653792 0.0359597 0.999353 35.582 195.633)" stroke="white" stroke-width="0.1"/>
<line y1="-0.05" x2="414.559" y2="-0.05" transform="matrix(0.994789 -0.101953 0.0229975 0.999735 122.314 207.372)" stroke="white" stroke-width="0.1"/>
<line y1="-0.05" x2="414.559" y2="-0.05" transform="matrix(0.994789 -0.101953 0.0229975 0.999735 121.837 214.416)" stroke="white" stroke-width="0.1"/>
<line y1="-0.05" x2="414.53" y2="-0.05" transform="matrix(0.994926 -0.100608 0.0233081 0.999728 120.883 200.327)" stroke="white" stroke-width="0.1"/>
<line y1="-0.05" x2="414.559" y2="-0.05" transform="matrix(0.994789 -0.101953 0.0229975 0.999735 121.837 211.396)" stroke="white" stroke-width="0.1"/>
<line y1="-0.05" x2="414.559" y2="-0.05" transform="matrix(0.994789 -0.101953 0.0229975 0.999735 121.359 203.346)" stroke="white" stroke-width="0.1"/>
<line y1="-0.05" x2="415.859" y2="-0.05" transform="matrix(0.999698 -0.0245736 -0.103641 0.994615 116.798 191.981)" stroke="white" stroke-width="0.1"/>
<line y1="-0.05" x2="415.859" y2="-0.05" transform="matrix(0.999698 -0.0245736 -0.103641 0.994615 118.073 181.968)" stroke="white" stroke-width="0.1"/>
<line y1="-0.05" x2="415.859" y2="-0.05" transform="matrix(0.999698 -0.0245736 -0.103641 0.994615 114.537 205.964)" stroke="white" stroke-width="0.1"/>
<line y1="-0.05" x2="415.859" y2="-0.05" transform="matrix(0.999698 -0.0245736 -0.103641 0.994615 114.792 203.961)" stroke="white" stroke-width="0.1"/>
<line y1="-0.05" x2="415.859" y2="-0.05" transform="matrix(0.999698 -0.0245736 -0.103641 0.994615 115.649 200.994)" stroke="white" stroke-width="0.1"/>
<line y1="-0.05" x2="415.859" y2="-0.05" transform="matrix(0.999698 -0.0245736 -0.103641 0.994615 115.558 197.953)" stroke="white" stroke-width="0.1"/>
<line y1="-0.05" x2="415.859" y2="-0.05" transform="matrix(0.999698 -0.0245736 -0.103641 0.994615 116.068 193.947)" stroke="white" stroke-width="0.1"/>
<line y1="-0.05" x2="415.859" y2="-0.05" transform="matrix(0.999698 -0.0245736 -0.103641 0.994615 116.706 188.94)" stroke="white" stroke-width="0.1"/>
<line y1="-0.05" x2="415.802" y2="-0.05" transform="matrix(0.99973 -0.0232299 -0.103333 0.994647 117.543 174.847)" stroke="white" stroke-width="0.1"/>
<line y1="-0.05" x2="415.859" y2="-0.05" transform="matrix(0.999698 -0.0245736 -0.103641 0.994615 117.089 185.936)" stroke="white" stroke-width="0.1"/>
<line y1="-0.05" x2="415.859" y2="-0.05" transform="matrix(0.999698 -0.0245736 -0.103641 0.994615 117.634 177.888)" stroke="white" stroke-width="0.1"/>
<line y1="-0.05" x2="415.859" y2="-0.05" transform="matrix(0.999698 -0.0245736 -0.103641 0.994615 122.267 207.575)" stroke="white" stroke-width="0.1"/>
<line y1="-0.05" x2="415.802" y2="-0.05" transform="matrix(0.99973 -0.0232299 -0.103333 0.994647 121.736 200.455)" stroke="white" stroke-width="0.1"/>
<line y1="-0.05" x2="415.859" y2="-0.05" transform="matrix(0.999698 -0.0245736 -0.103641 0.994615 121.827 203.496)" stroke="white" stroke-width="0.1"/>
<line y1="-0.05" x2="401.826" y2="-0.05" transform="matrix(0.942682 -0.333693 0.3833 0.923624 8.74805 281.707)" stroke="white" stroke-width="0.1"/>
<line y1="-0.05" x2="401.826" y2="-0.05" transform="matrix(0.942682 -0.333693 0.3833 0.923624 4.99512 272.079)" stroke="white" stroke-width="0.1"/>
<line y1="-0.05" x2="401.826" y2="-0.05" transform="matrix(0.942682 -0.333693 0.3833 0.923624 7.16602 278.927)" stroke="white" stroke-width="0.1"/>
<line y1="-0.05" x2="401.872" y2="-0.05" transform="matrix(0.943161 -0.332336 0.38357 0.923512 1 265.665)" stroke="white" stroke-width="0.1"/>
<line y1="-0.05" x2="401.826" y2="-0.05" transform="matrix(0.942682 -0.333693 0.3833 0.923624 6.04004 276.039)" stroke="white" stroke-width="0.1"/>
<line y1="-0.05" x2="401.826" y2="-0.05" transform="matrix(0.942682 -0.333693 0.3833 0.923624 2.58203 268.444)" stroke="white" stroke-width="0.1"/>
<line y1="-0.05" x2="401.826" y2="-0.05" transform="matrix(0.942682 -0.333693 0.3833 0.923624 40.9004 262.505)" stroke="white" stroke-width="0.1"/>
<line y1="-0.05" x2="401.826" y2="-0.05" transform="matrix(0.942682 -0.333693 0.3833 0.923624 43.0703 269.353)" stroke="white" stroke-width="0.1"/>
<line y1="-0.05" x2="401.872" y2="-0.05" transform="matrix(0.943161 -0.332336 0.38357 0.923512 36.9043 256.091)" stroke="white" stroke-width="0.1"/>
<line y1="-0.05" x2="401.826" y2="-0.05" transform="matrix(0.942682 -0.333693 0.3833 0.923624 41.9443 266.464)" stroke="white" stroke-width="0.1"/>
<line y1="-0.05" x2="401.826" y2="-0.05" transform="matrix(0.942682 -0.333693 0.3833 0.923624 38.4863 258.871)" stroke="white" stroke-width="0.1"/>
<line y1="-0.05" x2="401.826" y2="-0.05" transform="matrix(0.942682 -0.333693 0.3833 0.923624 36.8564 225.599)" stroke="white" stroke-width="0.1"/>
<line y1="-0.05" x2="401.826" y2="-0.05" transform="matrix(0.942682 -0.333693 0.3833 0.923624 33.1035 215.971)" stroke="white" stroke-width="0.1"/>
<line y1="-0.05" x2="401.826" y2="-0.05" transform="matrix(0.942682 -0.333693 0.3833 0.923624 41.6533 239.186)" stroke="white" stroke-width="0.1"/>
<line y1="-0.05" x2="401.826" y2="-0.05" transform="matrix(0.942682 -0.333693 0.3833 0.923624 40.9023 237.26)" stroke="white" stroke-width="0.1"/>
<line y1="-0.05" x2="401.826" y2="-0.05" transform="matrix(0.942682 -0.333693 0.3833 0.923624 40.2324 234.263)" stroke="white" stroke-width="0.1"/>
<line y1="-0.05" x2="401.826" y2="-0.05" transform="matrix(0.942682 -0.333693 0.3833 0.923624 38.6514 231.483)" stroke="white" stroke-width="0.1"/>
<line y1="-0.05" x2="401.826" y2="-0.05" transform="matrix(0.942682 -0.333693 0.3833 0.923624 37.1514 227.632)" stroke="white" stroke-width="0.1"/>
<line y1="-0.05" x2="401.826" y2="-0.05" transform="matrix(0.942682 -0.333693 0.3833 0.923624 35.2744 222.818)" stroke="white" stroke-width="0.1"/>
<line y1="-0.05" x2="401.872" y2="-0.05" transform="matrix(0.943161 -0.332336 0.38357 0.923512 29.1084 209.556)" stroke="white" stroke-width="0.1"/>
<line y1="-0.05" x2="401.826" y2="-0.05" transform="matrix(0.942682 -0.333693 0.3833 0.923624 34.1484 219.93)" stroke="white" stroke-width="0.1"/>
<line y1="-0.05" x2="401.826" y2="-0.05" transform="matrix(0.942682 -0.333693 0.3833 0.923624 30.6895 212.336)" stroke="white" stroke-width="0.1"/>
<line y1="-0.05" x2="401.826" y2="-0.05" transform="matrix(0.942682 -0.333693 0.3833 0.923624 53.335 247.984)" stroke="white" stroke-width="0.1"/>
<line y1="-0.05" x2="401.826" y2="-0.05" transform="matrix(0.942682 -0.333693 0.3833 0.923624 49.582 238.355)" stroke="white" stroke-width="0.1"/>
<line y1="-0.05" x2="401.826" y2="-0.05" transform="matrix(0.942682 -0.333693 0.3833 0.923624 58.1328 261.571)" stroke="white" stroke-width="0.1"/>
<line y1="-0.05" x2="401.826" y2="-0.05" transform="matrix(0.942682 -0.333693 0.3833 0.923624 57.3818 259.645)" stroke="white" stroke-width="0.1"/>
<line y1="-0.05" x2="401.826" y2="-0.05" transform="matrix(0.942682 -0.333693 0.3833 0.923624 56.7109 256.648)" stroke="white" stroke-width="0.1"/>
<line y1="-0.05" x2="401.826" y2="-0.05" transform="matrix(0.942682 -0.333693 0.3833 0.923624 55.1299 253.868)" stroke="white" stroke-width="0.1"/>
<line y1="-0.05" x2="401.826" y2="-0.05" transform="matrix(0.942682 -0.333693 0.3833 0.923624 53.6289 250.017)" stroke="white" stroke-width="0.1"/>
<line y1="-0.05" x2="401.826" y2="-0.05" transform="matrix(0.942682 -0.333693 0.3833 0.923624 51.7529 245.203)" stroke="white" stroke-width="0.1"/>
<line y1="-0.05" x2="401.872" y2="-0.05" transform="matrix(0.943161 -0.332336 0.38357 0.923512 45.5869 231.941)" stroke="white" stroke-width="0.1"/>
<line y1="-0.05" x2="401.826" y2="-0.05" transform="matrix(0.942682 -0.333693 0.3833 0.923624 50.6279 242.315)" stroke="white" stroke-width="0.1"/>
<line y1="-0.05" x2="401.826" y2="-0.05" transform="matrix(0.942682 -0.333693 0.3833 0.923624 47.1689 234.721)" stroke="white" stroke-width="0.1"/>
<line y1="-0.05" x2="401.872" y2="-0.05" transform="matrix(0.943161 -0.332336 0.38357 0.923512 50.5342 262.322)" stroke="white" stroke-width="0.1"/>
<line y1="-0.05" x2="401.826" y2="-0.05" transform="matrix(0.942682 -0.333693 0.3833 0.923624 52.1162 265.102)" stroke="white" stroke-width="0.1"/>
<line y1="-0.05" x2="421.245" y2="-0.05" transform="matrix(0.99786 -0.0653792 0.0359597 0.999353 43.582 156.945)" stroke="white" stroke-width="0.1"/>
<line y1="-0.05" x2="421.245" y2="-0.05" transform="matrix(0.99786 -0.0653792 0.0359597 0.999353 43.582 155.633)" stroke="white" stroke-width="0.1"/>
<line y1="-0.05" x2="414.559" y2="-0.05" transform="matrix(0.994789 -0.101953 0.0229975 0.999735 130.314 167.372)" stroke="white" stroke-width="0.1"/>
<line y1="-0.05" x2="414.559" y2="-0.05" transform="matrix(0.994789 -0.101953 0.0229975 0.999735 129.837 174.416)" stroke="white" stroke-width="0.1"/>
<line y1="-0.05" x2="414.53" y2="-0.05" transform="matrix(0.994926 -0.100608 0.0233081 0.999728 128.883 160.327)" stroke="white" stroke-width="0.1"/>
<line y1="-0.05" x2="414.559" y2="-0.05" transform="matrix(0.994789 -0.101953 0.0229975 0.999735 129.837 171.396)" stroke="white" stroke-width="0.1"/>
<line y1="-0.05" x2="414.559" y2="-0.05" transform="matrix(0.994789 -0.101953 0.0229975 0.999735 129.359 163.346)" stroke="white" stroke-width="0.1"/>
<line y1="-0.05" x2="415.859" y2="-0.05" transform="matrix(0.999698 -0.0245736 -0.103641 0.994615 124.798 151.981)" stroke="white" stroke-width="0.1"/>
<line y1="-0.05" x2="415.859" y2="-0.05" transform="matrix(0.999698 -0.0245736 -0.103641 0.994615 126.073 141.968)" stroke="white" stroke-width="0.1"/>
<line y1="-0.05" x2="415.859" y2="-0.05" transform="matrix(0.999698 -0.0245736 -0.103641 0.994615 122.537 165.964)" stroke="white" stroke-width="0.1"/>
<line y1="-0.05" x2="415.859" y2="-0.05" transform="matrix(0.999698 -0.0245736 -0.103641 0.994615 122.792 163.961)" stroke="white" stroke-width="0.1"/>
<line y1="-0.05" x2="415.859" y2="-0.05" transform="matrix(0.999698 -0.0245736 -0.103641 0.994615 123.649 160.994)" stroke="white" stroke-width="0.1"/>
<line y1="-0.05" x2="415.859" y2="-0.05" transform="matrix(0.999698 -0.0245736 -0.103641 0.994615 123.558 157.953)" stroke="white" stroke-width="0.1"/>
<line y1="-0.05" x2="415.859" y2="-0.05" transform="matrix(0.999698 -0.0245736 -0.103641 0.994615 124.068 153.947)" stroke="white" stroke-width="0.1"/>
<line y1="-0.05" x2="415.859" y2="-0.05" transform="matrix(0.999698 -0.0245736 -0.103641 0.994615 124.706 148.94)" stroke="white" stroke-width="0.1"/>
<line y1="-0.05" x2="415.802" y2="-0.05" transform="matrix(0.99973 -0.0232299 -0.103333 0.994647 125.543 134.847)" stroke="white" stroke-width="0.1"/>
<line y1="-0.05" x2="415.859" y2="-0.05" transform="matrix(0.999698 -0.0245736 -0.103641 0.994615 125.089 145.936)" stroke="white" stroke-width="0.1"/>
<line y1="-0.05" x2="415.859" y2="-0.05" transform="matrix(0.999698 -0.0245736 -0.103641 0.994615 125.634 137.888)" stroke="white" stroke-width="0.1"/>
<line y1="-0.05" x2="415.859" y2="-0.05" transform="matrix(0.999698 -0.0245736 -0.103641 0.994615 130.267 167.575)" stroke="white" stroke-width="0.1"/>
<line y1="-0.05" x2="415.802" y2="-0.05" transform="matrix(0.99973 -0.0232299 -0.103333 0.994647 129.736 160.455)" stroke="white" stroke-width="0.1"/>
<line y1="-0.05" x2="415.859" y2="-0.05" transform="matrix(0.999698 -0.0245736 -0.103641 0.994615 129.827 163.496)" stroke="white" stroke-width="0.1"/>
<line y1="-0.05" x2="401.826" y2="-0.05" transform="matrix(0.942682 -0.333693 0.3833 0.923624 16.748 241.707)" stroke="white" stroke-width="0.1"/>
<line y1="-0.05" x2="401.826" y2="-0.05" transform="matrix(0.942682 -0.333693 0.3833 0.923624 12.9951 232.079)" stroke="white" stroke-width="0.1"/>
<line y1="-0.05" x2="401.826" y2="-0.05" transform="matrix(0.942682 -0.333693 0.3833 0.923624 15.166 238.927)" stroke="white" stroke-width="0.1"/>
<line y1="-0.05" x2="401.872" y2="-0.05" transform="matrix(0.943161 -0.332336 0.38357 0.923512 9 225.665)" stroke="white" stroke-width="0.1"/>
<line y1="-0.05" x2="401.826" y2="-0.05" transform="matrix(0.942682 -0.333693 0.3833 0.923624 14.04 236.039)" stroke="white" stroke-width="0.1"/>
<line y1="-0.05" x2="401.826" y2="-0.05" transform="matrix(0.942682 -0.333693 0.3833 0.923624 10.582 228.444)" stroke="white" stroke-width="0.1"/>
<line y1="-0.05" x2="401.826" y2="-0.05" transform="matrix(0.942682 -0.333693 0.3833 0.923624 48.9004 222.505)" stroke="white" stroke-width="0.1"/>
<line y1="-0.05" x2="401.826" y2="-0.05" transform="matrix(0.942682 -0.333693 0.3833 0.923624 51.0703 229.353)" stroke="white" stroke-width="0.1"/>
<line y1="-0.05" x2="401.872" y2="-0.05" transform="matrix(0.943161 -0.332336 0.38357 0.923512 44.9043 216.091)" stroke="white" stroke-width="0.1"/>
<line y1="-0.05" x2="401.826" y2="-0.05" transform="matrix(0.942682 -0.333693 0.3833 0.923624 49.9443 226.464)" stroke="white" stroke-width="0.1"/>
<line y1="-0.05" x2="401.826" y2="-0.05" transform="matrix(0.942682 -0.333693 0.3833 0.923624 46.4863 218.871)" stroke="white" stroke-width="0.1"/>
<line y1="-0.05" x2="401.826" y2="-0.05" transform="matrix(0.942682 -0.333693 0.3833 0.923624 44.8564 185.599)" stroke="white" stroke-width="0.1"/>
<line y1="-0.05" x2="401.826" y2="-0.05" transform="matrix(0.942682 -0.333693 0.3833 0.923624 41.1035 175.971)" stroke="white" stroke-width="0.1"/>
<line y1="-0.05" x2="401.826" y2="-0.05" transform="matrix(0.942682 -0.333693 0.3833 0.923624 49.6533 199.186)" stroke="white" stroke-width="0.1"/>
<line y1="-0.05" x2="401.826" y2="-0.05" transform="matrix(0.942682 -0.333693 0.3833 0.923624 48.9023 197.26)" stroke="white" stroke-width="0.1"/>
<line y1="-0.05" x2="401.826" y2="-0.05" transform="matrix(0.942682 -0.333693 0.3833 0.923624 48.2324 194.263)" stroke="white" stroke-width="0.1"/>
<line y1="-0.05" x2="401.826" y2="-0.05" transform="matrix(0.942682 -0.333693 0.3833 0.923624 46.6514 191.483)" stroke="white" stroke-width="0.1"/>
<line y1="-0.05" x2="401.826" y2="-0.05" transform="matrix(0.942682 -0.333693 0.3833 0.923624 45.1514 187.632)" stroke="white" stroke-width="0.1"/>
<line y1="-0.05" x2="401.826" y2="-0.05" transform="matrix(0.942682 -0.333693 0.3833 0.923624 43.2744 182.818)" stroke="white" stroke-width="0.1"/>
<line y1="-0.05" x2="401.872" y2="-0.05" transform="matrix(0.943161 -0.332336 0.38357 0.923512 37.1084 169.556)" stroke="white" stroke-width="0.1"/>
<line y1="-0.05" x2="401.826" y2="-0.05" transform="matrix(0.942682 -0.333693 0.3833 0.923624 42.1484 179.93)" stroke="white" stroke-width="0.1"/>
<line y1="-0.05" x2="401.826" y2="-0.05" transform="matrix(0.942682 -0.333693 0.3833 0.923624 38.6895 172.336)" stroke="white" stroke-width="0.1"/>
<line y1="-0.05" x2="401.826" y2="-0.05" transform="matrix(0.942682 -0.333693 0.3833 0.923624 61.335 207.984)" stroke="white" stroke-width="0.1"/>
<line y1="-0.05" x2="401.826" y2="-0.05" transform="matrix(0.942682 -0.333693 0.3833 0.923624 57.582 198.355)" stroke="white" stroke-width="0.1"/>
<line y1="-0.05" x2="401.826" y2="-0.05" transform="matrix(0.942682 -0.333693 0.3833 0.923624 66.1328 221.571)" stroke="white" stroke-width="0.1"/>
<line y1="-0.05" x2="401.826" y2="-0.05" transform="matrix(0.942682 -0.333693 0.3833 0.923624 65.3818 219.645)" stroke="white" stroke-width="0.1"/>
<line y1="-0.05" x2="401.826" y2="-0.05" transform="matrix(0.942682 -0.333693 0.3833 0.923624 64.7109 216.648)" stroke="white" stroke-width="0.1"/>
<line y1="-0.05" x2="401.826" y2="-0.05" transform="matrix(0.942682 -0.333693 0.3833 0.923624 63.1299 213.868)" stroke="white" stroke-width="0.1"/>
<line y1="-0.05" x2="401.826" y2="-0.05" transform="matrix(0.942682 -0.333693 0.3833 0.923624 61.6289 210.017)" stroke="white" stroke-width="0.1"/>
<line y1="-0.05" x2="401.826" y2="-0.05" transform="matrix(0.942682 -0.333693 0.3833 0.923624 59.7529 205.203)" stroke="white" stroke-width="0.1"/>
<line y1="-0.05" x2="401.872" y2="-0.05" transform="matrix(0.943161 -0.332336 0.38357 0.923512 53.5869 191.941)" stroke="white" stroke-width="0.1"/>
<line y1="-0.05" x2="401.826" y2="-0.05" transform="matrix(0.942682 -0.333693 0.3833 0.923624 58.6279 202.315)" stroke="white" stroke-width="0.1"/>
<line y1="-0.05" x2="401.826" y2="-0.05" transform="matrix(0.942682 -0.333693 0.3833 0.923624 55.1689 194.721)" stroke="white" stroke-width="0.1"/>
<line y1="-0.05" x2="401.872" y2="-0.05" transform="matrix(0.943161 -0.332336 0.38357 0.923512 58.5342 222.322)" stroke="white" stroke-width="0.1"/>
<line y1="-0.05" x2="401.826" y2="-0.05" transform="matrix(0.942682 -0.333693 0.3833 0.923624 60.1162 225.102)" stroke="white" stroke-width="0.1"/>
<line y1="-0.05" x2="421.245" y2="-0.05" transform="matrix(0.99786 -0.0653792 0.0359597 0.999353 78.582 263.945)" stroke="white" stroke-width="0.1"/>
<line y1="-0.05" x2="421.245" y2="-0.05" transform="matrix(0.99786 -0.0653792 0.0359597 0.999353 78.582 262.633)" stroke="white" stroke-width="0.1"/>
<line y1="-0.05" x2="414.559" y2="-0.05" transform="matrix(0.994789 -0.101953 0.0229975 0.999735 165.314 274.372)" stroke="white" stroke-width="0.1"/>
<line y1="-0.05" x2="414.559" y2="-0.05" transform="matrix(0.994789 -0.101953 0.0229975 0.999735 164.837 281.416)" stroke="white" stroke-width="0.1"/>
<line y1="-0.05" x2="414.53" y2="-0.05" transform="matrix(0.994926 -0.100608 0.0233081 0.999728 163.883 267.327)" stroke="white" stroke-width="0.1"/>
<line y1="-0.05" x2="414.559" y2="-0.05" transform="matrix(0.994789 -0.101953 0.0229975 0.999735 164.837 278.396)" stroke="white" stroke-width="0.1"/>
<line y1="-0.05" x2="414.559" y2="-0.05" transform="matrix(0.994789 -0.101953 0.0229975 0.999735 164.359 270.346)" stroke="white" stroke-width="0.1"/>
<line y1="-0.05" x2="415.859" y2="-0.05" transform="matrix(0.999698 -0.0245736 -0.103641 0.994615 159.798 258.981)" stroke="white" stroke-width="0.1"/>
<line y1="-0.05" x2="415.859" y2="-0.05" transform="matrix(0.999698 -0.0245736 -0.103641 0.994615 161.073 248.968)" stroke="white" stroke-width="0.1"/>
<line y1="-0.05" x2="415.859" y2="-0.05" transform="matrix(0.999698 -0.0245736 -0.103641 0.994615 157.537 272.964)" stroke="white" stroke-width="0.1"/>
<line y1="-0.05" x2="415.859" y2="-0.05" transform="matrix(0.999698 -0.0245736 -0.103641 0.994615 157.792 270.961)" stroke="white" stroke-width="0.1"/>
<line y1="-0.05" x2="415.859" y2="-0.05" transform="matrix(0.999698 -0.0245736 -0.103641 0.994615 158.649 267.994)" stroke="white" stroke-width="0.1"/>
<line y1="-0.05" x2="415.859" y2="-0.05" transform="matrix(0.999698 -0.0245736 -0.103641 0.994615 158.558 264.953)" stroke="white" stroke-width="0.1"/>
<line y1="-0.05" x2="415.859" y2="-0.05" transform="matrix(0.999698 -0.0245736 -0.103641 0.994615 159.068 260.947)" stroke="white" stroke-width="0.1"/>
<line y1="-0.05" x2="415.859" y2="-0.05" transform="matrix(0.999698 -0.0245736 -0.103641 0.994615 159.706 255.94)" stroke="white" stroke-width="0.1"/>
<line y1="-0.05" x2="415.802" y2="-0.05" transform="matrix(0.99973 -0.0232299 -0.103333 0.994647 160.543 241.847)" stroke="white" stroke-width="0.1"/>
<line y1="-0.05" x2="415.859" y2="-0.05" transform="matrix(0.999698 -0.0245736 -0.103641 0.994615 160.089 252.936)" stroke="white" stroke-width="0.1"/>
<line y1="-0.05" x2="415.859" y2="-0.05" transform="matrix(0.999698 -0.0245736 -0.103641 0.994615 160.634 244.888)" stroke="white" stroke-width="0.1"/>
<line y1="-0.05" x2="415.859" y2="-0.05" transform="matrix(0.999698 -0.0245736 -0.103641 0.994615 165.267 274.575)" stroke="white" stroke-width="0.1"/>
<line y1="-0.05" x2="415.802" y2="-0.05" transform="matrix(0.99973 -0.0232299 -0.103333 0.994647 164.736 267.455)" stroke="white" stroke-width="0.1"/>
<line y1="-0.05" x2="415.859" y2="-0.05" transform="matrix(0.999698 -0.0245736 -0.103641 0.994615 164.827 270.496)" stroke="white" stroke-width="0.1"/>
<line y1="-0.05" x2="401.826" y2="-0.05" transform="matrix(0.942682 -0.333693 0.3833 0.923624 51.748 348.707)" stroke="white" stroke-width="0.1"/>
<line y1="-0.05" x2="401.826" y2="-0.05" transform="matrix(0.942682 -0.333693 0.3833 0.923624 47.9951 339.079)" stroke="white" stroke-width="0.1"/>
<line y1="-0.05" x2="401.826" y2="-0.05" transform="matrix(0.942682 -0.333693 0.3833 0.923624 50.166 345.927)" stroke="white" stroke-width="0.1"/>
<line y1="-0.05" x2="401.872" y2="-0.05" transform="matrix(0.943161 -0.332336 0.38357 0.923512 44 332.665)" stroke="white" stroke-width="0.1"/>
<line y1="-0.05" x2="401.826" y2="-0.05" transform="matrix(0.942682 -0.333693 0.3833 0.923624 49.04 343.039)" stroke="white" stroke-width="0.1"/>
<line y1="-0.05" x2="401.826" y2="-0.05" transform="matrix(0.942682 -0.333693 0.3833 0.923624 45.582 335.444)" stroke="white" stroke-width="0.1"/>
<line y1="-0.05" x2="401.826" y2="-0.05" transform="matrix(0.942682 -0.333693 0.3833 0.923624 83.9004 329.505)" stroke="white" stroke-width="0.1"/>
<line y1="-0.05" x2="401.826" y2="-0.05" transform="matrix(0.942682 -0.333693 0.3833 0.923624 86.0703 336.353)" stroke="white" stroke-width="0.1"/>
<line y1="-0.05" x2="401.872" y2="-0.05" transform="matrix(0.943161 -0.332336 0.38357 0.923512 79.9043 323.091)" stroke="white" stroke-width="0.1"/>
<line y1="-0.05" x2="401.826" y2="-0.05" transform="matrix(0.942682 -0.333693 0.3833 0.923624 84.9443 333.464)" stroke="white" stroke-width="0.1"/>
<line y1="-0.05" x2="401.826" y2="-0.05" transform="matrix(0.942682 -0.333693 0.3833 0.923624 81.4863 325.871)" stroke="white" stroke-width="0.1"/>
<line y1="-0.05" x2="401.826" y2="-0.05" transform="matrix(0.942682 -0.333693 0.3833 0.923624 79.8564 292.599)" stroke="white" stroke-width="0.1"/>
<line y1="-0.05" x2="401.826" y2="-0.05" transform="matrix(0.942682 -0.333693 0.3833 0.923624 76.1035 282.971)" stroke="white" stroke-width="0.1"/>
<line y1="-0.05" x2="401.826" y2="-0.05" transform="matrix(0.942682 -0.333693 0.3833 0.923624 84.6533 306.186)" stroke="white" stroke-width="0.1"/>
<line y1="-0.05" x2="401.826" y2="-0.05" transform="matrix(0.942682 -0.333693 0.3833 0.923624 83.9023 304.26)" stroke="white" stroke-width="0.1"/>
<line y1="-0.05" x2="401.826" y2="-0.05" transform="matrix(0.942682 -0.333693 0.3833 0.923624 83.2324 301.263)" stroke="white" stroke-width="0.1"/>
<line y1="-0.05" x2="401.826" y2="-0.05" transform="matrix(0.942682 -0.333693 0.3833 0.923624 81.6514 298.483)" stroke="white" stroke-width="0.1"/>
<line y1="-0.05" x2="401.826" y2="-0.05" transform="matrix(0.942682 -0.333693 0.3833 0.923624 80.1514 294.632)" stroke="white" stroke-width="0.1"/>
<line y1="-0.05" x2="401.826" y2="-0.05" transform="matrix(0.942682 -0.333693 0.3833 0.923624 78.2744 289.818)" stroke="white" stroke-width="0.1"/>
<line y1="-0.05" x2="401.872" y2="-0.05" transform="matrix(0.943161 -0.332336 0.38357 0.923512 72.1084 276.556)" stroke="white" stroke-width="0.1"/>
<line y1="-0.05" x2="401.826" y2="-0.05" transform="matrix(0.942682 -0.333693 0.3833 0.923624 77.1484 286.93)" stroke="white" stroke-width="0.1"/>
<line y1="-0.05" x2="401.826" y2="-0.05" transform="matrix(0.942682 -0.333693 0.3833 0.923624 73.6895 279.336)" stroke="white" stroke-width="0.1"/>
<line y1="-0.05" x2="401.826" y2="-0.05" transform="matrix(0.942682 -0.333693 0.3833 0.923624 96.335 314.984)" stroke="white" stroke-width="0.1"/>
<line y1="-0.05" x2="401.826" y2="-0.05" transform="matrix(0.942682 -0.333693 0.3833 0.923624 92.582 305.355)" stroke="white" stroke-width="0.1"/>
<line y1="-0.05" x2="401.826" y2="-0.05" transform="matrix(0.942682 -0.333693 0.3833 0.923624 101.133 328.571)" stroke="white" stroke-width="0.1"/>
<line y1="-0.05" x2="401.826" y2="-0.05" transform="matrix(0.942682 -0.333693 0.3833 0.923624 100.382 326.645)" stroke="white" stroke-width="0.1"/>
<line y1="-0.05" x2="401.826" y2="-0.05" transform="matrix(0.942682 -0.333693 0.3833 0.923624 99.7109 323.648)" stroke="white" stroke-width="0.1"/>
<line y1="-0.05" x2="401.826" y2="-0.05" transform="matrix(0.942682 -0.333693 0.3833 0.923624 98.1299 320.868)" stroke="white" stroke-width="0.1"/>
<line y1="-0.05" x2="401.826" y2="-0.05" transform="matrix(0.942682 -0.333693 0.3833 0.923624 96.6289 317.017)" stroke="white" stroke-width="0.1"/>
<line y1="-0.05" x2="401.826" y2="-0.05" transform="matrix(0.942682 -0.333693 0.3833 0.923624 94.7529 312.203)" stroke="white" stroke-width="0.1"/>
<line y1="-0.05" x2="401.872" y2="-0.05" transform="matrix(0.943161 -0.332336 0.38357 0.923512 88.5869 298.941)" stroke="white" stroke-width="0.1"/>
<line y1="-0.05" x2="401.826" y2="-0.05" transform="matrix(0.942682 -0.333693 0.3833 0.923624 93.6279 309.315)" stroke="white" stroke-width="0.1"/>
<line y1="-0.05" x2="401.826" y2="-0.05" transform="matrix(0.942682 -0.333693 0.3833 0.923624 90.1689 301.721)" stroke="white" stroke-width="0.1"/>
<line y1="-0.05" x2="401.872" y2="-0.05" transform="matrix(0.943161 -0.332336 0.38357 0.923512 93.5342 329.322)" stroke="white" stroke-width="0.1"/>
<line y1="-0.05" x2="401.826" y2="-0.05" transform="matrix(0.942682 -0.333693 0.3833 0.923624 95.1162 332.102)" stroke="white" stroke-width="0.1"/>
<line y1="-0.05" x2="310.513" y2="-0.05" transform="matrix(0.908694 0.417462 -0.243282 0.969956 73.4092 129.287)" stroke="white" stroke-width="0.1"/>
<line y1="-0.05" x2="310.513" y2="-0.05" transform="matrix(0.908694 0.417462 -0.243282 0.969956 73.751 128.068)" stroke="white" stroke-width="0.1"/>
<line y1="-0.05" x2="302.68" y2="-0.05" transform="matrix(0.927685 0.373363 -0.252679 0.96755 127.442 171.004)" stroke="white" stroke-width="0.1"/>
<line y1="-0.05" x2="302.68" y2="-0.05" transform="matrix(0.927685 0.373363 -0.252679 0.96755 125.299 177.374)" stroke="white" stroke-width="0.1"/>
<line y1="-0.05" x2="302.76" y2="-0.05" transform="matrix(0.927017 0.375019 -0.252454 0.967609 128.336 163.929)" stroke="white" stroke-width="0.1"/>
<line y1="-0.05" x2="302.68" y2="-0.05" transform="matrix(0.927685 0.373363 -0.252679 0.96755 126.084 174.568)" stroke="white" stroke-width="0.1"/>
<line y1="-0.05" x2="302.68" y2="-0.05" transform="matrix(0.927685 0.373363 -0.252679 0.96755 127.863 166.911)" stroke="white" stroke-width="0.1"/>
<line y1="-0.05" x2="310.114" y2="-0.05" transform="matrix(0.885617 0.464417 -0.345641 0.938367 127.834 154.665)" stroke="white" stroke-width="0.1"/>
<line y1="-0.05" x2="310.114" y2="-0.05" transform="matrix(0.885617 0.464417 -0.345641 0.938367 131.271 145.83)" stroke="white" stroke-width="0.1"/>
<line y1="-0.05" x2="310.114" y2="-0.05" transform="matrix(0.885617 0.464417 -0.345641 0.938367 122.72 166.824)" stroke="white" stroke-width="0.1"/>
<line y1="-0.05" x2="310.114" y2="-0.05" transform="matrix(0.885617 0.464417 -0.345641 0.938367 123.407 165.057)" stroke="white" stroke-width="0.1"/>
<line y1="-0.05" x2="310.114" y2="-0.05" transform="matrix(0.885617 0.464417 -0.345641 0.938367 124.739 162.616)" stroke="white" stroke-width="0.1"/>
<line y1="-0.05" x2="310.114" y2="-0.05" transform="matrix(0.885617 0.464417 -0.345641 0.938367 125.47 159.756)" stroke="white" stroke-width="0.1"/>
<line y1="-0.05" x2="310.114" y2="-0.05" transform="matrix(0.885617 0.464417 -0.345641 0.938367 126.846 156.222)" stroke="white" stroke-width="0.1"/>
<line y1="-0.05" x2="310.114" y2="-0.05" transform="matrix(0.885617 0.464417 -0.345641 0.938367 128.563 151.804)" stroke="white" stroke-width="0.1"/>
<line y1="-0.05" x2="310.195" y2="-0.05" transform="matrix(0.884825 0.465923 -0.345412 0.938451 132.775 139.017)" stroke="white" stroke-width="0.1"/>
<line y1="-0.05" x2="310.114" y2="-0.05" transform="matrix(0.885617 0.464417 -0.345641 0.938367 129.596 149.154)" stroke="white" stroke-width="0.1"/>
<line y1="-0.05" x2="310.114" y2="-0.05" transform="matrix(0.885617 0.464417 -0.345641 0.938367 132.044 141.876)" stroke="white" stroke-width="0.1"/>
<line y1="-0.05" x2="310.114" y2="-0.05" transform="matrix(0.885617 0.464417 -0.345641 0.938367 127.358 171.175)" stroke="white" stroke-width="0.1"/>
<line y1="-0.05" x2="310.195" y2="-0.05" transform="matrix(0.884825 0.465923 -0.345412 0.938451 128.861 164.363)" stroke="white" stroke-width="0.1"/>
<line y1="-0.05" x2="310.114" y2="-0.05" transform="matrix(0.885617 0.464417 -0.345641 0.938367 128.131 167.223)" stroke="white" stroke-width="0.1"/>
<line y1="-0.05" x2="283.089" y2="-0.05" transform="matrix(0.998544 0.0539378 0.0106582 0.999943 33.8184 198.149)" stroke="white" stroke-width="0.1"/>
<line y1="-0.05" x2="283.089" y2="-0.05" transform="matrix(0.998544 0.0539378 0.0106582 0.999943 33.8662 187.815)" stroke="white" stroke-width="0.1"/>
<line y1="-0.05" x2="283.089" y2="-0.05" transform="matrix(0.998544 0.0539378 0.0106582 0.999943 33.5068 194.981)" stroke="white" stroke-width="0.1"/>
<line y1="-0.05" x2="283.137" y2="-0.05" transform="matrix(0.998432 0.0559761 0.0108644 0.999941 32.9199 180.379)" stroke="white" stroke-width="0.1"/>
<line y1="-0.05" x2="283.089" y2="-0.05" transform="matrix(0.998544 0.0539378 0.0106582 0.999943 33.5205 191.881)" stroke="white" stroke-width="0.1"/>
<line y1="-0.05" x2="283.089" y2="-0.05" transform="matrix(0.998544 0.0539378 0.0106582 0.999943 33.2324 183.546)" stroke="white" stroke-width="0.1"/>
<line y1="-0.05" x2="283.089" y2="-0.05" transform="matrix(0.998544 0.0539378 0.0106582 0.999943 59.8457 192.177)" stroke="white" stroke-width="0.1"/>
<line y1="-0.05" x2="283.089" y2="-0.05" transform="matrix(0.998544 0.0539378 0.0106582 0.999943 59.4854 199.342)" stroke="white" stroke-width="0.1"/>
<line y1="-0.05" x2="283.137" y2="-0.05" transform="matrix(0.998432 0.0559761 0.0108644 0.999941 58.8984 184.74)" stroke="white" stroke-width="0.1"/>
<line y1="-0.05" x2="283.089" y2="-0.05" transform="matrix(0.998544 0.0539378 0.0106582 0.999943 59.5 196.242)" stroke="white" stroke-width="0.1"/>
<line y1="-0.05" x2="283.089" y2="-0.05" transform="matrix(0.998544 0.0539378 0.0106582 0.999943 59.2109 187.908)" stroke="white" stroke-width="0.1"/>
<line y1="-0.05" x2="283.089" y2="-0.05" transform="matrix(0.998544 0.0539378 0.0106582 0.999943 66.7949 156.386)" stroke="white" stroke-width="0.1"/>
<line y1="-0.05" x2="283.089" y2="-0.05" transform="matrix(0.998544 0.0539378 0.0106582 0.999943 66.8418 146.052)" stroke="white" stroke-width="0.1"/>
<line y1="-0.05" x2="283.089" y2="-0.05" transform="matrix(0.998544 0.0539378 0.0106582 0.999943 66.4004 170.784)" stroke="white" stroke-width="0.1"/>
<line y1="-0.05" x2="283.089" y2="-0.05" transform="matrix(0.998544 0.0539378 0.0106582 0.999943 66.4092 168.717)" stroke="white" stroke-width="0.1"/>
<line y1="-0.05" x2="283.089" y2="-0.05" transform="matrix(0.998544 0.0539378 0.0106582 0.999943 66.751 165.685)" stroke="white" stroke-width="0.1"/>
<line y1="-0.05" x2="283.089" y2="-0.05" transform="matrix(0.998544 0.0539378 0.0106582 0.999943 66.4395 162.518)" stroke="white" stroke-width="0.1"/>
<line y1="-0.05" x2="283.089" y2="-0.05" transform="matrix(0.998544 0.0539378 0.0106582 0.999943 66.458 158.385)" stroke="white" stroke-width="0.1"/>
<line y1="-0.05" x2="283.089" y2="-0.05" transform="matrix(0.998544 0.0539378 0.0106582 0.999943 66.4814 153.218)" stroke="white" stroke-width="0.1"/>
<line y1="-0.05" x2="283.137" y2="-0.05" transform="matrix(0.998432 0.0559761 0.0108644 0.999941 65.8955 138.616)" stroke="white" stroke-width="0.1"/>
<line y1="-0.05" x2="283.089" y2="-0.05" transform="matrix(0.998544 0.0539378 0.0106582 0.999943 66.4961 150.118)" stroke="white" stroke-width="0.1"/>
<line y1="-0.05" x2="283.089" y2="-0.05" transform="matrix(0.998544 0.0539378 0.0106582 0.999943 66.207 141.784)" stroke="white" stroke-width="0.1"/>
<line y1="-0.05" x2="283.089" y2="-0.05" transform="matrix(0.998544 0.0539378 0.0106582 0.999943 71.7559 183.274)" stroke="white" stroke-width="0.1"/>
<line y1="-0.05" x2="283.089" y2="-0.05" transform="matrix(0.998544 0.0539378 0.0106582 0.999943 71.8037 172.94)" stroke="white" stroke-width="0.1"/>
<line y1="-0.05" x2="283.089" y2="-0.05" transform="matrix(0.998544 0.0539378 0.0106582 0.999943 71.3623 197.672)" stroke="white" stroke-width="0.1"/>
<line y1="-0.05" x2="283.089" y2="-0.05" transform="matrix(0.998544 0.0539378 0.0106582 0.999943 71.3721 195.605)" stroke="white" stroke-width="0.1"/>
<line y1="-0.05" x2="283.089" y2="-0.05" transform="matrix(0.998544 0.0539378 0.0106582 0.999943 71.7119 192.573)" stroke="white" stroke-width="0.1"/>
<line y1="-0.05" x2="283.089" y2="-0.05" transform="matrix(0.998544 0.0539378 0.0106582 0.999943 71.4004 189.405)" stroke="white" stroke-width="0.1"/>
<line y1="-0.05" x2="283.089" y2="-0.05" transform="matrix(0.998544 0.0539378 0.0106582 0.999943 71.4189 185.272)" stroke="white" stroke-width="0.1"/>
<line y1="-0.05" x2="283.089" y2="-0.05" transform="matrix(0.998544 0.0539378 0.0106582 0.999943 71.4434 180.105)" stroke="white" stroke-width="0.1"/>
<line y1="-0.05" x2="283.137" y2="-0.05" transform="matrix(0.998432 0.0559761 0.0108644 0.999941 70.8574 165.504)" stroke="white" stroke-width="0.1"/>
<line y1="-0.05" x2="283.089" y2="-0.05" transform="matrix(0.998544 0.0539378 0.0106582 0.999943 71.458 177.006)" stroke="white" stroke-width="0.1"/>
<line y1="-0.05" x2="283.089" y2="-0.05" transform="matrix(0.998544 0.0539378 0.0106582 0.999943 71.1699 168.672)" stroke="white" stroke-width="0.1"/>
<line y1="-0.05" x2="283.137" y2="-0.05" transform="matrix(0.998432 0.0559761 0.0108644 0.999941 66.1953 195.564)" stroke="white" stroke-width="0.1"/>
<line y1="-0.05" x2="283.089" y2="-0.05" transform="matrix(0.998544 0.0539378 0.0106582 0.999943 66.5088 198.732)" stroke="white" stroke-width="0.1"/>
<line y1="-0.05" x2="398.414" y2="-0.05" transform="matrix(0.998066 -0.0621673 0.0378227 0.999284 83.7148 267.77)" stroke="white" stroke-width="0.1"/>
<line y1="-0.05" x2="398.414" y2="-0.05" transform="matrix(0.998066 -0.0621673 0.0378227 0.999284 83.7148 266.591)" stroke="white" stroke-width="0.1"/>
<line y1="-0.05" x2="391.975" y2="-0.05" transform="matrix(0.995287 -0.0969734 0.02419 0.999707 165.763 277.147)" stroke="white" stroke-width="0.1"/>
<line y1="-0.05" x2="391.975" y2="-0.05" transform="matrix(0.995287 -0.0969734 0.02419 0.999707 165.312 283.482)" stroke="white" stroke-width="0.1"/>
<line y1="-0.05" x2="391.953" y2="-0.05" transform="matrix(0.995411 -0.0956923 0.0245167 0.999699 164.409 270.812)" stroke="white" stroke-width="0.1"/>
<line y1="-0.05" x2="391.975" y2="-0.05" transform="matrix(0.995287 -0.0969734 0.02419 0.999707 165.312 280.767)" stroke="white" stroke-width="0.1"/>
<line y1="-0.05" x2="391.975" y2="-0.05" transform="matrix(0.995287 -0.0969734 0.02419 0.999707 164.859 273.527)" stroke="white" stroke-width="0.1"/>
<line y1="-0.05" x2="393.39" y2="-0.05" transform="matrix(0.999727 -0.0233623 -0.108955 0.994047 160.544 263.307)" stroke="white" stroke-width="0.1"/>
<line y1="-0.05" x2="393.39" y2="-0.05" transform="matrix(0.999727 -0.0233623 -0.108955 0.994047 161.751 254.301)" stroke="white" stroke-width="0.1"/>
<line y1="-0.05" x2="393.39" y2="-0.05" transform="matrix(0.999727 -0.0233623 -0.108955 0.994047 158.405 275.881)" stroke="white" stroke-width="0.1"/>
<line y1="-0.05" x2="393.39" y2="-0.05" transform="matrix(0.999727 -0.0233623 -0.108955 0.994047 158.646 274.08)" stroke="white" stroke-width="0.1"/>
<line y1="-0.05" x2="393.39" y2="-0.05" transform="matrix(0.999727 -0.0233623 -0.108955 0.994047 159.458 271.412)" stroke="white" stroke-width="0.1"/>
<line y1="-0.05" x2="393.39" y2="-0.05" transform="matrix(0.999727 -0.0233623 -0.108955 0.994047 159.371 268.677)" stroke="white" stroke-width="0.1"/>
<line y1="-0.05" x2="393.39" y2="-0.05" transform="matrix(0.999727 -0.0233623 -0.108955 0.994047 159.854 265.074)" stroke="white" stroke-width="0.1"/>
<line y1="-0.05" x2="393.39" y2="-0.05" transform="matrix(0.999727 -0.0233623 -0.108955 0.994047 160.457 260.571)" stroke="white" stroke-width="0.1"/>
<line y1="-0.05" x2="393.337" y2="-0.05" transform="matrix(0.999756 -0.0220847 -0.108632 0.994082 161.249 247.897)" stroke="white" stroke-width="0.1"/>
<line y1="-0.05" x2="393.39" y2="-0.05" transform="matrix(0.999727 -0.0233623 -0.108955 0.994047 160.819 257.87)" stroke="white" stroke-width="0.1"/>
<line y1="-0.05" x2="393.39" y2="-0.05" transform="matrix(0.999727 -0.0233623 -0.108955 0.994047 161.335 250.632)" stroke="white" stroke-width="0.1"/>
<line y1="-0.05" x2="393.39" y2="-0.05" transform="matrix(0.999727 -0.0233623 -0.108955 0.994047 165.718 277.33)" stroke="white" stroke-width="0.1"/>
<line y1="-0.05" x2="393.337" y2="-0.05" transform="matrix(0.999756 -0.0220847 -0.108632 0.994082 165.216 270.927)" stroke="white" stroke-width="0.1"/>
<line y1="-0.05" x2="393.39" y2="-0.05" transform="matrix(0.999727 -0.0233623 -0.108955 0.994047 165.302 273.662)" stroke="white" stroke-width="0.1"/>
<line y1="-0.05" x2="378.085" y2="-0.05" transform="matrix(0.947772 -0.318947 0.400069 0.916485 58.3301 344)" stroke="white" stroke-width="0.1"/>
<line y1="-0.05" x2="378.085" y2="-0.05" transform="matrix(0.947772 -0.318947 0.400069 0.916485 54.7793 335.341)" stroke="white" stroke-width="0.1"/>
<line y1="-0.05" x2="378.085" y2="-0.05" transform="matrix(0.947772 -0.318947 0.400069 0.916485 56.833 341.5)" stroke="white" stroke-width="0.1"/>
<line y1="-0.05" x2="378.144" y2="-0.05" transform="matrix(0.948213 -0.317636 0.400347 0.916363 51 329.572)" stroke="white" stroke-width="0.1"/>
<line y1="-0.05" x2="378.085" y2="-0.05" transform="matrix(0.947772 -0.318947 0.400069 0.916485 55.7676 338.902)" stroke="white" stroke-width="0.1"/>
<line y1="-0.05" x2="378.085" y2="-0.05" transform="matrix(0.947772 -0.318947 0.400069 0.916485 52.4971 332.072)" stroke="white" stroke-width="0.1"/>
<line y1="-0.05" x2="378.085" y2="-0.05" transform="matrix(0.947772 -0.318947 0.400069 0.916485 88.7461 326.731)" stroke="white" stroke-width="0.1"/>
<line y1="-0.05" x2="378.085" y2="-0.05" transform="matrix(0.947772 -0.318947 0.400069 0.916485 90.7988 332.89)" stroke="white" stroke-width="0.1"/>
<line y1="-0.05" x2="378.144" y2="-0.05" transform="matrix(0.948213 -0.317636 0.400347 0.916363 84.9648 320.962)" stroke="white" stroke-width="0.1"/>
<line y1="-0.05" x2="378.085" y2="-0.05" transform="matrix(0.947772 -0.318947 0.400069 0.916485 89.7334 330.292)" stroke="white" stroke-width="0.1"/>
<line y1="-0.05" x2="378.085" y2="-0.05" transform="matrix(0.947772 -0.318947 0.400069 0.916485 86.4619 323.462)" stroke="white" stroke-width="0.1"/>
<line y1="-0.05" x2="378.085" y2="-0.05" transform="matrix(0.947772 -0.318947 0.400069 0.916485 84.9199 293.54)" stroke="white" stroke-width="0.1"/>
<line y1="-0.05" x2="378.085" y2="-0.05" transform="matrix(0.947772 -0.318947 0.400069 0.916485 81.3701 284.881)" stroke="white" stroke-width="0.1"/>
<line y1="-0.05" x2="378.085" y2="-0.05" transform="matrix(0.947772 -0.318947 0.400069 0.916485 89.458 305.759)" stroke="white" stroke-width="0.1"/>
<line y1="-0.05" x2="378.085" y2="-0.05" transform="matrix(0.947772 -0.318947 0.400069 0.916485 88.7471 304.027)" stroke="white" stroke-width="0.1"/>
<line y1="-0.05" x2="378.085" y2="-0.05" transform="matrix(0.947772 -0.318947 0.400069 0.916485 88.1133 301.332)" stroke="white" stroke-width="0.1"/>
<line y1="-0.05" x2="378.085" y2="-0.05" transform="matrix(0.947772 -0.318947 0.400069 0.916485 86.6182 298.832)" stroke="white" stroke-width="0.1"/>
<line y1="-0.05" x2="378.085" y2="-0.05" transform="matrix(0.947772 -0.318947 0.400069 0.916485 85.1992 295.369)" stroke="white" stroke-width="0.1"/>
<line y1="-0.05" x2="378.085" y2="-0.05" transform="matrix(0.947772 -0.318947 0.400069 0.916485 83.4238 291.039)" stroke="white" stroke-width="0.1"/>
<line y1="-0.05" x2="378.144" y2="-0.05" transform="matrix(0.948213 -0.317636 0.400347 0.916363 77.5908 279.112)" stroke="white" stroke-width="0.1"/>
<line y1="-0.05" x2="378.085" y2="-0.05" transform="matrix(0.947772 -0.318947 0.400069 0.916485 82.3584 288.442)" stroke="white" stroke-width="0.1"/>
<line y1="-0.05" x2="378.085" y2="-0.05" transform="matrix(0.947772 -0.318947 0.400069 0.916485 79.0859 281.612)" stroke="white" stroke-width="0.1"/>
<line y1="-0.05" x2="378.085" y2="-0.05" transform="matrix(0.947772 -0.318947 0.400069 0.916485 100.509 313.671)" stroke="white" stroke-width="0.1"/>
<line y1="-0.05" x2="378.085" y2="-0.05" transform="matrix(0.947772 -0.318947 0.400069 0.916485 96.958 305.012)" stroke="white" stroke-width="0.1"/>
<line y1="-0.05" x2="378.085" y2="-0.05" transform="matrix(0.947772 -0.318947 0.400069 0.916485 105.048 325.891)" stroke="white" stroke-width="0.1"/>
<line y1="-0.05" x2="378.085" y2="-0.05" transform="matrix(0.947772 -0.318947 0.400069 0.916485 104.337 324.159)" stroke="white" stroke-width="0.1"/>
<line y1="-0.05" x2="378.085" y2="-0.05" transform="matrix(0.947772 -0.318947 0.400069 0.916485 103.702 321.464)" stroke="white" stroke-width="0.1"/>
<line y1="-0.05" x2="378.085" y2="-0.05" transform="matrix(0.947772 -0.318947 0.400069 0.916485 102.207 318.963)" stroke="white" stroke-width="0.1"/>
<line y1="-0.05" x2="378.085" y2="-0.05" transform="matrix(0.947772 -0.318947 0.400069 0.916485 100.787 315.5)" stroke="white" stroke-width="0.1"/>
<line y1="-0.05" x2="378.085" y2="-0.05" transform="matrix(0.947772 -0.318947 0.400069 0.916485 99.0117 311.171)" stroke="white" stroke-width="0.1"/>
<line y1="-0.05" x2="378.144" y2="-0.05" transform="matrix(0.948213 -0.317636 0.400347 0.916363 93.1787 299.244)" stroke="white" stroke-width="0.1"/>
<line y1="-0.05" x2="378.085" y2="-0.05" transform="matrix(0.947772 -0.318947 0.400069 0.916485 97.9482 308.573)" stroke="white" stroke-width="0.1"/>
<line y1="-0.05" x2="378.085" y2="-0.05" transform="matrix(0.947772 -0.318947 0.400069 0.916485 94.6758 301.744)" stroke="white" stroke-width="0.1"/>
<line y1="-0.05" x2="378.144" y2="-0.05" transform="matrix(0.948213 -0.317636 0.400347 0.916363 97.8594 326.566)" stroke="white" stroke-width="0.1"/>
<line y1="-0.05" x2="378.085" y2="-0.05" transform="matrix(0.947772 -0.318947 0.400069 0.916485 99.3555 329.066)" stroke="white" stroke-width="0.1"/>
<line y1="-0.05" x2="421.245" y2="-0.05" transform="matrix(0.99786 -0.0653792 0.0359597 0.999353 106.582 121.945)" stroke="white" stroke-width="0.1"/>
<line y1="-0.05" x2="421.245" y2="-0.05" transform="matrix(0.99786 -0.0653792 0.0359597 0.999353 106.582 120.633)" stroke="white" stroke-width="0.1"/>
<line y1="-0.05" x2="414.559" y2="-0.05" transform="matrix(0.994789 -0.101953 0.0229975 0.999735 193.314 132.372)" stroke="white" stroke-width="0.1"/>
<line y1="-0.05" x2="414.559" y2="-0.05" transform="matrix(0.994789 -0.101953 0.0229975 0.999735 192.837 139.416)" stroke="white" stroke-width="0.1"/>
<line y1="-0.05" x2="414.53" y2="-0.05" transform="matrix(0.994926 -0.100608 0.0233081 0.999728 191.883 125.327)" stroke="white" stroke-width="0.1"/>
<line y1="-0.05" x2="414.559" y2="-0.05" transform="matrix(0.994789 -0.101953 0.0229975 0.999735 192.837 136.396)" stroke="white" stroke-width="0.1"/>
<line y1="-0.05" x2="414.559" y2="-0.05" transform="matrix(0.994789 -0.101953 0.0229975 0.999735 192.359 128.346)" stroke="white" stroke-width="0.1"/>
<line y1="-0.05" x2="415.859" y2="-0.05" transform="matrix(0.999698 -0.0245736 -0.103641 0.994615 187.798 116.981)" stroke="white" stroke-width="0.1"/>
<line y1="-0.05" x2="415.859" y2="-0.05" transform="matrix(0.999698 -0.0245736 -0.103641 0.994615 189.073 106.968)" stroke="white" stroke-width="0.1"/>
<line y1="-0.05" x2="415.859" y2="-0.05" transform="matrix(0.999698 -0.0245736 -0.103641 0.994615 185.537 130.964)" stroke="white" stroke-width="0.1"/>
<line y1="-0.05" x2="415.859" y2="-0.05" transform="matrix(0.999698 -0.0245736 -0.103641 0.994615 185.792 128.961)" stroke="white" stroke-width="0.1"/>
<line y1="-0.05" x2="415.859" y2="-0.05" transform="matrix(0.999698 -0.0245736 -0.103641 0.994615 186.649 125.994)" stroke="white" stroke-width="0.1"/>
<line y1="-0.05" x2="415.859" y2="-0.05" transform="matrix(0.999698 -0.0245736 -0.103641 0.994615 186.558 122.953)" stroke="white" stroke-width="0.1"/>
<line y1="-0.05" x2="415.859" y2="-0.05" transform="matrix(0.999698 -0.0245736 -0.103641 0.994615 187.068 118.947)" stroke="white" stroke-width="0.1"/>
<line y1="-0.05" x2="415.859" y2="-0.05" transform="matrix(0.999698 -0.0245736 -0.103641 0.994615 187.706 113.94)" stroke="white" stroke-width="0.1"/>
<line y1="-0.05" x2="415.802" y2="-0.05" transform="matrix(0.99973 -0.0232299 -0.103333 0.994647 188.543 99.8472)" stroke="white" stroke-width="0.1"/>
<line y1="-0.05" x2="415.859" y2="-0.05" transform="matrix(0.999698 -0.0245736 -0.103641 0.994615 188.089 110.936)" stroke="white" stroke-width="0.1"/>
<line y1="-0.05" x2="415.859" y2="-0.05" transform="matrix(0.999698 -0.0245736 -0.103641 0.994615 188.634 102.888)" stroke="white" stroke-width="0.1"/>
<line y1="-0.05" x2="415.859" y2="-0.05" transform="matrix(0.999698 -0.0245736 -0.103641 0.994615 193.267 132.575)" stroke="white" stroke-width="0.1"/>
<line y1="-0.05" x2="415.802" y2="-0.05" transform="matrix(0.99973 -0.0232299 -0.103333 0.994647 192.736 125.455)" stroke="white" stroke-width="0.1"/>
<line y1="-0.05" x2="415.859" y2="-0.05" transform="matrix(0.999698 -0.0245736 -0.103641 0.994615 192.827 128.496)" stroke="white" stroke-width="0.1"/>
<line y1="-0.05" x2="401.826" y2="-0.05" transform="matrix(0.942682 -0.333693 0.3833 0.923624 79.748 206.707)" stroke="white" stroke-width="0.1"/>
<line y1="-0.05" x2="401.826" y2="-0.05" transform="matrix(0.942682 -0.333693 0.3833 0.923624 75.9951 197.079)" stroke="white" stroke-width="0.1"/>
<line y1="-0.05" x2="401.826" y2="-0.05" transform="matrix(0.942682 -0.333693 0.3833 0.923624 78.166 203.927)" stroke="white" stroke-width="0.1"/>
<line y1="-0.05" x2="401.872" y2="-0.05" transform="matrix(0.943161 -0.332336 0.38357 0.923512 72 190.665)" stroke="white" stroke-width="0.1"/>
<line y1="-0.05" x2="401.826" y2="-0.05" transform="matrix(0.942682 -0.333693 0.3833 0.923624 77.04 201.039)" stroke="white" stroke-width="0.1"/>
<line y1="-0.05" x2="401.826" y2="-0.05" transform="matrix(0.942682 -0.333693 0.3833 0.923624 73.582 193.444)" stroke="white" stroke-width="0.1"/>
<line y1="-0.05" x2="401.826" y2="-0.05" transform="matrix(0.942682 -0.333693 0.3833 0.923624 111.9 187.505)" stroke="white" stroke-width="0.1"/>
<line y1="-0.05" x2="401.826" y2="-0.05" transform="matrix(0.942682 -0.333693 0.3833 0.923624 114.07 194.353)" stroke="white" stroke-width="0.1"/>
<line y1="-0.05" x2="401.872" y2="-0.05" transform="matrix(0.943161 -0.332336 0.38357 0.923512 107.904 181.091)" stroke="white" stroke-width="0.1"/>
<line y1="-0.05" x2="401.826" y2="-0.05" transform="matrix(0.942682 -0.333693 0.3833 0.923624 112.944 191.464)" stroke="white" stroke-width="0.1"/>
<line y1="-0.05" x2="401.826" y2="-0.05" transform="matrix(0.942682 -0.333693 0.3833 0.923624 109.486 183.871)" stroke="white" stroke-width="0.1"/>
<line y1="-0.05" x2="401.826" y2="-0.05" transform="matrix(0.942682 -0.333693 0.3833 0.923624 107.856 150.599)" stroke="white" stroke-width="0.1"/>
<line y1="-0.05" x2="401.826" y2="-0.05" transform="matrix(0.942682 -0.333693 0.3833 0.923624 104.104 140.971)" stroke="white" stroke-width="0.1"/>
<line y1="-0.05" x2="401.826" y2="-0.05" transform="matrix(0.942682 -0.333693 0.3833 0.923624 112.653 164.186)" stroke="white" stroke-width="0.1"/>
<line y1="-0.05" x2="401.826" y2="-0.05" transform="matrix(0.942682 -0.333693 0.3833 0.923624 111.902 162.26)" stroke="white" stroke-width="0.1"/>
<line y1="-0.05" x2="401.826" y2="-0.05" transform="matrix(0.942682 -0.333693 0.3833 0.923624 111.232 159.263)" stroke="white" stroke-width="0.1"/>
<line y1="-0.05" x2="401.826" y2="-0.05" transform="matrix(0.942682 -0.333693 0.3833 0.923624 109.651 156.483)" stroke="white" stroke-width="0.1"/>
<line y1="-0.05" x2="401.826" y2="-0.05" transform="matrix(0.942682 -0.333693 0.3833 0.923624 108.151 152.632)" stroke="white" stroke-width="0.1"/>
<line y1="-0.05" x2="401.826" y2="-0.05" transform="matrix(0.942682 -0.333693 0.3833 0.923624 106.274 147.818)" stroke="white" stroke-width="0.1"/>
<line y1="-0.05" x2="401.872" y2="-0.05" transform="matrix(0.943161 -0.332336 0.38357 0.923512 100.108 134.556)" stroke="white" stroke-width="0.1"/>
<line y1="-0.05" x2="401.826" y2="-0.05" transform="matrix(0.942682 -0.333693 0.3833 0.923624 105.148 144.93)" stroke="white" stroke-width="0.1"/>
<line y1="-0.05" x2="401.826" y2="-0.05" transform="matrix(0.942682 -0.333693 0.3833 0.923624 101.689 137.336)" stroke="white" stroke-width="0.1"/>
<line y1="-0.05" x2="401.826" y2="-0.05" transform="matrix(0.942682 -0.333693 0.3833 0.923624 124.335 172.984)" stroke="white" stroke-width="0.1"/>
<line y1="-0.05" x2="401.826" y2="-0.05" transform="matrix(0.942682 -0.333693 0.3833 0.923624 120.582 163.355)" stroke="white" stroke-width="0.1"/>
<line y1="-0.05" x2="401.826" y2="-0.05" transform="matrix(0.942682 -0.333693 0.3833 0.923624 129.133 186.571)" stroke="white" stroke-width="0.1"/>
<line y1="-0.05" x2="401.826" y2="-0.05" transform="matrix(0.942682 -0.333693 0.3833 0.923624 128.382 184.645)" stroke="white" stroke-width="0.1"/>
<line y1="-0.05" x2="401.826" y2="-0.05" transform="matrix(0.942682 -0.333693 0.3833 0.923624 127.711 181.648)" stroke="white" stroke-width="0.1"/>
<line y1="-0.05" x2="401.826" y2="-0.05" transform="matrix(0.942682 -0.333693 0.3833 0.923624 126.13 178.868)" stroke="white" stroke-width="0.1"/>
<line y1="-0.05" x2="401.826" y2="-0.05" transform="matrix(0.942682 -0.333693 0.3833 0.923624 124.629 175.017)" stroke="white" stroke-width="0.1"/>
<line y1="-0.05" x2="401.826" y2="-0.05" transform="matrix(0.942682 -0.333693 0.3833 0.923624 122.753 170.203)" stroke="white" stroke-width="0.1"/>
<line y1="-0.05" x2="401.872" y2="-0.05" transform="matrix(0.943161 -0.332336 0.38357 0.923512 116.587 156.941)" stroke="white" stroke-width="0.1"/>
<line y1="-0.05" x2="401.826" y2="-0.05" transform="matrix(0.942682 -0.333693 0.3833 0.923624 121.628 167.315)" stroke="white" stroke-width="0.1"/>
<line y1="-0.05" x2="401.826" y2="-0.05" transform="matrix(0.942682 -0.333693 0.3833 0.923624 118.169 159.721)" stroke="white" stroke-width="0.1"/>
<line y1="-0.05" x2="401.872" y2="-0.05" transform="matrix(0.943161 -0.332336 0.38357 0.923512 121.534 187.322)" stroke="white" stroke-width="0.1"/>
<line y1="-0.05" x2="401.826" y2="-0.05" transform="matrix(0.942682 -0.333693 0.3833 0.923624 123.116 190.102)" stroke="white" stroke-width="0.1"/>
<defs>
<filter id="filter0_d_135_398" x="115" y="166.671" width="106" height="81.5" filterUnits="userSpaceOnUse" color-interpolation-filters="sRGB">
<feFlood flood-opacity="0" result="BackgroundImageFix"/>
<feColorMatrix in="SourceAlpha" type="matrix" values="0 0 0 0 0 0 0 0 0 0 0 0 0 0 0 0 0 0 127 0" result="hardAlpha"/>
<feOffset dy="3"/>
<feGaussianBlur stdDeviation="5"/>
<feComposite in2="hardAlpha" operator="out"/>
<feColorMatrix type="matrix" values="0 0 0 0 0.4875 0 0 0 0 0.4875 0 0 0 0 0.4875 0 0 0 0.3 0"/>
<feBlend mode="normal" in2="BackgroundImageFix" result="effect1_dropShadow_135_398"/>
<feBlend mode="normal" in="SourceGraphic" in2="effect1_dropShadow_135_398" result="shape"/>
</filter>
<filter id="filter1_d_135_398" x="155" y="178.671" width="92.5" height="128" filterUnits="userSpaceOnUse" color-interpolation-filters="sRGB">
<feFlood flood-opacity="0" result="BackgroundImageFix"/>
<feColorMatrix in="SourceAlpha" type="matrix" values="0 0 0 0 0 0 0 0 0 0 0 0 0 0 0 0 0 0 127 0" result="hardAlpha"/>
<feOffset dy="4"/>
<feGaussianBlur stdDeviation="5"/>
<feComposite in2="hardAlpha" operator="out"/>
<feColorMatrix type="matrix" values="0 0 0 0 0 0 0 0 0 0 0 0 0 0 0 0 0 0 0.1 0"/>
<feBlend mode="normal" in2="BackgroundImageFix" result="effect1_dropShadow_135_398"/>
<feBlend mode="normal" in="SourceGraphic" in2="effect1_dropShadow_135_398" result="shape"/>
</filter>
</defs>
</svg>
