<svg width="1789" height="827" viewBox="0 0 1789 827" fill="none" xmlns="http://www.w3.org/2000/svg">
<path d="M723.565 519.993L799.716 451.587L999.492 525.941L1123.61 627.063L1762 807L1279.87 725.21L1134.98 733.637L1075.64 725.21L1048.45 671.18H968.833L827.903 611.2L670.159 671.18L597.963 653.335L541.097 650.856L485.219 496.695L494.614 432.255H312.641L188.523 519.993L11 525.941L188.523 496.695L312.641 404H506.977L723.565 519.993Z" fill="#4F2F00" fill-opacity="0.6"/>
<path d="M0.000104973 526.5L110.5 288L202 221L246.499 121.5L453.499 121.5L638.999 59L904.999 163L1235.5 259L1272 421L1323.5 560.5L1397 606L1560 703L1405 646.5L1371.5 609.5L1317.5 575.5L1214 273.999L904.999 178.519L638.999 78.9988L453.499 136.259L246.499 148L212 231.5L126 298.5L40 497L20 501L10.5 509L0.000104973 526.5Z" fill="#865C1D"/>
<path d="M20.5 502L40 498L34.5 512.5L22.5 522.5L8 527L1 526L11.5 509.5L20.5 502Z" fill="#523811"/>
<path d="M511.5 65.5L546 59L592.5 41.8511L613.5 27.5L618.403 0.804637L637.5 41.8511L637.5 54L551.5 78L468.196 111.332L496 83L511.5 65.5Z" fill="#EA8C00"/>
<path d="M753.361 21.5847L914 58.5L744.5 50L647.5 50L625 3L687.5 32.5L753.361 21.5847Z" fill="#E78A00"/>
<path d="M882.001 85.5012L1082 141.502L942 123.5L818 119.5L731.5 88.4998L818 88.4998L882.001 85.5012Z" fill="#EB8D00"/>
<path d="M938 63.5L1101 139.5L883.5 79.5L726 84L697.5 74L646 54L938 63.5Z" fill="#F49300"/>
<path d="M455.5 139L548.5 114.5L638.5 82.5L672 94L775 134.5L878 173.5L905 181.5L1022 218L1202.5 277.5L847 207.5L823 198L789.5 187L798 143.209L775 187L682.307 173.5V154.42L556 160.5L487.5 178.5L453.307 187L460.5 170L455.5 139Z" fill="#FFAE35"/>
<path d="M455 192L536 170L632.5 162.5L675.5 170L567 187L501.5 202.5L460.5 222L455 192Z" fill="#D6A835"/>
<path d="M455 192L536 170L632.5 162.5L675.5 170L567 187L501.5 202.5L460.5 222L455 192Z" fill="#D6A835"/>
<path d="M456.5 228L500.5 206.5L540.5 199.5L571.5 190L669 176L596.5 219L528 256.5L454 297L456.5 228Z" fill="#EA8C00"/>
<path d="M456.5 228L500.5 206.5L540.5 199.5L571.5 190L669 176L596.5 219L528 256.5L454 297L456.5 228Z" fill="#EA8C00"/>
<path d="M677.259 179.507L776 195L744 250L729.5 267H717L674.5 261L635.5 250L674.5 263.5L715 270L724.5 274L715 287L705.5 297L676.5 285.5L620.5 263.5L701 300L695.5 310.5L649 297L604 283.5L568 257L602.5 287L649 301.25L687.5 317L661 340.75L652.5 347L634.5 335.5L542.5 278L631.5 337L647.75 352.625L634.5 364.5L608 358L575.5 335.5L521 285.5L572 337L623.5 375.5L559.5 434L692.5 324L790 195L848 215.5L755 294L668.25 376.5L581.5 462L672 382L762.5 305L859 215.5L978 241.5L832 296L723 366.5L620.5 474.5L757.5 353.5L838.5 305L994 241.5L1053 255L1119.5 265.5L1201 282L1185.5 310.5L1119.5 347.5L983.5 371L874 406L647 659.5L395.5 622.5L454 496L459 406V352.625L454 300L677.259 179.507Z" fill="#EA8C00"/>
<path d="M321.5 515L347.5 544L351.5 554L360 555.5L380 560L399 561.5L404 578.5L410 594.5L410.5 598L398 565L396 561.5H353.5L321.5 515Z" fill="#DB9326"/>
<path d="M458 418.5L521.5 501.5L608 487.5L739 428L801 377L814.5 330L920.5 315.5L1001.5 296.5L1020 323L1107 344L904.5 352.5L849.5 389L821 428L787.5 438L732.5 520.5L655 531.5L557 606L423 596.5L430 560.204L458 496.5V418.5Z" fill="#DA8300"/>
<path d="M933.5 394.5L1093 357.5L1138.5 344L1190.5 317L1210.5 278L1266 440.5L1297.5 523.5L1316 577.5L1352 601L1369 613.5L1401 648.5L1565.5 707L1719 781.5L1558.5 741L1521 727.5L1484 721L1423 697L1340 656.5L1266 620L1230.5 514.5L1202.5 409L1138.5 371H1093H1054.5L933.5 394.5Z" fill="#EA8C00"/>
<path d="M826.5 125L944 129.5L1088 143L1144 173.544H1198.69L1272.5 248.747L1292.5 294L1300 343L1313.5 390L1339.5 436L1331 493L1353 552.509L1441.35 596.116L1572 685L1708.5 775L1572 704L1327.48 549.899L1285 408.5L1253.54 319L1237.5 248.747L1105.5 211.5L1198.69 185.5L1094.5 211.5L1012 185.5L940 173.544L1033.5 165.5L1116 158.272L1032 162.25L969 165.5L909 159L826.5 125Z" fill="#CF7D02"/>
<path d="M894 397.967L1061 367.5H1136.5L1199.5 397.967L1235 537.5L1256.5 605.5L1265 618.5L1333.5 654.5L1423 699.5L1486 724L1527 730.5L1564.5 744.5L1711.5 783.5L1731 788.5L1737 783.5L1740 771.5L1749 756L1741 743.25L1728 742L1721.75 743.25L1719.38 745.375L1718.5 748.5L1717 745L1719.38 738L1723 734L1726.5 729.5L1731 727L1741 727.5L1750.5 730.5L1770 738L1778 752.5L1788.5 773.5L1782 792L1778 808L1764 827L1721.75 825L1658 808L1628.5 788.5L1571.5 773.5L1298.5 713L1101.5 508L1065.5 473.5L894 397.967Z" fill="#CF7D02"/>
<path d="M896.5 401.5L962 381L1073.5 440L1108.5 488L1097 517.5L1130 511.5L1315.5 714.5L1542.5 766.5L1297.5 722L1230 654.5L1175 615L1120 538.5L1054.5 476L1025 468.5L995 472.5L981.5 452L962 440L896.5 401.5Z" fill="#FFB951"/>
<path d="M501 303L675 194L768.5 219.5L675 214.5L554 299.5L549.5 362L541.5 396L504.5 407.5L524 485.5L461.5 403V316L501 303Z" fill="#FFAE35"/>
<path d="M318 511.5L353 562H396L410.5 598.5L458.119 612.14L521 598.5L553 623L602.5 598.5L624 623V595L673 540L742.5 534L814.699 433.042H829.698V418.891L907.111 362.287L962 372L1024 353L1114 347L974.5 375L890 402L840 444L805 496L758 534L729.5 579.5L650.5 656L380.222 640L318 511.5Z" fill="#FFB951"/>
<path d="M604 599.5L623.5 620.5L624 612L624 623L604 599.5Z" fill="#BD7D1B"/>
<path d="M116.5 297.5L170 260L209 230.5L170 262.5L125 297.5L77 407L38 495.5H30.5L55 447L77 397L109 328L116.5 297.5Z" fill="#6F4A14"/>
<path d="M345.001 135.793L430.001 129.792L480.001 120.792L597.5 91L450 135.793L360.001 140.824L331.001 142.494L245 146.792L211.5 227.499L208 227.499L224.5 183.499L243.001 142.493L258 140.824L276 138.545L291.09 138.545L323.256 133.652L345.001 135.793Z" fill="#6F4A14"/>
<path d="M1747.5 740L1730.5 729.5H1742.5L1769.5 740L1786 773L1782 790L1776.5 807.5L1769.5 817.5L1763.5 825L1722.5 823L1667 807.5H1660L1629.5 786.5L1574.5 773L1629.5 779.5L1667 797.5L1696 811L1713.5 813.5H1724.5L1742.5 802.5L1752 790L1769.5 782L1755 764V752L1747.5 740Z" fill="#AE6900"/>
<path d="M1719.5 745L1722 743L1728 742L1741 743L1749 756L1744 764.5V754.5L1742.5 750L1738 747.5L1735.5 745.5L1730 744H1724.5L1721 745L1718.5 748.5L1719.5 745Z" fill="#985B00"/>
</svg>
