<svg width="534" height="533" viewBox="0 0 534 533" fill="none" xmlns="http://www.w3.org/2000/svg">
<line x1="513.081" y1="46.2649" x2="529.012" y2="29.2649" stroke="#FFF500" stroke-width="8"/>
<line x1="503.09" y1="38.321" x2="522.021" y2="18.2551" stroke="#FFF500" stroke-width="8"/>
<path d="M305.5 75.9057C305.5 89.6607 299.545 106 285.469 106C274.496 94.239 266 89.6607 266 75.9057C266 62.1506 278.827 51 292.903 51C301.044 51 305.5 62.1506 305.5 75.9057Z" fill="#FFD18C"/>
<rect x="283" y="103" width="11" height="11" fill="#FFD18C"/>
<path d="M73.4759 464.533L514.5 5.00018" stroke="#FFF500" stroke-width="12"/>
<path d="M73.4759 464.533L514.5 5.00018" stroke="#F8EE00" stroke-width="4"/>
<path d="M270 117L278.5 113L283 112H289L293 112.5L297.5 114.5L308 120L325 146L356.5 159.5L384.5 151L392.5 159.5L362 172.5L321.5 162L312.5 156L320.5 190L328 225L333 257L341.5 285L270 305L274 225L266 163.5V136.5L270 117Z" fill="#EA0000"/>
<path d="M303.021 275.546L391.675 295.743L421.876 320.307L455 394L395.085 332.862L311.789 317.032L308.379 302.839L303.021 275.546Z" fill="#3F0000"/>
<path d="M271.358 275H302.046L350.271 391.271L268.923 313.757L266 298.472V289.193L271.358 275Z" fill="#3F0000"/>
<path d="M466.5 416.233C466.5 472.842 396.209 518.733 309.5 518.733C222.792 518.733 153.999 464.342 153.999 407.733C153.999 351.124 170.292 306.233 257 306.233C343.709 306.233 466.5 359.624 466.5 416.233Z" fill="#C4C4C4"/>
<path d="M458.501 421.997C458.501 463.289 424.321 492.997 363.001 492.997C396.5 450 484.5 319.5 229.5 365.5C147 311.5 225.681 318.997 287.001 318.997C348.321 318.997 482.843 374.262 458.501 421.997Z" fill="#949494" fill-opacity="0.3"/>
<line x1="529.681" y1="45.1648" x2="502.681" y2="17.1648" stroke="#FFF500" stroke-width="12"/>
<path d="M94.5 421C94.5 445.301 74.8005 465 50.5 465C26.1995 465 6.5 445.301 6.5 421C6.5 396.699 26.1995 377 50.5 377C74.8005 377 94.5 396.699 94.5 421Z" stroke="#FFF500" stroke-width="12"/>
<path d="M157 483C157 507.301 137.301 527 113 527C88.6995 527 69 507.301 69 483C69 458.699 88.6995 439 113 439C137.301 439 157 458.699 157 483Z" stroke="#FFF500" stroke-width="12"/>
<path d="M387.5 154C390.5 163 396.401 151.084 399.499 144C402.597 136.916 400.998 131.001 400.997 135.5C396.949 133.73 396.998 135.998 391.498 141.498C388.4 148.582 383.452 152.23 387.5 154Z" fill="#FDE19B"/>
<path d="M288.483 147.778L271.501 150.498L256.749 183.794L277.502 223.998L277.502 234.498L244.567 186.596L253.501 142.498L260.5 125.5L265 120L270.5 116.5L288.483 147.778Z" fill="#EA0000"/>
<path d="M80 445.678C74.6486 446.391 68.7604 447.412 63.2913 446.825C60.915 446.571 58.6326 445.791 56.2561 445.448C52.4683 444.902 47.4945 443.819 44.2376 442.075C39.9406 439.773 36.2294 437.277 35.4143 433.193C34.8548 430.39 34.7146 427.3 35.9419 424.61C38.3516 419.327 44.1275 418 50.8624 418C54.0167 418 59.391 418.778 61.0049 421.305" stroke="#FFF500" stroke-width="12" stroke-linecap="round"/>
<path d="M84.0099 456.604C83.0551 460.276 81.4648 463.923 81.4648 467.774C81.4648 472.406 81.7562 476.763 82.7374 481.301C84.047 487.358 86.7217 494.445 92 496.5C98.0372 502.5 113.42 495.89 119 493C123.515 490.662 119.166 483.125 115.763 479.722C115.763 479.722 114.727 479 113.241 477.295C109.727 470.5 104.49 474.981 104 474" stroke="#FFF500" stroke-width="12" stroke-linecap="round"/>
<path d="M283.5 72.9996C279.5 81.8391 287.853 99.9996 278 99.9996C270.319 91.66 261 84.2532 261 74.4996C261 64.7461 278 44 289 46.8397C323.083 55.6385 303.5 66.4996 283.5 72.9996Z" fill="#4E2F00"/>
<path d="M266 139.501L265 162.502L255.5 184.002L263.5 199.002L272.499 215.002L273.499 228.502L251.5 188.502L253.5 159.002L259.5 137.502L268 123.002L272.501 122L278.5 119L271.5 128.001L266 139.501Z" fill="#BA0000"/>
<path d="M271.5 272.5L301 274L341 284L329.5 287.5H320L316 284.5L310 283H305.5L299.5 283.5L292.5 284.5L286 278L278.5 280L275 283.5L268.5 282L271.5 272.5Z" fill="#EA0000"/>
<path d="M297.498 142.5L322 155L361.5 170L386 156L391 159L361.5 172L322 161L312 155L328 222.5L339 282L341 284L329.5 287.5H320L314.5 283.5L301 282.5L320 259L322 247L317.5 225.5L315 190L297.498 142.5Z" fill="#BA0000"/>
<path d="M80 445.678C74.6486 446.391 68.7604 447.412 63.2913 446.825C60.915 446.571 58.6326 445.791 56.2561 445.448C52.4683 444.902 47.4945 443.819 44.2376 442.075C39.9406 439.773 36.2294 437.277 35.4143 433.193C34.8548 430.39 34.7146 427.3 35.9419 424.61C38.3516 419.327 44.1275 418 50.8624 418C54.0167 418 59.391 418.778 61.0049 421.305" stroke="#F7ED00" stroke-width="3" stroke-linecap="round"/>
</svg>
