<svg width="1319" height="767" viewBox="0 0 1319 767" fill="none" xmlns="http://www.w3.org/2000/svg">
<path d="M404.063 269.438L413.483 251.047L453.5 229L399 325L364 393L313 454L383.966 310.16L404.063 269.438Z" fill="url(#paint0_linear_0_1)"/>
<path d="M400.988 272.822L412.094 255.397L443.269 239.205L382.802 325.204L336.5 393.5L293 448.019L377.157 311.477L400.988 272.822Z" fill="url(#paint1_linear_0_1)"/>
<path d="M534.202 223.5L534.201 214.589L578.992 206.262L586.424 207.125L593.656 207L584.632 215.899L581.353 211.929L554.866 216.206L534.202 223.5Z" fill="#6DFF8D" fill-opacity="0.7"/>
<path d="M451.82 361.362L650.995 130H665L562.765 254.572L463.332 367.217L194.407 546.041L0 767L174.32 546.041L451.82 361.362Z" fill="#FFED46"/>
<path d="M722.258 61.8631L715.684 61.4271L722.257 57.2503L722.258 61.8631ZM729.513 51.9599L722.872 56.1794L722.871 51.0544L729.513 51.9599ZM736.958 52.3792L731.165 51.5895L734.585 49.4167L736.958 52.3792ZM735.804 47.9622L734.753 48.6297L733.743 47.3687L735.804 47.9622ZM738.287 48.0555L737.214 47.7463L738.793 46.7428L738.287 48.0555ZM689.641 91.0562L694.824 88.0312L696.997 93.011L682.208 100.457L689.641 91.0562ZM700.492 84.0595L695.137 87.1845L691.689 79.2816L698.899 75.9593L700.492 84.0595ZM709.223 61.587L713.877 61.8956L710.145 64.2669L709.223 61.587ZM698.787 72.1642L709.795 65.1694L711.321 69.6045L699.367 75.1127L698.787 72.1642ZM669.138 107.678L680.13 102.145L672.003 112.422L665.615 116.825L669.138 107.678ZM664.378 118.376L660.601 128.182L657.008 123.456L664.378 118.376Z" fill="#FFED46" stroke="black" stroke-width="0.6"/>
<path d="M724.162 42.9648L726.666 49.9502L730.577 41.8677L724.162 42.9648ZM735.594 32.9549L731.652 41.1015L738.764 39.8853L735.594 32.9549ZM732.77 25.3182L735.596 31.4964L737.671 27.2081L732.77 25.3182ZM739.207 25.4886L738.51 26.9295L740.791 27.8093L739.207 25.4886ZM738.279 23.0734L739.094 24.2672L740.128 22.1288L738.279 23.0734ZM728.401 56.607L726.592 51.5605L724.325 56.2437L728.401 56.607ZM716.999 69.9297L723.388 56.7251L716.843 56.1416L712.734 70.0067L716.999 69.9297ZM709.405 79.0014L711.898 70.5882L700.407 70.7955L697.655 77.2018L709.405 79.0014ZM694.134 83.7892L696.777 77.6354L689.326 76.4942L683.345 93.9135L694.134 83.7892ZM677.475 109.05L681.925 96.0909L670.151 107.139L665.946 114.938L677.475 109.05ZM664.457 116.366L652.043 122.706L659.572 125.426L664.457 116.366Z" fill="#FFED46" stroke="black" stroke-width="0.6"/>
<path d="M722.041 39.2963L724.545 46.2816L728.456 38.1991L722.041 39.2963ZM733.473 29.2864L729.531 37.4329L736.643 36.2167L733.473 29.2864ZM730.649 21.6496L733.475 27.8279L735.55 23.5395L730.649 21.6496ZM737.086 21.8201L736.389 23.2609L738.67 24.1407L737.086 21.8201ZM736.158 19.4048L736.973 20.5986L738.007 18.4602L736.158 19.4048ZM726.28 52.9385L724.471 47.8919L722.205 52.5751L726.28 52.9385ZM714.878 66.2612L721.267 53.0566L714.722 52.473L710.613 66.3381L714.878 66.2612ZM707.284 75.3328L709.777 66.9197L698.286 67.127L695.534 73.5332L707.284 75.3328ZM692.013 80.1207L694.657 73.9669L687.229 72.8293L683.676 87.9445L692.013 80.1207ZM678.691 106.361L682.581 89.8157L668.03 103.471L658.986 120.245L678.691 106.361Z" fill="#FFED46" stroke="black" stroke-width="0.6"/>
<path d="M709.529 54.2269L709.451 53.638L709.018 54.0731L701.383 61.7422L698.262 58.1368L718.612 39.96L721.882 42.8556L709.792 56.2295L709.529 54.2269ZM689.976 88.372L676.83 97.8525L682.342 87.5116L686.872 83.7765L689.976 88.372ZM691.694 79.0407L687.017 82.8963L682.11 75.6311L688.871 72.0575L691.694 79.0407ZM701.708 64.6081L689.193 71.223L687.713 67.5604L697.535 58.7867L701.708 64.6081ZM665.339 106.862L675.115 99.8128L669.089 111.119L663.633 116.391L665.339 106.862ZM662.72 118.09L660.891 128.309L656.432 124.167L662.72 118.09ZM717.396 38.0663L719.531 38.3522L718.629 39.1578L717.396 38.0663ZM722.004 38.0787L720.885 37.9289L722.249 36.7109L722.004 38.0787Z" fill="#FFED46" stroke="black" stroke-width="0.6"/>
<path d="M710.696 44.1618L713.953 50.913L716.965 42.5455L710.696 44.1618ZM720.981 33.2693L717.946 41.7029L724.894 39.9112L720.981 33.2693ZM717.343 25.8972L720.828 31.8125L722.425 27.3774L717.343 25.8972ZM723.763 25.5414L723.227 27.0292L725.589 27.7172L723.763 25.5414ZM722.578 23.2054L723.522 24.3299L724.32 22.1115L722.578 23.2054ZM716.402 57.402L714.05 52.5265L712.305 57.373L716.402 57.402ZM706.508 71.5968L711.429 57.9261L704.847 57.8795L702.269 72.0218L706.508 71.5968ZM699.937 81.2468L701.502 72.6645L690.083 73.8091L688.042 80.4143L699.937 81.2468ZM685.257 87.2649L687.219 80.9161L679.674 80.3881L675.619 98.2272L685.257 87.2649ZM671.429 113.772L674.448 100.494L663.93 112.457L660.59 120.578L671.429 113.772ZM659.274 122.105L647.598 129.436L655.397 131.531L659.274 122.105Z" fill="#FFED46" stroke="black" stroke-width="0.6"/>
<path d="M445 231.5L479 211.5L535 187V224L486 286L445 305.5L403 332L374 347L445 231.5Z" fill="url(#paint2_radial_0_1)" fill-opacity="0.8"/>
<path d="M523.5 16L535 138.5L539.502 176.653L565.502 0.500059L543.502 164.999L554.238 155.51L557.295 161.807L546.049 167.265L526.707 176.653L537.002 171.656L533.502 136.999L523.5 16Z" fill="#2E7060"/>
<path d="M553.5 151.5L566.5 180L525.5 218.001L538 193.501L536.5 180.001L506 196.001L534.054 169.184L553.5 151.5Z" fill="#40DF89" fill-opacity="0.8"/>
<path d="M466.002 347.5L454.502 340L443.502 323L419.5 291L409 272L383 210.5L402 177.5L474.731 262.823L467.64 277.165L443.502 234L402 186L407 197.5L402 207.5L396.5 195.5L372 202.499L466.002 347.5Z" fill="#6DFF8D"/>
<path d="M417.836 325.017L421.68 329.798L427.129 334.437L432.497 373L428.5 368.5L417.836 325.017Z" fill="#6DFF8D"/>
<path d="M402.425 211.121L403.867 206.044L407.092 210.422L412.519 248.422L408.555 250.775L406.653 251.714L402.425 211.121Z" fill="#3AEC61" fill-opacity="0.3"/>
<path d="M404.498 189.001L404.498 182.001L473.498 263.001L468.5 273L467.307 265.45L437.498 226.001L404.498 189.001Z" fill="#4FF072"/>
<path d="M552.422 155L548.5 168L552.422 189.5L563.001 179L552.422 155Z" fill="#24B366"/>
<path d="M532.5 223.5L531.501 213.5L521.001 225.998L483.501 250.498L471.501 278.998L439.501 303.998L483.501 284.998L532.5 223.5Z" fill="#00803B" fill-opacity="0.4"/>
<path d="M487 246.685L501 235L527 246.685L574.018 251.141L576 258L571.065 264.826L562 256.5L504.5 248L487 246.685Z" fill="#6DFF8D" fill-opacity="0.7"/>
<line x1="76.9495" y1="104.687" x2="891.238" y2="438.985" stroke="#FFF500" stroke-width="5"/>
<line x1="76.9495" y1="104.687" x2="891.238" y2="438.985" stroke="#FFF500" stroke-width="5"/>
<line x1="60.5761" y1="102.715" x2="753.018" y2="518.98" stroke="#FFF500" stroke-opacity="0.2" stroke-width="10"/>
<line x1="60.1174" y1="102.47" x2="398.117" y2="260.47" stroke="#FFF500" stroke-opacity="0.2" stroke-width="10"/>
<line x1="61.2474" y1="103.198" x2="349.247" y2="349.198" stroke="#FFF500" stroke-opacity="0.2" stroke-width="10"/>
<line x1="61.4905" y1="103.42" x2="341.491" y2="376.42" stroke="#FFF500" stroke-opacity="0.2" stroke-width="10"/>
<line x1="61.0104" y1="103.008" x2="858.01" y2="704.008" stroke="#FFF500" stroke-opacity="0.2" stroke-width="10"/>
<line x1="60.8999" y1="102.927" x2="919.628" y2="714.309" stroke="#FFF500" stroke-opacity="0.2" stroke-width="10"/>
<line x1="60.9742" y1="102.981" x2="360.974" y2="324.981" stroke="#FFF500" stroke-opacity="0.2" stroke-width="10"/>
<line x1="59.8857" y1="102.369" x2="1030.74" y2="497.719" stroke="#FFCAF3" stroke-opacity="0.2" stroke-width="10"/>
<line x1="60.7041" y1="102.794" x2="693.704" y2="509.794" stroke="#FFF500" stroke-opacity="0.2" stroke-width="10"/>
<line x1="74.6954" y1="93.5723" x2="642.695" y2="605.572" stroke="#FFF500" stroke-opacity="0.2" stroke-width="20"/>
<line x1="68.9339" y1="98.681" x2="1030.28" y2="485.821" stroke="#FFF500" stroke-opacity="0.6" stroke-width="5"/>
<line x1="180.654" y1="144.587" x2="1216.65" y2="425.587" stroke="#FFF500" stroke-opacity="0.6" stroke-width="5"/>
<line x1="68.7128" y1="98.6038" x2="1211.71" y2="438.604" stroke="#FFF500" stroke-opacity="0.6" stroke-width="5"/>
<line x1="69.0012" y1="98.7092" x2="1315.63" y2="643.549" stroke="white" stroke-opacity="0.6" stroke-width="5"/>
<line x1="69.215" y1="96.1499" x2="1055.21" y2="343.15" stroke="#FFF500" stroke-opacity="0.1" stroke-width="10"/>
<line x1="90.2619" y1="91.9537" x2="973.262" y2="507.954" stroke="#FFFBA3" stroke-opacity="0.2" stroke-width="20"/>
<line x1="70.5761" y1="96.7147" x2="763.018" y2="512.98" stroke="#FFF500" stroke-opacity="0.2" stroke-width="10"/>
<line x1="70.1174" y1="96.4705" x2="408.117" y2="254.47" stroke="#FFF500" stroke-opacity="0.2" stroke-width="10"/>
<line x1="71.2474" y1="97.1981" x2="359.247" y2="343.198" stroke="#FFF500" stroke-opacity="0.2" stroke-width="10"/>
<line x1="71.4905" y1="97.42" x2="351.491" y2="370.42" stroke="#FFF500" stroke-opacity="0.2" stroke-width="10"/>
<line x1="70.5979" y1="96.7279" x2="1106.6" y2="726.728" stroke="white" stroke-opacity="0.2" stroke-width="10"/>
<line x1="70.9742" y1="96.9808" x2="370.974" y2="318.981" stroke="#FFF500" stroke-opacity="0.2" stroke-width="10"/>
<line x1="43.8857" y1="123.369" x2="1014.74" y2="518.719" stroke="#FFF0FC" stroke-opacity="0.2" stroke-width="10"/>
<line x1="72.6468" y1="92.1452" x2="859.647" y2="505.145" stroke="#FFF500" stroke-opacity="0.2" stroke-width="20"/>
<line x1="86.5036" y1="89.738" x2="323.504" y2="472.738" stroke="#FFF500" stroke-opacity="0.2" stroke-width="20"/>
<line x1="78.8583" y1="92.652" x2="1299.43" y2="538.838" stroke="#FFF500" stroke-opacity="0.6" stroke-width="5"/>
<line x1="81.2144" y1="85.5307" x2="1280.21" y2="492.531" stroke="#FFF500" stroke-opacity="0.15" stroke-width="20"/>
<line x1="83.6885" y1="86.7756" x2="1030.69" y2="741.776" stroke="#FFF500" stroke-opacity="0.15" stroke-width="20"/>
<line x1="79.4529" y1="92.9655" x2="995.197" y2="746.925" stroke="#FFFDCC" stroke-opacity="0.6" stroke-width="5"/>
<line x1="79.215" y1="90.1499" x2="1065.21" y2="337.15" stroke="#FFF500" stroke-opacity="0.1" stroke-width="10"/>
<line x1="79.8576" y1="90.3579" x2="1316.86" y2="585.358" stroke="#FFF500" stroke-opacity="0.1" stroke-width="10"/>
<line x1="80.8361" y1="90.8822" x2="1031.84" y2="745.882" stroke="#FFF500" stroke-opacity="0.1" stroke-width="10"/>
<defs>
<linearGradient id="paint0_linear_0_1" x1="378" y1="228.716" x2="378" y2="450.716" gradientUnits="userSpaceOnUse">
<stop offset="0.786458" stop-color="#B0FFCB"/>
<stop offset="1" stop-color="#B0FFCB" stop-opacity="0"/>
</linearGradient>
<linearGradient id="paint1_linear_0_1" x1="378.864" y1="229.833" x2="358.021" y2="450.852" gradientUnits="userSpaceOnUse">
<stop offset="0.348958" stop-color="#9AD9CA"/>
<stop offset="0.867318" stop-color="#C6FFD6" stop-opacity="0.932671"/>
<stop offset="1" stop-color="#B0FFCB" stop-opacity="0"/>
</linearGradient>
<radialGradient id="paint2_radial_0_1" cx="0" cy="0" r="1" gradientUnits="userSpaceOnUse" gradientTransform="translate(454.5 267) rotate(90) scale(80 80.5)">
<stop stop-color="#087713"/>
<stop offset="1" stop-color="#00FF38" stop-opacity="0.51"/>
</radialGradient>
</defs>
</svg>
