<svg width="1319" height="761" viewBox="0 0 1319 761" fill="none" xmlns="http://www.w3.org/2000/svg">
<path d="M399.063 269.438L408.483 251.047L448.5 229L394 325L359 393L308 454L378.966 310.16L399.063 269.438Z" fill="url(#paint0_linear_0_1)"/>
<path d="M395.988 272.822L407.094 255.397L438.269 239.205L377.802 325.204L331.5 393.5L288 448.019L372.157 311.477L395.988 272.822Z" fill="url(#paint1_linear_0_1)"/>
<path d="M581.433 207.625L587.415 207.521L579.669 215.16L576.738 211.61L576.556 211.389L576.273 211.435L549.787 215.713L549.742 215.72L549.7 215.735L529.702 222.793L529.701 215.005L574.009 206.767L581.366 207.622L581.399 207.626L581.433 207.625Z" fill="#6DFF8D" stroke="black"/>
<mask id="path-4-inside-1_0_1" fill="white">
<path d="M451.82 355.362L650.995 124H665L562.765 248.572L463.332 361.217L194.407 540.041L0 761L174.32 540.041L451.82 355.362Z"/>
</mask>
<path d="M451.82 355.362L650.995 124H665L562.765 248.572L463.332 361.217L194.407 540.041L0 761L174.32 540.041L451.82 355.362Z" fill="#FFED46"/>
<path d="M451.82 355.362L452.375 356.195L452.489 356.119L452.578 356.015L451.82 355.362ZM650.995 124V123H650.537L650.237 123.348L650.995 124ZM463.332 361.217L463.885 362.05L463.995 361.977L464.081 361.879L463.332 361.217ZM0 761L-0.785092 760.381L0.750777 761.661L0 761ZM665 124L665.773 124.634L667.114 123H665V124ZM562.765 248.572L563.515 249.234L563.527 249.22L563.538 249.206L562.765 248.572ZM194.407 540.041L193.853 539.208L193.743 539.281L193.656 539.38L194.407 540.041ZM174.32 540.041L173.766 539.208L173.634 539.296L173.535 539.421L174.32 540.041ZM452.578 356.015L651.753 124.652L650.237 123.348L451.063 354.71L452.578 356.015ZM650.995 125H665V123H650.995V125ZM664.227 123.366L561.992 247.938L563.538 249.206L665.773 124.634L664.227 123.366ZM562.016 247.91L462.582 360.555L464.081 361.879L563.515 249.234L562.016 247.91ZM462.778 360.384L193.853 539.208L194.96 540.873L463.885 362.05L462.778 360.384ZM193.656 539.38L-0.750777 760.339L0.750777 761.661L195.157 540.701L193.656 539.38ZM0.785092 761.619L175.105 540.66L173.535 539.421L-0.785092 760.381L0.785092 761.619ZM174.874 540.873L452.375 356.195L451.266 354.53L173.766 539.208L174.874 540.873Z" fill="black" mask="url(#path-4-inside-1_0_1)"/>
<path d="M717.258 61.8631L710.684 61.4271L717.257 57.2503L717.258 61.8631ZM724.513 51.9599L717.872 56.1794L717.871 51.0544L724.513 51.9599ZM731.958 52.3792L726.165 51.5895L729.585 49.4167L731.958 52.3792ZM730.804 47.9622L729.753 48.6297L728.743 47.3687L730.804 47.9622ZM733.287 48.0555L732.214 47.7463L733.793 46.7428L733.287 48.0555ZM684.641 91.0562L689.824 88.0312L691.997 93.011L677.208 100.457L684.641 91.0562ZM695.492 84.0595L690.137 87.1845L686.689 79.2816L693.899 75.9593L695.492 84.0595ZM704.223 61.587L708.877 61.8956L705.145 64.2669L704.223 61.587ZM693.787 72.1642L704.795 65.1694L706.321 69.6045L694.367 75.1127L693.787 72.1642ZM664.138 107.678L675.13 102.145L667.003 112.422L660.615 116.825L664.138 107.678ZM659.378 118.376L655.601 128.182L652.008 123.456L659.378 118.376Z" fill="#FFED46" stroke="black" stroke-width="0.6"/>
<path d="M719.162 42.9648L721.666 49.9502L725.577 41.8677L719.162 42.9648ZM730.594 32.9549L726.652 41.1015L733.764 39.8853L730.594 32.9549ZM727.77 25.3182L730.596 31.4964L732.671 27.2081L727.77 25.3182ZM734.207 25.4886L733.51 26.9295L735.791 27.8093L734.207 25.4886ZM733.279 23.0734L734.094 24.2672L735.128 22.1288L733.279 23.0734ZM723.401 56.607L721.592 51.5605L719.325 56.2437L723.401 56.607ZM711.999 69.9297L718.388 56.7251L711.843 56.1416L707.734 70.0067L711.999 69.9297ZM704.405 79.0014L706.898 70.5882L695.407 70.7955L692.655 77.2018L704.405 79.0014ZM689.134 83.7892L691.777 77.6354L684.326 76.4942L678.345 93.9135L689.134 83.7892ZM672.475 109.05L676.925 96.0909L665.151 107.139L660.946 114.938L672.475 109.05ZM659.457 116.366L647.043 122.706L654.572 125.426L659.457 116.366Z" fill="#FFED46" stroke="black" stroke-width="0.6"/>
<path d="M717.041 39.2963L719.545 46.2816L723.456 38.1991L717.041 39.2963ZM728.473 29.2864L724.531 37.4329L731.643 36.2167L728.473 29.2864ZM725.649 21.6496L728.475 27.8279L730.55 23.5395L725.649 21.6496ZM732.086 21.8201L731.389 23.2609L733.67 24.1407L732.086 21.8201ZM731.158 19.4048L731.973 20.5986L733.007 18.4602L731.158 19.4048ZM721.28 52.9385L719.471 47.8919L717.205 52.5751L721.28 52.9385ZM709.878 66.2612L716.267 53.0566L709.722 52.473L705.613 66.3381L709.878 66.2612ZM702.284 75.3328L704.777 66.9197L693.286 67.127L690.534 73.5332L702.284 75.3328ZM687.013 80.1207L689.657 73.9669L682.229 72.8293L678.676 87.9445L687.013 80.1207ZM673.691 106.361L677.581 89.8157L663.03 103.471L653.986 120.245L673.691 106.361Z" fill="#FFED46" stroke="black" stroke-width="0.6"/>
<path d="M704.529 54.2269L704.451 53.638L704.018 54.0731L696.383 61.7422L693.262 58.1368L713.612 39.96L716.882 42.8556L704.792 56.2295L704.529 54.2269ZM684.976 88.372L671.83 97.8525L677.342 87.5116L681.872 83.7765L684.976 88.372ZM686.694 79.0407L682.017 82.8963L677.11 75.6311L683.871 72.0575L686.694 79.0407ZM696.708 64.6081L684.193 71.223L682.713 67.5604L692.535 58.7867L696.708 64.6081ZM660.339 106.862L670.115 99.8128L664.089 111.119L658.633 116.391L660.339 106.862ZM657.72 118.09L655.891 128.309L651.432 124.167L657.72 118.09ZM712.396 38.0663L714.531 38.3522L713.629 39.1578L712.396 38.0663ZM717.004 38.0787L715.885 37.9289L717.249 36.7109L717.004 38.0787Z" fill="#FFED46" stroke="black" stroke-width="0.6"/>
<path d="M705.696 44.1618L708.953 50.913L711.965 42.5455L705.696 44.1618ZM715.981 33.2693L712.946 41.7029L719.894 39.9112L715.981 33.2693ZM712.343 25.8972L715.828 31.8125L717.425 27.3774L712.343 25.8972ZM718.763 25.5414L718.227 27.0292L720.589 27.7172L718.763 25.5414ZM717.578 23.2054L718.522 24.3299L719.32 22.1115L717.578 23.2054ZM711.402 57.402L709.05 52.5265L707.305 57.373L711.402 57.402ZM701.508 71.5968L706.429 57.9261L699.847 57.8795L697.269 72.0218L701.508 71.5968ZM694.937 81.2468L696.502 72.6645L685.083 73.8091L683.042 80.4143L694.937 81.2468ZM680.257 87.2649L682.219 80.9161L674.674 80.3881L670.619 98.2272L680.257 87.2649ZM666.429 113.772L669.448 100.494L658.93 112.457L655.59 120.578L666.429 113.772ZM654.274 122.105L642.598 129.436L650.397 131.531L654.274 122.105Z" fill="#FFED46" stroke="black" stroke-width="0.6"/>
<path d="M529 223.653L480.342 285.22L371.817 344.327L440.722 232.236L474.456 212.392L529 188.529V223.653Z" fill="url(#paint2_radial_0_1)" stroke="black" stroke-width="2"/>
<path d="M518.5 16L530 138.5L534.502 176.653L560.502 0.500059L538.502 164.999L549.238 155.51L552.295 161.807L541.049 167.265L521.707 176.653L532.002 171.656L528.502 136.999L518.5 16Z" fill="#2E7060"/>
<path d="M560.895 179.879L522.225 215.72L533.446 193.728L533.514 193.594L533.497 193.445L531.997 179.945L531.916 179.218L531.268 179.558L503.913 193.908L529.395 169.55L548.329 152.331L560.895 179.879Z" fill="#40DF89" stroke="black"/>
<path d="M404.45 271.781L391.575 241.326L459.299 345.792L449.864 339.639L438.922 322.728L438.912 322.714L438.902 322.7L414.921 290.728L404.45 271.781ZM391.363 195.019L386.727 196.343L397.079 178.364L469.137 262.896L462.612 276.092L438.938 233.756L438.913 233.712L438.88 233.673L397.378 185.673L396.541 186.199L401.448 197.485L397.019 206.343L391.955 195.292L391.776 194.901L391.363 195.019ZM377.539 210.695L386.22 231.227L367.787 202.795L384.63 197.983L377.567 210.251L377.443 210.466L377.539 210.695Z" fill="#6DFF8D" stroke="black"/>
<path d="M413.858 327.087L416.29 330.112L416.32 330.148L416.356 330.179L421.66 334.694L426.774 371.433L423.956 368.261L413.858 327.087Z" fill="#6DFF8D" stroke="black"/>
<path d="M399.069 207.162L401.615 210.617L406.977 248.163L403.316 250.335L402.075 250.948L397.932 211.165L399.069 207.162Z" fill="#3AEC61" fill-opacity="0.3" stroke="black"/>
<path d="M399.498 189.001L399.498 182.001L468.498 263.001L463.5 273L462.307 265.45L432.498 226.001L399.498 189.001Z" fill="#4FF072"/>
<path d="M547.422 155L543.5 168L547.422 189.5L558.001 179L547.422 155Z" fill="#24B366"/>
<path d="M527.5 223.5L526.501 213.5L516.001 225.998L478.501 250.498L466.501 278.998L434.501 303.998L478.501 284.998L527.5 223.5Z" fill="#00803B" fill-opacity="0.4"/>
<path d="M570.452 257.905L565.989 264.077L557.338 256.132L557.225 256.028L557.073 256.005L499.573 247.505L499.555 247.503L499.537 247.501L483.267 246.279L496.08 235.584L521.795 247.141L521.87 247.175L521.953 247.183L568.632 251.606L570.452 257.905Z" fill="#6DFF8D" stroke="black"/>
<line x1="76.9495" y1="98.6873" x2="891.238" y2="432.985" stroke="#FFF500" stroke-width="5"/>
<line x1="76.9495" y1="98.6873" x2="891.238" y2="432.985" stroke="#FFF500" stroke-width="5"/>
<line x1="60.5761" y1="96.7147" x2="753.018" y2="512.98" stroke="#FFF500" stroke-opacity="0.2" stroke-width="10"/>
<line x1="60.1174" y1="96.4705" x2="398.117" y2="254.47" stroke="#FFF500" stroke-opacity="0.2" stroke-width="10"/>
<line x1="61.2474" y1="97.1981" x2="349.247" y2="343.198" stroke="#FFF500" stroke-opacity="0.2" stroke-width="10"/>
<line x1="61.4905" y1="97.42" x2="341.491" y2="370.42" stroke="#FFF500" stroke-opacity="0.2" stroke-width="10"/>
<line x1="61.0104" y1="97.0078" x2="858.01" y2="698.008" stroke="#FFF500" stroke-opacity="0.2" stroke-width="10"/>
<line x1="60.8999" y1="96.9269" x2="919.628" y2="708.309" stroke="#FFF500" stroke-opacity="0.2" stroke-width="10"/>
<line x1="60.9742" y1="96.9808" x2="360.974" y2="318.981" stroke="#FFF500" stroke-opacity="0.2" stroke-width="10"/>
<line x1="59.8857" y1="96.3692" x2="1030.74" y2="491.719" stroke="#FFCAF3" stroke-opacity="0.2" stroke-width="10"/>
<line x1="60.7041" y1="96.7943" x2="693.704" y2="503.794" stroke="#FFF500" stroke-opacity="0.2" stroke-width="10"/>
<line x1="74.6954" y1="87.5723" x2="642.695" y2="599.572" stroke="#FFF500" stroke-opacity="0.2" stroke-width="20"/>
<line x1="68.9339" y1="92.681" x2="1030.28" y2="479.821" stroke="#FFF500" stroke-opacity="0.6" stroke-width="5"/>
<line x1="180.654" y1="138.587" x2="1216.65" y2="419.587" stroke="#FFF500" stroke-opacity="0.6" stroke-width="5"/>
<line x1="68.7128" y1="92.6038" x2="1211.71" y2="432.604" stroke="#FFF500" stroke-opacity="0.6" stroke-width="5"/>
<line x1="69.0012" y1="92.7092" x2="1315.63" y2="637.549" stroke="white" stroke-opacity="0.6" stroke-width="5"/>
<line x1="69.215" y1="90.1499" x2="1055.21" y2="337.15" stroke="#FFF500" stroke-opacity="0.1" stroke-width="10"/>
<line x1="90.2619" y1="85.9537" x2="973.262" y2="501.954" stroke="#FFFBA3" stroke-opacity="0.2" stroke-width="20"/>
<line x1="70.5761" y1="90.7147" x2="763.018" y2="506.98" stroke="#FFF500" stroke-opacity="0.2" stroke-width="10"/>
<line x1="70.1174" y1="90.4705" x2="408.117" y2="248.47" stroke="#FFF500" stroke-opacity="0.2" stroke-width="10"/>
<line x1="71.2474" y1="91.1981" x2="359.247" y2="337.198" stroke="#FFF500" stroke-opacity="0.2" stroke-width="10"/>
<line x1="71.4905" y1="91.42" x2="351.491" y2="364.42" stroke="#FFF500" stroke-opacity="0.2" stroke-width="10"/>
<line x1="70.5979" y1="90.7279" x2="1106.6" y2="720.728" stroke="white" stroke-opacity="0.2" stroke-width="10"/>
<line x1="70.9742" y1="90.9808" x2="370.974" y2="312.981" stroke="#FFF500" stroke-opacity="0.2" stroke-width="10"/>
<line x1="43.8857" y1="117.369" x2="1014.74" y2="512.719" stroke="#FFF0FC" stroke-opacity="0.2" stroke-width="10"/>
<line x1="72.6468" y1="86.1452" x2="859.647" y2="499.145" stroke="#FFF500" stroke-opacity="0.2" stroke-width="20"/>
<line x1="86.5036" y1="83.738" x2="323.504" y2="466.738" stroke="#FFF500" stroke-opacity="0.2" stroke-width="20"/>
<line x1="78.8583" y1="86.652" x2="1299.43" y2="532.838" stroke="#FFF500" stroke-opacity="0.6" stroke-width="5"/>
<line x1="81.2144" y1="79.5307" x2="1280.21" y2="486.531" stroke="#FFF500" stroke-opacity="0.15" stroke-width="20"/>
<line x1="83.6885" y1="80.7756" x2="1030.69" y2="735.776" stroke="#FFF500" stroke-opacity="0.15" stroke-width="20"/>
<line x1="79.4529" y1="86.9655" x2="995.197" y2="740.925" stroke="#FFFDCC" stroke-opacity="0.6" stroke-width="5"/>
<line x1="79.215" y1="84.1499" x2="1065.21" y2="331.15" stroke="#FFF500" stroke-opacity="0.1" stroke-width="10"/>
<line x1="79.8576" y1="84.3579" x2="1316.86" y2="579.358" stroke="#FFF500" stroke-opacity="0.1" stroke-width="10"/>
<line x1="80.8361" y1="84.8822" x2="1031.84" y2="739.882" stroke="#FFF500" stroke-opacity="0.1" stroke-width="10"/>
<defs>
<linearGradient id="paint0_linear_0_1" x1="373" y1="228.716" x2="373" y2="450.716" gradientUnits="userSpaceOnUse">
<stop offset="0.786458" stop-color="#B0FFCB"/>
<stop offset="1" stop-color="#B0FFCB" stop-opacity="0"/>
</linearGradient>
<linearGradient id="paint1_linear_0_1" x1="373.864" y1="229.833" x2="353.021" y2="450.852" gradientUnits="userSpaceOnUse">
<stop offset="0.786458" stop-color="#B0FFCB"/>
<stop offset="1" stop-color="#B0FFCB" stop-opacity="0"/>
</linearGradient>
<radialGradient id="paint2_radial_0_1" cx="0" cy="0" r="1" gradientUnits="userSpaceOnUse" gradientTransform="translate(449.5 267) rotate(90) scale(80 80.5)">
<stop stop-color="#087713"/>
<stop offset="1" stop-color="#00FF38" stop-opacity="0.51"/>
</radialGradient>
</defs>
</svg>
