<svg width="1916" height="794" viewBox="0 0 1916 794" fill="none" xmlns="http://www.w3.org/2000/svg">
<path d="M1916 791V332.44L1828.45 413.991H1692.4L1584.38 483.473L1439.83 518.936L1074.21 483.473L831.715 332.44L789 326.5L750 330.5H720L696 336L646 349.5L570.5 384.579L478 447.402L295.084 483.473L200.922 447.402L75.5819 384.579L0 207V791H1916Z" fill="#61EA5E"/>
<path d="M1194.5 124.5L1199.5 124.5L1217 137.5L1264 183.5L1317 214.5L1323 228.5L1338.5 248.5L1363 266.5L1416.5 169.5L1371 128L1345.5 105.5L1325 92.9999L1277.5 76.5L1237.5 67L1208 64L1222 86.5L1206 64L1194.5 62L1181 82L1189.5 62L1149.5 54L1155 54L1237.5 64L1317 82L1311.5 54L1294.5 15L1268.5 0.500004L1294.5 6.5L1329.5 89.5L1382 133L1423 158.5L1473 66.4998L1453.5 121L1453.5 128L1487.5 121L1531.5 124.5L1531.5 127L1510 124.5L1487.5 124.5L1447 135.5L1439.5 147.5L1416 198L1392.5 248.5L1389.5 257.5L1391.5 264L1400 271L1611.5 161.5L1494 238L1618 307.5L1611.5 309L1557.5 282.5L1485.5 246L1423 281L1382 324L1363 347L1348 377.5L1338.5 410.5L1332.5 432.5L1323 453.5L1314.5 521L1309 554.5L1312 568L1312 581L1295 672L1326.5 791L1173 791L1219.5 710L1251.5 543.5L1258.5 510.5L1264.5 492L1269.5 482L1277 451.5L1281 436.5L1283 418.5L1303 364L1323 329.5L1348 293.5L1328 260L1280.5 211L1197.5 228.5L1104.5 241.5L968.5 246L1194.5 223.5L1272 201.5L1194.5 124.5Z" fill="#996416"/>
<path d="M0 652.323L58.261 446.516L112.743 226.009L55.1118 581.493L68.6535 786.631L0 791.309V652.323Z" fill="#70FF6D"/>
<path d="M15.1162 657.668L40.3102 544.742L69.6562 439.834L112.743 226.009L55.1116 581.493L69.6562 791.309H15.1162V657.668Z" fill="#46D843"/>
<path d="M36.5312 634.908L125.34 383.705L186.435 155.18L89.7535 616.24L95.1072 802L36.5312 791.309V634.908Z" fill="#70FF6D"/>
<path d="M57.0195 639.744L90.5176 512.668L129.536 394.616L186.825 154L90.5176 616.396L96.6822 790.129H57.0195V639.744Z" fill="#46D843"/>
<path d="M597 748.17L569.453 670.251L550.502 599.366L580.491 742.38L578.831 800L597 796.683V748.17Z" fill="#70FF6D"/>
<path d="M590.645 749.671L580.254 710.254L568.151 673.636L550.381 599L580.254 742.428L578.342 796.318H590.645V749.671Z" fill="#46D843"/>
<path d="M637.619 738.17L669.162 660.251L690.862 589.366L656.522 732.38L658.424 790L637.619 786.683V738.17Z" fill="#70FF6D"/>
<path d="M644.896 739.671L656.794 700.254L670.653 663.636L691 589L656.794 732.428L658.984 786.318H644.896V739.671Z" fill="#46D843"/>
<path d="M597 738.17L652.545 660.251L690.756 589.366L630.287 732.38L633.636 790L597 786.683V738.17Z" fill="#70FF6D"/>
<path d="M609.814 739.671L630.766 700.254L655.169 663.636L691 589L630.766 732.428L634.621 786.318H609.814V739.671Z" fill="#46D843"/>
<path d="M1274.5 199C1258.18 208 1256.18 208 1242.03 216.5C1225.68 203.5 1223 205.5 1213 201C1217.5 199 1229.53 199 1242.03 182C1255.28 182 1255.68 192.5 1274.5 199Z" fill="#FFB8F8"/>
<path d="M1264.69 185.418C1272.12 168.323 1273.7 167.102 1279.71 151.728C1300.6 152.037 1302.83 154.272 1313.5 151.728C1311.16 156.06 1300.3 157.951 1300.78 179.046C1290.29 187.142 1283.56 179.07 1264.69 185.418Z" fill="#FFB8F8"/>
<path d="M1285.17 182.358C1280.15 182.151 1274.13 181.903 1265.59 184.597C1268.52 177.897 1270.51 173.729 1272.27 170.059C1272.58 169.408 1272.88 168.773 1273.18 168.142C1275.23 163.831 1277.11 159.727 1280.05 152.233C1287.8 152.357 1292.94 152.747 1296.92 153.048C1298.19 153.144 1299.33 153.23 1300.41 153.297C1304.57 153.556 1307.67 153.511 1312.31 152.511C1311.76 153.121 1311.02 153.741 1310.14 154.474L1310.13 154.477C1308.79 155.592 1307.2 156.921 1305.69 158.787C1302.68 162.516 1300.08 168.32 1300.28 178.803C1297.79 180.68 1295.53 181.621 1293.27 182.074C1290.94 182.542 1288.58 182.494 1285.9 182.388C1285.66 182.378 1285.41 182.368 1285.17 182.358Z" stroke="black" stroke-opacity="0.1"/>
<path d="M1275.9 192.871C1283.33 175.777 1293.49 185.373 1299.5 170C1320.39 170.309 1314.05 161.726 1324.72 159.182C1322.37 163.514 1324.72 173.5 1312 186.5C1301.5 194.595 1294.78 186.523 1275.9 192.871Z" fill="#FFB8F8"/>
<path d="M1296.38 189.812C1291.37 189.605 1285.35 189.357 1276.83 192.045C1278.53 188.434 1280.35 186.175 1282.2 184.632C1284.22 182.944 1286.31 182.084 1288.42 181.255C1288.51 181.218 1288.61 181.18 1288.7 181.142C1290.71 180.356 1292.74 179.558 1294.63 178.046C1296.57 176.496 1298.34 174.221 1299.84 170.504C1304.9 170.556 1308.38 170.08 1310.9 169.274C1313.5 168.446 1315.07 167.274 1316.3 166.01C1316.86 165.434 1317.34 164.855 1317.81 164.29C1319.26 162.544 1320.6 160.927 1323.84 159.937C1323.49 160.926 1323.26 162.086 1323.04 163.363C1323 163.578 1322.96 163.796 1322.92 164.019C1322.64 165.621 1322.33 167.435 1321.77 169.457C1320.49 174.037 1317.95 179.699 1311.67 186.125C1309.11 188.09 1306.8 189.064 1304.49 189.528C1302.15 189.996 1299.79 189.948 1297.11 189.841C1296.87 189.832 1296.63 189.822 1296.38 189.812Z" stroke="black" stroke-opacity="0.1"/>
<path d="M1268.5 149.446C1256.02 147.704 1260.24 154.68 1248.99 152.619C1249.94 168.307 1254.16 168.937 1246.45 176.19C1255.77 165.919 1258.71 179.256 1262.85 169.961C1265.8 163.31 1264.42 160.803 1268.5 149.446Z" fill="#FFA9F6"/>
<path d="M1267.82 149.861C1265.08 149.527 1263.25 149.649 1261.89 149.982C1260.44 150.337 1259.51 150.94 1258.56 151.569C1258.53 151.588 1258.5 151.607 1258.48 151.626C1257.55 152.241 1256.58 152.884 1255.15 153.233C1253.79 153.566 1252.04 153.625 1249.53 153.219C1249.77 156.809 1250.19 159.578 1250.57 161.816C1250.67 162.402 1250.77 162.955 1250.87 163.479C1251.15 165.056 1251.39 166.373 1251.47 167.533C1251.58 169.111 1251.4 170.456 1250.68 171.88C1250.6 172.034 1250.52 172.188 1250.43 172.343C1251.06 172.028 1251.68 171.821 1252.26 171.701C1254.06 171.332 1255.54 171.789 1256.77 172.24C1256.92 172.297 1257.07 172.353 1257.21 172.407C1257.65 172.573 1258.05 172.721 1258.43 172.826C1258.93 172.963 1259.35 173.007 1259.75 172.923C1260.5 172.76 1261.37 172.055 1262.39 169.758C1263.79 166.6 1264.2 164.403 1264.71 161.662C1264.73 161.568 1264.74 161.473 1264.76 161.377C1265.28 158.584 1265.93 155.23 1267.82 149.861Z" stroke="black" stroke-opacity="0.1"/>
<path d="M1197.87 125.614C1196.52 115.569 1196.92 114.556 1195.4 105.709C1205.21 99.9871 1204.72 98.2354 1208.98 94.0549C1209.1 96.7295 1206.73 102.824 1212.88 112.509C1210.27 119.226 1204.87 117.358 1197.87 125.614Z" fill="#FFB8F8"/>
<path d="M1216.87 138.614C1215.52 128.569 1215.92 127.556 1214.4 118.709C1224.21 112.987 1223.72 111.235 1227.98 107.055C1228.1 109.729 1225.73 115.824 1231.88 125.509C1229.27 132.226 1223.87 130.358 1216.87 138.614Z" fill="#E28EDA"/>
<path d="M1271.08 130.8C1252.85 133.499 1259.96 128.103 1243.72 129.892C1238.9 150.027 1230.55 137.453 1225.49 147.037C1230.22 145.911 1226.5 142.705 1246.64 148.642C1256.98 140.662 1260.36 147.277 1271.08 130.8Z" fill="#FFB8F8"/>
<path d="M1421.77 196.657C1436.03 184.659 1437.99 184.27 1450.22 173.183C1468.79 182.76 1471.03 180.278 1481.71 182.75C1477.68 185.586 1465.88 187.922 1456.92 207.026C1443.92 209.601 1441.49 199.378 1421.77 196.657Z" fill="#FFB8F8"/>
<path d="M1572.65 187.064C1591.28 187.623 1593 188.641 1609.51 188.526C1616.97 208.037 1620.29 207.679 1626.61 216.642C1621.72 216.073 1611.36 209.952 1591.95 218.224C1580.54 211.478 1585.54 202.238 1572.65 187.064Z" fill="#FFB8F8"/>
<path d="M1576.89 290.264C1564.01 303.74 1573.52 293.956 1562.56 306.305C1543.07 298.799 1536.39 314.982 1525.5 313.685C1529.19 310.429 1540.67 306.826 1547.5 286.862C1560.15 282.891 1556.98 289.701 1576.89 290.264Z" fill="#FFB8F8"/>
<path d="M1414.65 280.064C1433.28 280.623 1435 281.641 1451.51 281.526C1458.97 301.037 1462.29 300.679 1468.61 309.642C1463.72 309.073 1453.36 302.952 1433.95 311.224C1422.54 304.478 1427.54 295.238 1414.65 280.064Z" fill="#FFD8FB"/>
<path d="M1414.65 280.064C1433.28 280.623 1435 281.641 1451.51 281.526C1458.97 301.037 1462.29 300.679 1468.61 309.642C1463.72 309.073 1453.36 302.952 1433.95 311.224C1422.54 304.478 1427.54 295.238 1414.65 280.064Z" fill="#FFD8FB"/>
<path d="M1414.65 280.064C1433.28 280.623 1435 281.641 1451.51 281.526C1458.97 301.037 1462.29 300.679 1468.61 309.642C1463.72 309.073 1453.36 302.952 1433.95 311.224C1422.54 304.478 1427.54 295.238 1414.65 280.064Z" fill="#FFD8FB"/>
<path d="M1447.86 260.138C1464.65 268.228 1465.81 269.858 1480.93 276.468C1479.81 297.325 1482.99 298.35 1485.12 309.108C1480.88 306.599 1473.91 296.795 1452.81 296.455C1445.13 285.651 1453.46 279.245 1447.86 260.138Z" fill="#FFD8FB"/>
<path d="M1447.86 260.138C1464.65 268.228 1465.81 269.858 1480.93 276.468C1479.81 297.325 1482.99 298.35 1485.12 309.108C1480.88 306.599 1473.91 296.795 1452.81 296.455C1445.13 285.651 1453.46 279.245 1447.86 260.138Z" fill="#FFD8FB"/>
<path d="M1447.86 260.138C1464.65 268.228 1465.81 269.858 1480.93 276.468C1479.81 297.325 1482.99 298.35 1485.12 309.108C1480.88 306.599 1473.91 296.795 1452.81 296.455C1445.13 285.651 1453.46 279.245 1447.86 260.138Z" fill="#FFE8F8"/>
<path d="M1447.86 260.138C1464.65 268.228 1465.81 269.858 1480.93 276.468C1479.81 297.325 1482.99 298.35 1485.12 309.108C1480.88 306.599 1473.91 296.795 1452.81 296.455C1445.13 285.651 1453.46 279.245 1447.86 260.138Z" fill="#FFE8F8"/>
<path d="M1447.86 260.138C1464.65 268.228 1465.81 269.858 1480.93 276.468C1479.81 297.325 1482.99 298.35 1485.12 309.108C1480.88 306.599 1473.91 296.795 1452.81 296.455C1445.13 285.651 1453.46 279.245 1447.86 260.138Z" fill="#FFE8F8"/>
<path d="M1447.86 260.138C1464.65 268.228 1465.81 269.858 1480.93 276.468C1479.81 297.325 1482.99 298.35 1485.12 309.108C1480.88 306.599 1473.91 296.795 1452.81 296.455C1445.13 285.651 1453.46 279.245 1447.86 260.138Z" fill="#FFE8F8"/>
<path d="M1552.86 194.138C1569.65 202.228 1570.81 203.858 1585.93 210.468C1584.81 231.325 1587.99 232.35 1590.12 243.108C1585.88 240.599 1578.91 230.795 1557.81 230.455C1550.13 219.651 1558.46 213.245 1552.86 194.138Z" fill="#FFD8FB"/>
<path d="M1552.86 194.138C1569.65 202.228 1570.81 203.858 1585.93 210.468C1584.81 231.325 1587.99 232.35 1590.12 243.108C1585.88 240.599 1578.91 230.795 1557.81 230.455C1550.13 219.651 1558.46 213.245 1552.86 194.138Z" fill="#FFD8FB"/>
<path d="M1552.86 194.138C1569.65 202.228 1570.81 203.858 1585.93 210.468C1584.81 231.325 1587.99 232.35 1590.12 243.108C1585.88 240.599 1578.91 230.795 1557.81 230.455C1550.13 219.651 1558.46 213.245 1552.86 194.138Z" fill="#FFE8F8"/>
<path d="M1552.86 194.138C1569.65 202.228 1570.81 203.858 1585.93 210.468C1584.81 231.325 1587.99 232.35 1590.12 243.108C1585.88 240.599 1578.91 230.795 1557.81 230.455C1550.13 219.651 1558.46 213.245 1552.86 194.138Z" fill="#FFE8F8"/>
<path d="M1552.86 194.138C1569.65 202.228 1570.81 203.858 1585.93 210.468C1584.81 231.325 1587.99 232.35 1590.12 243.108C1585.88 240.599 1578.91 230.795 1557.81 230.455C1550.13 219.651 1558.46 213.245 1552.86 194.138Z" fill="#FFE8F8"/>
<path d="M1552.86 194.138C1569.65 202.228 1570.81 203.858 1585.93 210.468C1584.81 231.325 1587.99 232.35 1590.12 243.108C1585.88 240.599 1578.91 230.795 1557.81 230.455C1550.13 219.651 1558.46 213.245 1552.86 194.138Z" fill="#FFE8F8"/>
<path d="M1519.92 274.304C1516.61 285.889 1517.14 286.641 1513.67 297.109C1529.12 295.371 1528.13 297.589 1534.64 298.618C1535.14 295.715 1531.93 291.197 1543.09 276.198C1539.55 271.219 1530.49 277.434 1519.92 274.304Z" fill="#FFD8FB"/>
<path d="M1519.92 274.304C1516.61 285.889 1517.14 286.641 1513.67 297.109C1529.12 295.371 1528.13 297.589 1534.64 298.618C1535.14 295.715 1531.93 291.197 1543.09 276.198C1539.55 271.219 1530.49 277.434 1519.92 274.304Z" fill="#FFD8FB"/>
<path d="M1519.92 274.304C1516.61 285.889 1517.14 286.641 1513.67 297.109C1529.12 295.371 1528.13 297.589 1534.64 298.618C1535.14 295.715 1531.93 291.197 1543.09 276.198C1539.55 271.219 1530.49 277.434 1519.92 274.304Z" fill="#FFE8F8"/>
<path d="M1519.92 274.304C1516.61 285.889 1517.14 286.641 1513.67 297.109C1529.12 295.371 1528.13 297.589 1534.64 298.618C1535.14 295.715 1531.93 291.197 1543.09 276.198C1539.55 271.219 1530.49 277.434 1519.92 274.304Z" fill="#FFE8F8"/>
<path d="M1519.92 274.304C1516.61 285.889 1517.14 286.641 1513.67 297.109C1529.12 295.371 1528.13 297.589 1534.64 298.618C1535.14 295.715 1531.93 291.197 1543.09 276.198C1539.55 271.219 1530.49 277.434 1519.92 274.304Z" fill="#FFE8F8"/>
<path d="M1519.92 274.304C1516.61 285.889 1517.14 286.641 1513.67 297.109C1529.12 295.371 1528.13 297.589 1534.64 298.618C1535.14 295.715 1531.93 291.197 1543.09 276.198C1539.55 271.219 1530.49 277.434 1519.92 274.304Z" fill="#FFE8F8"/>
<path d="M1407.86 203.138C1424.65 211.228 1425.81 212.858 1440.93 219.468C1439.81 240.325 1442.99 241.35 1445.12 252.108C1440.88 249.599 1433.91 239.795 1412.81 239.455C1405.13 228.651 1413.46 222.245 1407.86 203.138Z" fill="#FFD8FB"/>
<path d="M1407.86 203.138C1424.65 211.228 1425.81 212.858 1440.93 219.468C1439.81 240.325 1442.99 241.35 1445.12 252.108C1440.88 249.599 1433.91 239.795 1412.81 239.455C1405.13 228.651 1413.46 222.245 1407.86 203.138Z" fill="#FFD8FB"/>
<path d="M1407.86 203.138C1424.65 211.228 1425.81 212.858 1440.93 219.468C1439.81 240.325 1442.99 241.35 1445.12 252.108C1440.88 249.599 1433.91 239.795 1412.81 239.455C1405.13 228.651 1413.46 222.245 1407.86 203.138Z" fill="#FFE8F8"/>
<path d="M1407.86 203.138C1424.65 211.228 1425.81 212.858 1440.93 219.468C1439.81 240.325 1442.99 241.35 1445.12 252.108C1440.88 249.599 1433.91 239.795 1412.81 239.455C1405.13 228.651 1413.46 222.245 1407.86 203.138Z" fill="#FFE8F8"/>
<path d="M1407.86 203.138C1424.65 211.228 1425.81 212.858 1440.93 219.468C1439.81 240.325 1442.99 241.35 1445.12 252.108C1440.88 249.599 1433.91 239.795 1412.81 239.455C1405.13 228.651 1413.46 222.245 1407.86 203.138Z" fill="#FFE8F8"/>
<path d="M1407.86 203.138C1424.65 211.228 1425.81 212.858 1440.93 219.468C1439.81 240.325 1442.99 241.35 1445.12 252.108C1440.88 249.599 1433.91 239.795 1412.81 239.455C1405.13 228.651 1413.46 222.245 1407.86 203.138Z" fill="#FFE8F8"/>
<path d="M1601.86 305.138C1618.65 313.228 1619.81 314.858 1634.93 321.468C1633.81 342.325 1636.99 343.35 1639.12 354.108C1634.88 351.599 1627.91 341.795 1606.81 341.455C1599.13 330.651 1607.46 324.245 1601.86 305.138Z" fill="#FFD8FB"/>
<path d="M1601.86 305.138C1618.65 313.228 1619.81 314.858 1634.93 321.468C1633.81 342.325 1636.99 343.35 1639.12 354.108C1634.88 351.599 1627.91 341.795 1606.81 341.455C1599.13 330.651 1607.46 324.245 1601.86 305.138Z" fill="#FFD8FB"/>
<path d="M1601.86 305.138C1618.65 313.228 1619.81 314.858 1634.93 321.468C1633.81 342.325 1636.99 343.35 1639.12 354.108C1634.88 351.599 1627.91 341.795 1606.81 341.455C1599.13 330.651 1607.46 324.245 1601.86 305.138Z" fill="#FFE8F8"/>
<path d="M1601.86 305.138C1618.65 313.228 1619.81 314.858 1634.93 321.468C1633.81 342.325 1636.99 343.35 1639.12 354.108C1634.88 351.599 1627.91 341.795 1606.81 341.455C1599.13 330.651 1607.46 324.245 1601.86 305.138Z" fill="#FFE8F8"/>
<path d="M1601.86 305.138C1618.65 313.228 1619.81 314.858 1634.93 321.468C1633.81 342.325 1636.99 343.35 1639.12 354.108C1634.88 351.599 1627.91 341.795 1606.81 341.455C1599.13 330.651 1607.46 324.245 1601.86 305.138Z" fill="#FFE8F8"/>
<path d="M1601.86 305.138C1618.65 313.228 1619.81 314.858 1634.93 321.468C1633.81 342.325 1636.99 343.35 1639.12 354.108C1634.88 351.599 1627.91 341.795 1606.81 341.455C1599.13 330.651 1607.46 324.245 1601.86 305.138Z" fill="#FFE8F8"/>
<path d="M1451.86 136.138C1468.65 144.228 1469.81 145.858 1484.93 152.468C1483.81 173.325 1486.99 174.35 1489.12 185.108C1484.88 182.599 1477.91 172.795 1456.81 172.455C1449.13 161.651 1457.46 155.245 1451.86 136.138Z" fill="#FFD8FB"/>
<path d="M1451.86 136.138C1468.65 144.228 1469.81 145.858 1484.93 152.468C1483.81 173.325 1486.99 174.35 1489.12 185.108C1484.88 182.599 1477.91 172.795 1456.81 172.455C1449.13 161.651 1457.46 155.245 1451.86 136.138Z" fill="#FFD8FB"/>
<path d="M1451.86 136.138C1468.65 144.228 1469.81 145.858 1484.93 152.468C1483.81 173.325 1486.99 174.35 1489.12 185.108C1484.88 182.599 1477.91 172.795 1456.81 172.455C1449.13 161.651 1457.46 155.245 1451.86 136.138Z" fill="#FFE8F8"/>
<path d="M1451.86 136.138C1468.65 144.228 1469.81 145.858 1484.93 152.468C1483.81 173.325 1486.99 174.35 1489.12 185.108C1484.88 182.599 1477.91 172.795 1456.81 172.455C1449.13 161.651 1457.46 155.245 1451.86 136.138Z" fill="#FFE8F8"/>
<path d="M1451.86 136.138C1468.65 144.228 1469.81 145.858 1484.93 152.468C1483.81 173.325 1486.99 174.35 1489.12 185.108C1484.88 182.599 1477.91 172.795 1456.81 172.455C1449.13 161.651 1457.46 155.245 1451.86 136.138Z" fill="#FFE8F8"/>
<path d="M1451.86 136.138C1468.65 144.228 1469.81 145.858 1484.93 152.468C1483.81 173.325 1486.99 174.35 1489.12 185.108C1484.88 182.599 1477.91 172.795 1456.81 172.455C1449.13 161.651 1457.46 155.245 1451.86 136.138Z" fill="#FFE8F8"/>
<path d="M1322.12 230.178C1336.57 218.414 1338.54 218.058 1350.95 207.172C1369.36 217.051 1371.64 214.606 1382.28 217.252C1378.21 220.022 1366.37 222.165 1357.1 241.12C1344.06 243.482 1341.8 233.22 1322.12 230.178Z" fill="#FFD8FB"/>
<path d="M1322.12 230.178C1336.57 218.414 1338.54 218.058 1350.95 207.172C1369.36 217.051 1371.64 214.606 1382.28 217.252C1378.21 220.022 1366.37 222.165 1357.1 241.12C1344.06 243.482 1341.8 233.22 1322.12 230.178Z" fill="#FFD8FB"/>
<path d="M1322.12 230.178C1336.57 218.414 1338.54 218.058 1350.95 207.172C1369.36 217.051 1371.64 214.606 1382.28 217.252C1378.21 220.022 1366.37 222.165 1357.1 241.12C1344.06 243.482 1341.8 233.22 1322.12 230.178Z" fill="#FFE8F8"/>
<path d="M1322.12 230.178C1336.57 218.414 1338.54 218.058 1350.95 207.172C1369.36 217.051 1371.64 214.606 1382.28 217.252C1378.21 220.022 1366.37 222.165 1357.1 241.12C1344.06 243.482 1341.8 233.22 1322.12 230.178Z" fill="#FFE8F8"/>
<path d="M1322.12 230.178C1336.57 218.414 1338.54 218.058 1350.95 207.172C1369.36 217.051 1371.64 214.606 1382.28 217.252C1378.21 220.022 1366.37 222.165 1357.1 241.12C1344.06 243.482 1341.8 233.22 1322.12 230.178Z" fill="#FFE8F8"/>
<path d="M1322.12 230.178C1336.57 218.414 1338.54 218.058 1350.95 207.172C1369.36 217.051 1371.64 214.606 1382.28 217.252C1378.21 220.022 1366.37 222.165 1357.1 241.12C1344.06 243.482 1341.8 233.22 1322.12 230.178Z" fill="#FFE8F8"/>
<path d="M1291.12 194.178C1305.57 182.414 1307.54 182.058 1319.95 171.172C1338.36 181.051 1340.64 178.606 1351.28 181.252C1347.21 184.022 1335.37 186.165 1326.1 205.12C1313.06 207.482 1310.8 197.22 1291.12 194.178Z" fill="#FFD8FB"/>
<path d="M1291.12 194.178C1305.57 182.414 1307.54 182.058 1319.95 171.172C1338.36 181.051 1340.64 178.606 1351.28 181.252C1347.21 184.022 1335.37 186.165 1326.1 205.12C1313.06 207.482 1310.8 197.22 1291.12 194.178Z" fill="#FFD8FB"/>
<path d="M1291.12 194.178C1305.57 182.414 1307.54 182.058 1319.95 171.172C1338.36 181.051 1340.64 178.606 1351.28 181.252C1347.21 184.022 1335.37 186.165 1326.1 205.12C1313.06 207.482 1310.8 197.22 1291.12 194.178Z" fill="#FFE8F8"/>
<path d="M1291.12 194.178C1305.57 182.414 1307.54 182.058 1319.95 171.172C1338.36 181.051 1340.64 178.606 1351.28 181.252C1347.21 184.022 1335.37 186.165 1326.1 205.12C1313.06 207.482 1310.8 197.22 1291.12 194.178Z" fill="#FFE8F8"/>
<path d="M1291.12 194.178C1305.57 182.414 1307.54 182.058 1319.95 171.172C1338.36 181.051 1340.64 178.606 1351.28 181.252C1347.21 184.022 1335.37 186.165 1326.1 205.12C1313.06 207.482 1310.8 197.22 1291.12 194.178Z" fill="#FFE8F8"/>
<path d="M1291.12 194.178C1305.57 182.414 1307.54 182.058 1319.95 171.172C1338.36 181.051 1340.64 178.606 1351.28 181.252C1347.21 184.022 1335.37 186.165 1326.1 205.12C1313.06 207.482 1310.8 197.22 1291.12 194.178Z" fill="#FFE8F8"/>
<path d="M1216.48 138.418C1227.98 129.059 1229.55 128.775 1239.42 120.115C1254.06 127.975 1255.88 126.029 1264.34 128.134C1261.1 130.338 1251.69 132.043 1244.31 147.124C1233.94 149.003 1232.14 140.839 1216.48 138.418Z" fill="#FFD8FB"/>
<path d="M1216.48 138.418C1227.98 129.059 1229.55 128.775 1239.42 120.115C1254.06 127.975 1255.88 126.029 1264.34 128.134C1261.1 130.338 1251.69 132.043 1244.31 147.124C1233.94 149.003 1232.14 140.839 1216.48 138.418Z" fill="#FFD8FB"/>
<path d="M1216.48 138.418C1227.98 129.059 1229.55 128.775 1239.42 120.115C1254.06 127.975 1255.88 126.029 1264.34 128.134C1261.1 130.338 1251.69 132.043 1244.31 147.124C1233.94 149.003 1232.14 140.839 1216.48 138.418Z" fill="#FFE8F8"/>
<path d="M1216.48 138.418C1227.98 129.059 1229.55 128.775 1239.42 120.115C1254.06 127.975 1255.88 126.029 1264.34 128.134C1261.1 130.338 1251.69 132.043 1244.31 147.124C1233.94 149.003 1232.14 140.839 1216.48 138.418Z" fill="#FFE8F8"/>
<path d="M1216.48 138.418C1227.98 129.059 1229.55 128.775 1239.42 120.115C1254.06 127.975 1255.88 126.029 1264.34 128.134C1261.1 130.338 1251.69 132.043 1244.31 147.124C1233.94 149.003 1232.14 140.839 1216.48 138.418Z" fill="#FFE8F8"/>
<path d="M1216.48 138.418C1227.98 129.059 1229.55 128.775 1239.42 120.115C1254.06 127.975 1255.88 126.029 1264.34 128.134C1261.1 130.338 1251.69 132.043 1244.31 147.124C1233.94 149.003 1232.14 140.839 1216.48 138.418Z" fill="#FFE8F8"/>
<path d="M1240.12 162.178C1254.57 150.414 1256.54 150.058 1268.95 139.172C1287.36 149.051 1289.64 146.606 1300.28 149.252C1296.21 152.022 1284.37 154.165 1275.1 173.12C1262.06 175.482 1259.8 165.22 1240.12 162.178Z" fill="#FFD8FB"/>
<path d="M1240.12 162.178C1254.57 150.414 1256.54 150.058 1268.95 139.172C1287.36 149.051 1289.64 146.606 1300.28 149.252C1296.21 152.022 1284.37 154.165 1275.1 173.12C1262.06 175.482 1259.8 165.22 1240.12 162.178Z" fill="#FFD8FB"/>
<path d="M1240.12 162.178C1254.57 150.414 1256.54 150.058 1268.95 139.172C1287.36 149.051 1289.64 146.606 1300.28 149.252C1296.21 152.022 1284.37 154.165 1275.1 173.12C1262.06 175.482 1259.8 165.22 1240.12 162.178Z" fill="#FFE8F8"/>
<path d="M1240.12 162.178C1254.57 150.414 1256.54 150.058 1268.95 139.172C1287.36 149.051 1289.64 146.606 1300.28 149.252C1296.21 152.022 1284.37 154.165 1275.1 173.12C1262.06 175.482 1259.8 165.22 1240.12 162.178Z" fill="#FFE8F8"/>
<path d="M1240.12 162.178C1254.57 150.414 1256.54 150.058 1268.95 139.172C1287.36 149.051 1289.64 146.606 1300.28 149.252C1296.21 152.022 1284.37 154.165 1275.1 173.12C1262.06 175.482 1259.8 165.22 1240.12 162.178Z" fill="#FFE8F8"/>
<path d="M1240.12 162.178C1254.57 150.414 1256.54 150.058 1268.95 139.172C1287.36 149.051 1289.64 146.606 1300.28 149.252C1296.21 152.022 1284.37 154.165 1275.1 173.12C1262.06 175.482 1259.8 165.22 1240.12 162.178Z" fill="#FFE8F8"/>
<path d="M1230.8 271.923C1241.86 259.431 1242.12 257.73 1252.4 247.007C1241.72 231.098 1244.06 229.129 1240.94 219.93C1238.36 223.449 1236.77 233.677 1218.31 241.686C1216.55 252.958 1226.87 254.915 1230.8 271.923Z" fill="#FFD8FB"/>
<path d="M1230.8 271.923C1241.86 259.431 1242.12 257.73 1252.4 247.007C1241.72 231.098 1244.06 229.129 1240.94 219.93C1238.36 223.449 1236.77 233.677 1218.31 241.686C1216.55 252.958 1226.87 254.915 1230.8 271.923Z" fill="#FFD8FB"/>
<path d="M1230.8 271.923C1241.86 259.431 1242.12 257.73 1252.4 247.007C1241.72 231.098 1244.06 229.129 1240.94 219.93C1238.36 223.449 1236.77 233.677 1218.31 241.686C1216.55 252.958 1226.87 254.915 1230.8 271.923Z" fill="#FFE8F8"/>
<path d="M1230.8 271.923C1241.86 259.431 1242.12 257.73 1252.4 247.007C1241.72 231.098 1244.06 229.129 1240.94 219.93C1238.36 223.449 1236.77 233.677 1218.31 241.686C1216.55 252.958 1226.87 254.915 1230.8 271.923Z" fill="#FFE8F8"/>
<path d="M1230.8 271.923C1241.86 259.431 1242.12 257.73 1252.4 247.007C1241.72 231.098 1244.06 229.129 1240.94 219.93C1238.36 223.449 1236.77 233.677 1218.31 241.686C1216.55 252.958 1226.87 254.915 1230.8 271.923Z" fill="#FFE8F8"/>
<path d="M1230.8 271.923C1241.86 259.431 1242.12 257.73 1252.4 247.007C1241.72 231.098 1244.06 229.129 1240.94 219.93C1238.36 223.449 1236.77 233.677 1218.31 241.686C1216.55 252.958 1226.87 254.915 1230.8 271.923Z" fill="#FFE8F8"/>
<path d="M1519.65 213.064C1538.28 213.623 1540 214.641 1556.51 214.526C1563.97 234.037 1567.29 233.679 1573.61 242.642C1568.72 242.073 1558.36 235.952 1538.95 244.224C1527.54 237.478 1532.54 228.238 1519.65 213.064Z" fill="#FFD8FB"/>
<path d="M1519.65 213.064C1538.28 213.623 1540 214.641 1556.51 214.526C1563.97 234.037 1567.29 233.679 1573.61 242.642C1568.72 242.073 1558.36 235.952 1538.95 244.224C1527.54 237.478 1532.54 228.238 1519.65 213.064Z" fill="#FFD8FB"/>
<path d="M1519.65 213.064C1538.28 213.623 1540 214.641 1556.51 214.526C1563.97 234.037 1567.29 233.679 1573.61 242.642C1568.72 242.073 1558.36 235.952 1538.95 244.224C1527.54 237.478 1532.54 228.238 1519.65 213.064Z" fill="#FFD8FB"/>
<path d="M1506.05 219.264C1500.41 201.5 1500.8 199.538 1495.22 184C1511.16 170.503 1509.72 167.486 1516.09 158.556C1517.17 163.36 1514.82 175.156 1529.06 190.734C1526.47 203.734 1516.1 202.073 1506.05 219.264Z" fill="#FFD8FB"/>
<path d="M1506.05 219.264C1500.41 201.5 1500.8 199.538 1495.22 184C1511.16 170.503 1509.72 167.486 1516.09 158.556C1517.17 163.36 1514.82 175.156 1529.06 190.734C1526.47 203.734 1516.1 202.073 1506.05 219.264Z" fill="#FFD8FB"/>
<path d="M1506.05 219.264C1500.41 201.5 1500.8 199.538 1495.22 184C1511.16 170.503 1509.72 167.486 1516.09 158.556C1517.17 163.36 1514.82 175.156 1529.06 190.734C1526.47 203.734 1516.1 202.073 1506.05 219.264Z" fill="#FFD8FB"/>
<path d="M1529.66 124.463C1542.19 110.665 1544.09 110.018 1554.72 97.3949C1574.4 104.404 1576.29 101.644 1587.21 102.666C1583.6 106.015 1572.22 109.907 1565.89 130.038C1553.35 134.328 1549.58 124.521 1529.66 124.463Z" fill="#FFD8FB"/>
<path d="M1529.66 124.463C1542.19 110.665 1544.09 110.018 1554.72 97.3949C1574.4 104.404 1576.29 101.644 1587.21 102.666C1583.6 106.015 1572.22 109.907 1565.89 130.038C1553.35 134.328 1549.58 124.521 1529.66 124.463Z" fill="#FFD8FB"/>
<path d="M1529.66 124.463C1542.19 110.665 1544.09 110.018 1554.72 97.3949C1574.4 104.404 1576.29 101.644 1587.21 102.666C1583.6 106.015 1572.22 109.907 1565.89 130.038C1553.35 134.328 1549.58 124.521 1529.66 124.463Z" fill="#FFD8FB"/>
<path d="M1540.01 196.336C1538.36 177.772 1539.16 175.942 1537.09 159.565C1555.58 149.843 1554.83 146.586 1562.98 139.248C1562.99 144.173 1558.14 155.18 1568.66 173.472C1563.32 185.602 1553.55 181.732 1540.01 196.336Z" fill="#FFB8F8"/>
<path d="M1458.9 106.031C1470.41 85.3565 1480.18 85.9887 1490.96 76.224C1507.31 84.6589 1496.86 59.834 1518.69 84.6499C1501 76.224 1509.9 96.8986 1496.86 106.031C1485.4 96.8986 1472.4 92.834 1458.9 106.031Z" fill="#FFB8F8"/>
<path d="M1400.56 204.18C1385.8 192.798 1385 190.963 1371.57 181.371C1376.98 161.196 1374.07 159.537 1374.22 148.572C1377.84 151.902 1382.64 162.933 1403.21 167.623C1408.49 179.78 1399.02 184.328 1400.56 204.18Z" fill="#F4A4EC"/>
<path d="M1400.56 204.18C1385.8 192.798 1385 190.963 1371.57 181.371C1376.98 161.196 1374.07 159.537 1374.22 148.572C1377.84 151.902 1382.64 162.933 1403.21 167.623C1408.49 179.78 1399.02 184.328 1400.56 204.18Z" fill="#F4A4EC"/>
<path d="M1400.56 204.18C1385.8 192.798 1385 190.963 1371.57 181.371C1376.98 161.196 1374.07 159.537 1374.22 148.572C1377.84 151.902 1382.64 162.933 1403.21 167.623C1408.49 179.78 1399.02 184.328 1400.56 204.18Z" fill="#F4A4EC"/>
<path d="M1444.89 122.003C1434.38 113.895 1433.81 112.588 1424.24 105.756C1428.09 91.3857 1426.02 90.2035 1426.13 82.3932C1428.71 84.7653 1432.12 92.6226 1446.78 95.9632C1450.54 104.622 1443.79 107.862 1444.89 122.003Z" fill="#F4A4EC"/>
<path d="M1444.89 122.003C1434.38 113.895 1433.81 112.588 1424.24 105.756C1428.09 91.3857 1426.02 90.2035 1426.13 82.3932C1428.71 84.7653 1432.12 92.6226 1446.78 95.9632C1450.54 104.622 1443.79 107.862 1444.89 122.003Z" fill="#F4A4EC"/>
<path d="M1444.89 122.003C1434.38 113.895 1433.81 112.588 1424.24 105.756C1428.09 91.3857 1426.02 90.2035 1426.13 82.3932C1428.71 84.7653 1432.12 92.6226 1446.78 95.9632C1450.54 104.622 1443.79 107.862 1444.89 122.003Z" fill="#F884EC"/>
<path d="M1444.89 122.003C1434.38 113.895 1433.81 112.588 1424.24 105.756C1428.09 91.3857 1426.02 90.2035 1426.13 82.3932C1428.71 84.7653 1432.12 92.6226 1446.78 95.9632C1450.54 104.622 1443.79 107.862 1444.89 122.003Z" fill="#F884EC"/>
<path d="M1331.11 190.508C1316.07 191.879 1320.47 185.868 1305.13 193.032C1304.74 210.819 1307.48 198.859 1304.94 207.166C1308.76 206.429 1300.31 205.998 1318.57 212.484C1325.91 205.921 1325.02 204.674 1331.11 190.508Z" fill="#FFB8F8"/>
<path d="M1306.36 204.409C1306.23 204.772 1306.02 205.385 1305.68 206.455C1305.68 206.454 1305.68 206.454 1305.68 206.454C1305.72 206.441 1305.74 206.43 1305.75 206.423C1305.76 206.42 1305.76 206.417 1305.76 206.414C1305.78 206.394 1305.83 206.347 1305.91 206.311C1305.98 206.275 1306.17 206.215 1306.37 206.331C1306.55 206.437 1306.6 206.61 1306.61 206.668C1306.61 206.671 1306.61 206.674 1306.61 206.677C1306.63 206.695 1306.65 206.72 1306.69 206.752C1306.95 207 1307.66 207.504 1309.49 208.36C1311.27 209.193 1314.06 210.345 1318.46 211.913C1321.95 208.774 1323.47 206.891 1324.86 204.123C1325.58 202.693 1326.26 201.024 1327.15 198.809C1327.23 198.616 1327.31 198.419 1327.39 198.218C1328.16 196.283 1329.1 193.957 1330.33 191.076C1324.8 191.501 1321.99 190.893 1319.79 190.417C1319.22 190.292 1318.68 190.177 1318.16 190.091C1315.64 189.685 1313.05 189.908 1305.62 193.353C1305.54 197.603 1305.63 200.08 1305.79 201.523C1305.87 202.263 1305.96 202.713 1306.04 202.983C1306.09 203.135 1306.13 203.215 1306.15 203.252C1306.18 203.262 1306.22 203.278 1306.26 203.303C1306.36 203.36 1306.45 203.456 1306.5 203.591C1306.54 203.702 1306.53 203.8 1306.53 203.848C1306.51 203.938 1306.48 204.037 1306.46 204.11C1306.43 204.185 1306.4 204.282 1306.36 204.409Z" stroke="black" stroke-opacity="0.1"/>
<path d="M1316 216.067C1328.36 202.112 1326.15 206.303 1336.63 193.547C1354.35 186.064 1362.33 192.663 1373.26 193.547C1369.7 196.941 1358.37 200.977 1352.29 221.185C1339.81 225.633 1335.91 215.875 1316 216.067Z" fill="#FFB8F8"/>
<path d="M1337.69 249.418C1345.12 232.323 1346.7 231.102 1352.71 215.728C1373.6 216.037 1374.5 212.818 1385.16 210.274C1382.82 214.606 1373.3 221.951 1373.78 243.047C1363.29 251.142 1356.56 243.07 1337.69 249.418Z" fill="#FFB8F8"/>
<path d="M1305.5 230C1289.18 239 1287.18 239 1273.03 247.5C1256.68 234.5 1254 236.5 1244 232C1248.5 230 1260.53 230 1273.03 213C1286.28 213 1286.68 223.5 1305.5 230Z" fill="#FFB8F8"/>
<path d="M1284.03 318.167C1294.73 302.9 1304.54 298.33 1313.5 284.467C1333.9 288.939 1324.29 280.467 1338.5 284.467C1333.69 287.467 1326.5 273.467 1324.29 308.336C1313.97 313.4 1303.8 315.715 1284.03 318.167Z" fill="#FFB8F8"/>
<path d="M1246.61 277.585C1257.3 262.317 1267.11 257.748 1276.08 243.884C1296.48 248.357 1286.87 239.884 1301.07 243.884C1296.27 246.884 1289.07 232.884 1286.87 267.754C1276.54 272.818 1266.37 275.132 1246.61 277.585Z" fill="#CC90C6"/>
<path d="M1326.5 265C1310.18 274 1308.18 274 1294.03 282.5C1277.68 269.5 1275 271.5 1265 267C1269.5 265 1281.53 265 1294.03 248C1307.28 248 1307.68 258.5 1326.5 265Z" fill="#FFB8F8"/>
<path d="M1308.41 254.915C1312.26 258.141 1316.88 262.019 1325.28 265.098C1318.87 268.616 1314.75 270.698 1311.12 272.533C1310.48 272.858 1309.85 273.175 1309.22 273.492C1304.97 275.653 1300.97 277.754 1294.07 281.893C1286.04 275.531 1281.3 272.795 1277.33 271.102C1275.56 270.35 1273.95 269.806 1272.29 269.246C1272.06 269.17 1271.84 269.095 1271.62 269.019C1270.01 268.473 1268.31 267.88 1266.33 267.038C1266.96 266.837 1267.68 266.641 1268.5 266.419C1268.91 266.307 1269.35 266.189 1269.81 266.06C1271.78 265.509 1274.12 264.782 1276.72 263.579C1281.89 261.187 1288.03 256.932 1294.28 248.501C1297.39 248.534 1299.76 249.168 1301.82 250.19C1303.96 251.247 1305.8 252.726 1307.86 254.446C1308.04 254.601 1308.23 254.757 1308.41 254.915Z" stroke="black" stroke-opacity="0.1"/>
<path d="M1283.5 212.923C1251.5 218 1272.67 220.844 1260.5 232C1236 232 1234.34 229.582 1223.64 227.171C1227.65 224.312 1239.43 221.909 1248.28 202.754C1261.27 200.105 1263.76 210.314 1283.5 212.923Z" fill="#A2F594"/>
<path d="M1264.23 224.968C1264.02 226.71 1263.17 228.834 1260.3 231.5C1248.19 231.494 1241.73 230.891 1236.99 229.998C1234.6 229.549 1232.64 229.025 1230.6 228.461C1230.38 228.4 1230.16 228.339 1229.94 228.277C1228.41 227.852 1226.8 227.405 1224.93 226.956C1225.5 226.63 1226.18 226.289 1226.95 225.901C1227.34 225.71 1227.74 225.506 1228.17 225.288C1229.98 224.356 1232.14 223.175 1234.44 221.476C1239.03 218.1 1244.19 212.704 1248.63 203.195C1251.69 202.604 1254.13 202.753 1256.36 203.342C1258.67 203.95 1260.76 205.032 1263.12 206.307C1263.33 206.421 1263.55 206.537 1263.76 206.654C1267.84 208.866 1272.68 211.491 1280.38 212.932C1274.19 214.004 1270.32 214.993 1267.92 216.017C1266.53 216.609 1265.6 217.229 1264.99 217.919C1264.37 218.622 1264.13 219.366 1264.06 220.14C1264.01 220.791 1264.08 221.48 1264.16 222.16C1264.17 222.257 1264.18 222.355 1264.19 222.452C1264.27 223.246 1264.34 224.068 1264.23 224.968Z" stroke="black" stroke-opacity="0.1"/>
<path d="M1429.89 272.194C1452.79 288.977 1434.65 283.276 1438.92 297.692C1458.33 307.156 1460.81 305.693 1470.45 307.726C1468.65 303.687 1460.47 297.042 1462.69 276.942C1453.68 269.618 1446.79 277.548 1429.89 272.194Z" fill="#A2F594"/>
<path d="M1439.39 290.181C1438.71 291.783 1438.37 293.953 1439.33 297.34C1448.9 301.995 1454.29 303.959 1458.47 305.011C1460.57 305.541 1462.37 305.841 1464.26 306.137C1464.47 306.169 1464.67 306.201 1464.87 306.233C1466.3 306.455 1467.8 306.688 1469.51 307.025C1469.21 306.519 1468.84 305.96 1468.41 305.32C1468.2 305.005 1467.98 304.67 1467.75 304.312C1466.75 302.796 1465.61 300.93 1464.6 298.553C1462.59 293.832 1461.1 287.138 1462.16 277.16C1460.06 275.498 1458.08 274.7 1456.06 274.356C1453.95 273.998 1451.77 274.128 1449.29 274.328C1449.06 274.346 1448.84 274.364 1448.61 274.383C1444.31 274.734 1439.2 275.152 1432.38 273.424C1436.75 276.74 1439.35 279.099 1440.76 280.925C1441.58 281.987 1442.03 282.902 1442.18 283.749C1442.33 284.611 1442.16 285.352 1441.85 286.04C1441.58 286.623 1441.19 287.189 1440.81 287.753C1440.75 287.834 1440.69 287.915 1440.64 287.996C1440.19 288.656 1439.74 289.352 1439.39 290.181Z" stroke="black" stroke-opacity="0.1"/>
<path d="M1518.92 261.217C1512.19 275.88 1507.09 268.402 1498.42 276.011C1481.12 276.174 1484.09 272.786 1476.56 271.231C1479.41 269.275 1487.74 267.575 1494.12 254.591C1503.31 252.717 1505 259.589 1518.92 261.217Z" fill="#A2F594"/>
<path d="M1504.97 257.267C1508.09 258.862 1511.86 260.788 1518.18 261.628C1516.62 264.897 1515.16 266.944 1513.75 268.282C1512.27 269.692 1510.8 270.337 1509.26 270.778C1508.62 270.959 1507.97 271.106 1507.29 271.259C1504.68 271.845 1501.71 272.511 1498.23 275.512C1489.74 275.581 1486.27 274.779 1484.03 273.806C1483.29 273.49 1482.71 273.166 1482.1 272.829C1481.73 272.628 1481.36 272.422 1480.95 272.211C1480.11 271.786 1479.17 271.381 1477.89 271.035C1478.21 270.87 1478.57 270.697 1478.96 270.505C1479.23 270.373 1479.52 270.232 1479.83 270.079C1481.12 269.437 1482.66 268.622 1484.31 267.454C1487.57 265.141 1491.26 261.464 1494.46 255.034C1496.58 254.632 1498.26 254.719 1499.8 255.092C1501.4 255.483 1502.86 256.192 1504.52 257.036C1504.67 257.112 1504.82 257.189 1504.97 257.267Z" stroke="black" stroke-opacity="0.1"/>
<path d="M1337.11 268.538C1332.65 291.676 1323.09 282.357 1313.6 295.868C1289.68 301.134 1292.68 295.375 1281.71 295.32C1285.01 291.666 1296 286.786 1300.53 266.176C1312.65 260.798 1317.27 270.234 1337.11 268.538Z" fill="#A2F594"/>
<path d="M1316.49 266.658C1321.39 268.07 1327.3 269.773 1336.49 269.089C1335.4 274.472 1334.03 277.977 1332.47 280.399C1330.85 282.902 1329.01 284.277 1327 285.374C1326.17 285.826 1325.3 286.232 1324.41 286.652C1320.97 288.264 1317.11 290.074 1313.31 295.421C1301.5 298.006 1296.39 297.862 1292.9 297.101C1291.77 296.855 1290.84 296.551 1289.87 296.239C1289.3 296.055 1288.72 295.868 1288.09 295.688C1286.67 295.283 1285.07 294.949 1282.9 294.849C1283.4 294.402 1284 293.918 1284.67 293.368C1285 293.098 1285.36 292.813 1285.72 292.508C1287.3 291.207 1289.15 289.591 1291.04 287.436C1294.79 283.153 1298.67 276.773 1300.96 266.532C1303.82 265.297 1306.24 264.918 1308.55 265.014C1310.93 265.113 1313.21 265.719 1315.78 266.457C1316.02 266.523 1316.25 266.59 1316.49 266.658Z" stroke="black" stroke-opacity="0.1"/>
<path d="M1376.66 215.657C1362.46 227.737 1360.5 228.137 1348.34 239.293C1329.72 229.822 1327.49 232.317 1316.8 229.905C1320.81 227.047 1332.59 224.643 1341.44 205.489C1354.43 202.84 1356.92 213.049 1376.66 215.657Z" fill="#A2F594"/>
<path d="M1356.92 209.389C1361.33 211.782 1366.64 214.659 1375.48 215.997C1369.91 220.724 1366.28 223.589 1363.09 226.112C1362.52 226.559 1361.97 226.995 1361.43 227.43C1357.69 230.398 1354.19 233.255 1348.25 238.69C1339.11 234.061 1333.93 232.326 1329.7 231.462C1327.82 231.078 1326.13 230.867 1324.39 230.65C1324.15 230.62 1323.92 230.591 1323.68 230.561C1322 230.348 1320.22 230.106 1318.11 229.676C1318.68 229.354 1319.35 229.018 1320.11 228.636C1320.49 228.444 1320.9 228.241 1321.32 228.023C1323.14 227.091 1325.29 225.91 1327.6 224.211C1332.19 220.835 1337.35 215.439 1341.79 205.93C1344.85 205.339 1347.29 205.488 1349.52 206.077C1351.82 206.685 1353.92 207.767 1356.28 209.042C1356.49 209.156 1356.71 209.272 1356.92 209.389Z" stroke="black" stroke-opacity="0.1"/>
<path d="M1257.66 178.657C1243.46 190.737 1241.5 191.137 1229.34 202.293C1210.72 192.822 1208.49 195.317 1197.8 192.905C1201.81 190.047 1213.59 187.643 1222.44 168.489C1235.43 165.84 1237.92 176.049 1257.66 178.657Z" fill="#A2F594"/>
<path d="M1237.92 172.389C1242.33 174.782 1247.64 177.659 1256.48 178.997C1250.91 183.724 1247.28 186.589 1244.09 189.112C1243.52 189.559 1242.97 189.995 1242.43 190.43C1238.69 193.398 1235.19 196.255 1229.25 201.69C1220.11 197.061 1214.93 195.326 1210.7 194.462C1208.82 194.078 1207.13 193.867 1205.39 193.65C1205.15 193.62 1204.92 193.591 1204.68 193.561C1203 193.348 1201.22 193.106 1199.11 192.676C1199.68 192.354 1200.35 192.018 1201.11 191.636C1201.49 191.444 1201.9 191.241 1202.32 191.023C1204.14 190.091 1206.29 188.91 1208.6 187.211C1213.19 183.835 1218.35 178.439 1222.79 168.93C1225.85 168.339 1228.29 168.488 1230.52 169.077C1232.82 169.685 1234.92 170.767 1237.28 172.042C1237.49 172.156 1237.71 172.272 1237.92 172.389Z" stroke="black" stroke-opacity="0.1"/>
<path d="M1112.66 249.657C1098.46 261.737 1096.5 262.137 1084.34 273.293C1065.72 263.822 1063.49 266.317 1052.8 263.905C1056.81 261.047 1068.59 258.643 1077.44 239.489C1090.43 236.84 1092.92 247.049 1112.66 249.657Z" fill="#A2F594"/>
<path d="M1092.92 243.389C1097.33 245.782 1102.64 248.659 1111.48 249.997C1105.91 254.724 1102.28 257.589 1099.09 260.112C1098.52 260.559 1097.97 260.995 1097.43 261.43C1093.69 264.398 1090.19 267.255 1084.25 272.69C1075.11 268.061 1069.93 266.326 1065.7 265.462C1063.82 265.078 1062.13 264.867 1060.39 264.65C1060.15 264.62 1059.92 264.591 1059.68 264.561C1058 264.348 1056.22 264.106 1054.11 263.676C1054.68 263.354 1055.35 263.018 1056.11 262.636C1056.49 262.444 1056.9 262.241 1057.32 262.023C1059.14 261.091 1061.29 259.91 1063.6 258.211C1068.19 254.835 1073.35 249.439 1077.79 239.93C1080.85 239.339 1083.29 239.488 1085.52 240.077C1087.82 240.685 1089.92 241.767 1092.28 243.042C1092.49 243.156 1092.71 243.272 1092.92 243.389Z" stroke="black" stroke-opacity="0.1"/>
<path d="M1315.21 241.668C1301.02 253.748 1303.17 247.344 1291 258.5C1270.5 255.011 1274.94 270.489 1266.5 258.5C1270.51 255.641 1278.59 257.644 1287.44 238.489C1300.94 238.489 1295.47 239.06 1315.21 241.668Z" fill="#A2F594"/>
<path d="M1300.93 239.955C1303.45 240.415 1307.07 241.078 1314.03 242.015C1307.61 247.392 1304.76 248.736 1302.16 249.964L1302.13 249.978C1299.36 251.289 1296.83 252.494 1290.84 257.967C1285.79 257.135 1282.21 257.448 1279.57 258.235C1276.88 259.035 1275.19 260.316 1273.92 261.292L1273.87 261.334C1273.25 261.809 1272.78 262.176 1272.33 262.403C1271.89 262.625 1271.53 262.689 1271.13 262.584C1270.71 262.473 1270.19 262.152 1269.49 261.447C1268.86 260.814 1268.12 259.903 1267.21 258.635C1268 258.169 1268.94 257.838 1270.08 257.439C1270.18 257.404 1270.28 257.369 1270.38 257.333C1271.85 256.817 1273.56 256.186 1275.42 255.031C1279.12 252.737 1283.36 248.424 1287.76 238.989C1294.25 238.994 1296.2 239.14 1298.9 239.594C1299.52 239.697 1300.17 239.817 1300.93 239.955Z" stroke="black" stroke-opacity="0.1"/>
<path d="M1332.38 95.1827C1323.92 105.845 1304.54 100.735 1306.35 109.326C1291.67 105.173 1312.53 109.872 1291.51 113.858C1293.98 111.242 1294.33 102.356 1307 94.4997C1322.96 93.1388 1317.87 96.1062 1332.38 95.1827Z" fill="#A2F594"/>
<path d="M1331.23 95.7506C1327.09 100.197 1320.79 101.471 1315.42 102.541L1315.33 102.557C1312.56 103.109 1309.99 103.621 1308.23 104.549C1307.33 105.025 1306.6 105.632 1306.16 106.454C1305.83 107.087 1305.69 107.811 1305.75 108.634C1304.3 108.222 1303.26 107.91 1302.5 107.685C1302.45 107.671 1302.41 107.656 1302.36 107.642C1301.59 107.413 1301.13 107.274 1300.89 107.23C1300.83 107.219 1300.73 107.203 1300.64 107.211C1300.59 107.215 1300.48 107.229 1300.38 107.298C1300.24 107.386 1300.15 107.533 1300.14 107.703C1300.13 107.837 1300.18 107.938 1300.2 107.98C1300.22 108.029 1300.25 108.069 1300.27 108.094C1300.31 108.144 1300.35 108.192 1300.39 108.229C1300.41 108.257 1300.44 108.286 1300.47 108.316C1300.61 108.458 1300.76 108.615 1300.89 108.813C1301.04 109.044 1301.12 109.27 1301.08 109.5C1301.05 109.727 1300.88 110.066 1300.33 110.486C1299.29 111.275 1297.07 112.205 1292.64 113.123C1292.99 112.519 1293.31 111.806 1293.65 111.035C1293.7 110.902 1293.76 110.767 1293.82 110.629C1294.36 109.388 1294.99 107.954 1295.86 106.389C1297.8 102.944 1300.97 98.8493 1307.16 94.9877C1315.01 94.3246 1317.67 94.7242 1320.14 95.1693C1320.25 95.1892 1320.37 95.2093 1320.48 95.2294C1322.78 95.6479 1325.13 96.0736 1331.23 95.7506Z" stroke="black" stroke-opacity="0.1"/>
<path d="M1384.5 142.301C1368.18 151.301 1371.65 150.301 1357.5 158.801C1336 149.801 1339.5 160.801 1329.5 156.301C1334 154.301 1339.53 150.301 1352.03 133.301C1376.5 139.801 1365.68 135.801 1384.5 142.301Z" fill="#FFB8F8"/>
<path d="M1382.04 85.5799C1373.54 94.6964 1375.54 93.3382 1368.31 101.685C1352.77 100.439 1357.29 106.702 1350 105.923C1352.44 103.715 1355.12 100.023 1359.53 86.6163C1376.44 85.6555 1368.73 85.3648 1382.04 85.5799Z" fill="#FFB8F8"/>
<path d="M1246 169C1239 176.5 1238.15 165 1224 173.5C1207.65 160.5 1213 186.5 1203 182C1207.5 180 1201.5 180.5 1214 163.5C1227.25 163.5 1227.18 162.5 1246 169Z" fill="#FFB8F8"/>
<path d="M1134.66 235.98C1124.6 235.647 1123.68 235.088 1114.76 235.127C1111 224.445 1109.2 224.636 1105.91 219.725C1108.55 220.043 1114.06 223.406 1124.66 218.91C1130.73 222.616 1127.9 227.662 1134.66 235.98Z" fill="#FFB8F8"/>
<path d="M1169 135.803C1179.88 142.581 1181.21 130.908 1190.65 137.309C1201.55 127.519 1203.33 140.699 1210 137.309C1207 135.803 1198.98 135.803 1190.65 123C1181.81 123 1181.55 130.908 1169 135.803Z" fill="#FFB8F8"/>
<path d="M1167.64 254.738L1169.69 249.522L1177.41 243.394L1183.24 237.351L1188.09 228.02L1192.15 223.225L1196.4 226.253L1201.04 228.208L1215.07 224.014L1204.18 229.899L1206.82 233.166L1211.77 236.94L1202.37 239.035L1193.65 242.599L1192.44 241.765L1190.87 238.892L1192.31 243.715L1187.05 245.288L1184.59 247.455L1182.7 249.929L1179.99 248.831L1175.47 252.092L1171.99 252.417L1167.64 254.738Z" fill="#FFC1F9"/>
<path d="M1201.19 228.687L1210.55 225.888L1203.94 229.459L1203.41 229.745L1203.79 230.213L1206.44 233.481L1206.47 233.528L1206.52 233.564L1210.62 236.686L1202.26 238.547L1202.22 238.556L1202.18 238.572L1193.71 242.033L1192.82 241.421L1191.3 238.652L1190.39 239.036L1191.69 243.379L1186.9 244.809L1186.8 244.84L1186.72 244.913L1184.26 247.08L1184.22 247.112L1184.19 247.152L1182.54 249.323L1180.17 248.367L1179.92 248.264L1179.69 248.425L1175.29 251.606L1171.94 251.919L1171.84 251.929L1171.75 251.976L1168.6 253.658L1170.1 249.83L1177.72 243.785L1177.74 243.765L1177.77 243.741L1183.6 237.698L1183.65 237.646L1183.69 237.582L1188.51 228.301L1192.24 223.899L1196.11 226.661L1196.16 226.693L1196.21 226.714L1200.85 228.669L1201.02 228.739L1201.19 228.687Z" stroke="black" stroke-opacity="0.1"/>
<path d="M1007 221.81L1016.98 215.647L1026.53 218.112L1034.87 219.125L1045.23 217.372L1051.51 217.72L1051.65 222.935L1052.89 227.818L1064.7 236.484L1053.43 231.336L1052.42 235.419L1052.39 241.643L1045.05 235.403L1036.95 230.59L1036.89 229.126L1038.23 226.138L1035.25 230.195L1030.83 226.946L1027.62 226.292L1024.5 226.278L1023.74 223.449L1018.42 221.81L1016.06 219.226L1007 221.81Z" fill="#FFC1F9"/>
<path d="M1052.6 228.221L1060.47 234.005L1053.64 230.882L1053.09 230.631L1052.95 231.216L1051.94 235.299L1051.92 235.357L1051.92 235.417L1051.9 240.566L1045.38 235.022L1045.34 234.995L1045.31 234.973L1037.44 230.298L1037.39 229.223L1038.69 226.343L1037.83 225.842L1035.15 229.496L1031.12 226.543L1031.03 226.478L1030.93 226.456L1027.72 225.802L1027.67 225.792L1027.62 225.792L1024.89 225.78L1024.23 223.319L1024.15 223.052L1023.89 222.971L1018.7 221.373L1016.43 218.889L1016.22 218.66L1015.92 218.745L1010.34 220.339L1017.06 216.185L1026.4 218.596L1026.43 218.605L1026.47 218.609L1034.8 219.622L1034.88 219.63L1034.95 219.618L1045.26 217.874L1051.02 218.193L1051.15 222.949L1051.15 223.004L1051.17 223.058L1052.41 227.941L1052.45 228.115L1052.6 228.221Z" stroke="black" stroke-opacity="0.1"/>
<path d="M1017.64 273.738L1019.69 268.522L1027.41 262.394L1033.24 256.351L1038.09 247.02L1042.15 242.225L1046.4 245.253L1051.04 247.208L1065.07 243.014L1054.18 248.899L1056.82 252.166L1061.77 255.94L1052.37 258.035L1043.65 261.599L1042.44 260.765L1040.87 257.892L1042.31 262.715L1037.05 264.288L1034.59 266.455L1032.7 268.929L1029.99 267.831L1025.47 271.092L1021.99 271.417L1017.64 273.738Z" fill="#FFC1F9"/>
<path d="M1051.19 247.687L1060.55 244.888L1053.94 248.459L1053.41 248.745L1053.79 249.213L1056.44 252.481L1056.47 252.528L1056.52 252.564L1060.62 255.686L1052.26 257.547L1052.22 257.556L1052.18 257.572L1043.71 261.033L1042.82 260.421L1041.3 257.652L1040.39 258.036L1041.69 262.379L1036.9 263.809L1036.8 263.84L1036.72 263.913L1034.26 266.08L1034.22 266.112L1034.19 266.152L1032.54 268.323L1030.17 267.367L1029.92 267.264L1029.69 267.425L1025.29 270.606L1021.94 270.919L1021.84 270.929L1021.75 270.976L1018.6 272.658L1020.1 268.83L1027.72 262.785L1027.74 262.765L1027.77 262.741L1033.6 256.698L1033.65 256.646L1033.69 256.582L1038.51 247.301L1042.24 242.899L1046.11 245.661L1046.16 245.693L1046.21 245.714L1050.85 247.669L1051.02 247.739L1051.19 247.687Z" stroke="black" stroke-opacity="0.1"/>
<path d="M1282.64 282.738L1284.69 277.522L1292.41 271.394L1298.24 265.351L1303.09 256.02L1307.15 251.225L1311.4 254.253L1316.04 256.208L1330.07 252.014L1319.18 257.899L1321.82 261.166L1326.77 264.94L1317.37 267.035L1308.65 270.599L1307.44 269.765L1305.87 266.892L1307.31 271.715L1302.05 273.288L1299.59 275.455L1297.7 277.929L1294.99 276.831L1290.47 280.092L1286.99 280.417L1282.64 282.738Z" fill="#FFC1F9"/>
<path d="M1316.19 256.687L1325.55 253.888L1318.94 257.459L1318.41 257.745L1318.79 258.213L1321.44 261.481L1321.47 261.528L1321.52 261.564L1325.62 264.686L1317.26 266.547L1317.22 266.556L1317.18 266.572L1308.71 270.033L1307.82 269.421L1306.3 266.652L1305.39 267.036L1306.69 271.379L1301.9 272.809L1301.8 272.84L1301.72 272.913L1299.26 275.08L1299.22 275.112L1299.19 275.152L1297.54 277.323L1295.17 276.367L1294.92 276.264L1294.69 276.425L1290.29 279.606L1286.94 279.919L1286.84 279.929L1286.75 279.976L1283.6 281.658L1285.1 277.83L1292.72 271.785L1292.74 271.765L1292.77 271.741L1298.6 265.698L1298.65 265.646L1298.69 265.582L1303.51 256.301L1307.24 251.899L1311.11 254.661L1311.16 254.693L1311.21 254.714L1315.85 256.669L1316.02 256.739L1316.19 256.687Z" stroke="black" stroke-opacity="0.1"/>
<path d="M1172.64 179.738L1174.69 174.522L1182.41 168.394L1188.24 162.351L1193.09 153.02L1197.15 148.225L1201.4 151.253L1206.04 153.208L1220.07 149.014L1209.18 154.899L1211.82 158.166L1216.77 161.94L1207.37 164.035L1198.65 167.599L1197.44 166.765L1195.87 163.892L1197.31 168.715L1192.05 170.288L1189.59 172.455L1187.7 174.929L1184.99 173.831L1180.47 177.092L1176.99 177.417L1172.64 179.738Z" fill="#FFC1F9"/>
<path d="M1206.19 153.687L1215.55 150.888L1208.94 154.459L1208.41 154.745L1208.79 155.213L1211.44 158.481L1211.47 158.528L1211.52 158.564L1215.62 161.686L1207.26 163.547L1207.22 163.556L1207.18 163.572L1198.71 167.033L1197.82 166.421L1196.3 163.652L1195.39 164.036L1196.69 168.379L1191.9 169.809L1191.8 169.84L1191.72 169.913L1189.26 172.08L1189.22 172.112L1189.19 172.152L1187.54 174.323L1185.17 173.367L1184.92 173.264L1184.69 173.425L1180.29 176.606L1176.94 176.919L1176.84 176.929L1176.75 176.976L1173.6 178.658L1175.1 174.83L1182.72 168.785L1182.74 168.765L1182.77 168.741L1188.6 162.698L1188.65 162.646L1188.69 162.582L1193.51 153.301L1197.24 148.899L1201.11 151.661L1201.16 151.693L1201.21 151.714L1205.85 153.669L1206.02 153.739L1206.19 153.687Z" stroke="black" stroke-opacity="0.1"/>
</svg>





