<svg width="554" height="693" viewBox="0 0 554 693" fill="none" xmlns="http://www.w3.org/2000/svg">
<ellipse cx="215.5" cy="218.5" rx="126.5" ry="79.5" fill="#002902"/>
<rect x="319" y="532" width="23" height="21" fill="#AA7000"/>
<ellipse cx="155" cy="157.5" rx="155" ry="93.5" fill="#015E05"/>
<ellipse cx="223" cy="362.5" rx="155" ry="93.5" fill="#002302"/>
<ellipse cx="399" cy="261.5" rx="155" ry="93.5" fill="#003F03"/>
<rect x="244" y="229" width="79" height="126" fill="#734C00"/>
<rect x="244" y="355" width="79" height="126" fill="#734C00"/>
<rect x="433" y="595" width="23" height="21" fill="#AA7000"/>
<rect x="433" y="616" width="43" height="39" fill="#815500"/>
<rect x="109" y="595" width="23" height="21" fill="#AA7000"/>
<rect x="89" y="616" width="43" height="39" fill="#815500"/>
<rect x="132" y="655" width="111" height="38" fill="#483000"/>
<rect x="322" y="655" width="111" height="38" fill="#483000"/>
<rect x="243" y="553" width="79" height="102" fill="#483000"/>
<rect x="243" y="655" width="79" height="38" fill="#734C00"/>
<rect x="207" y="592.103" width="83.0103" height="11.6315" transform="rotate(-58.9313 207 592.103)" fill="#815500"/>
<rect x="342" y="494.831" width="73.3852" height="66.8827" transform="rotate(-30.2771 342 494.831)" fill="#815500"/>
<path d="M322 442L345.5 454.5L372.5 475.5L322 481V442Z" fill="#734C00"/>
<path d="M175 598L244 553V636L132 656L175 598Z" fill="#734C00"/>
<rect x="322" y="553" width="111" height="102" fill="#734C00"/>
<rect x="243" y="481" width="79" height="72" fill="#734C00"/>
<rect x="433" y="655" width="79" height="38" fill="#734C00"/>
<rect x="53" y="655" width="79" height="38" fill="#734C00"/>
<rect x="243" y="553" width="17" height="102" fill="#251900"/>
<rect x="323.135" y="638.1" width="17" height="80.1359" transform="rotate(89.7382 323.135 638.1)" fill="#251900"/>
<ellipse cx="331" cy="93.5" rx="155" ry="93.5" fill="#015E05"/>
<path d="M171 374H246V394L165 391.5L119.5 336L171 374Z" fill="#734C00"/>
<rect x="277" y="258" width="31" height="295" fill="#563900"/>
<ellipse cx="187" cy="204.5" rx="155" ry="93.5" fill="#003F03"/>
<ellipse cx="188" cy="210" rx="107" ry="63" fill="#009606" fill-opacity="0.4"/>
</svg>
