<svg width="515" height="675" viewBox="0 0 515 675" fill="none" xmlns="http://www.w3.org/2000/svg">
<rect x="57" y="395" width="5" height="5" fill="#996500"/>
<rect x="57" y="395" width="5" height="5" fill="#996500"/>
<rect x="57" y="395" width="5" height="5" fill="#996500"/>
<rect x="57" y="395" width="5" height="5" fill="#996500"/>
<rect x="57" y="395" width="5" height="5" fill="#996500"/>
<rect x="57" y="395" width="5" height="5" fill="#996500"/>
<rect x="26" y="392" width="5" height="5" fill="#996500"/>
<rect x="26" y="392" width="5" height="5" fill="#996500"/>
<rect x="26" y="392" width="5" height="5" fill="#996500"/>
<rect x="26" y="392" width="5" height="5" fill="#996500"/>
<rect x="26" y="392" width="5" height="5" fill="#996500"/>
<rect x="26" y="392" width="5" height="5" fill="#996500"/>
<rect x="36" y="359" width="5" height="5" fill="#996500"/>
<rect x="36" y="359" width="5" height="5" fill="#996500"/>
<rect x="36" y="359" width="5" height="5" fill="#996500"/>
<rect x="36" y="359" width="5" height="5" fill="#996500"/>
<rect x="36" y="359" width="5" height="5" fill="#996500"/>
<rect x="36" y="359" width="5" height="5" fill="#996500"/>
<rect x="12" y="378" width="5" height="5" fill="#996500"/>
<rect x="12" y="378" width="5" height="5" fill="#996500"/>
<rect x="12" y="378" width="5" height="5" fill="#996500"/>
<rect x="12" y="378" width="5" height="5" fill="#996500"/>
<rect x="12" y="378" width="5" height="5" fill="#996500"/>
<rect x="12" y="378" width="5" height="5" fill="#996500"/>
<ellipse cx="215.5" cy="154.5" rx="126.5" ry="79.5" fill="#002902"/>
<rect x="319" y="468" width="23" height="21" fill="#AA7000"/>
<path d="M310 93.5C310 145.139 378.104 60 292.5 60C206.896 60 0 145.139 0 93.5C0 41.8614 69.3959 0 155 0C240.604 0 310 41.8614 310 93.5Z" fill="#015E05"/>
<ellipse cx="223" cy="298.5" rx="155" ry="93.5" fill="#002302"/>
<path d="M351 197.5C351 249.139 484.604 291 399 291C313.396 291 244 249.139 244 197.5C244 145.861 313.396 104 399 104C484.604 104 351 145.861 351 197.5Z" fill="#003F03"/>
<rect x="212.259" y="206.693" width="79" height="140.468" transform="rotate(-41.262 212.259 206.693)" fill="#734C00"/>
<rect x="219" y="343" width="49" height="75" fill="#734C00"/>
<rect x="155" y="352" width="24" height="37" fill="#734C00"/>
<rect x="183" y="398" width="24" height="37" fill="#734C00"/>
<rect x="89" y="330" width="15" height="23" fill="#734C00"/>
<rect x="124" y="326" width="15" height="23" fill="#734C00"/>
<rect x="116" y="396" width="15" height="23" fill="#734C00"/>
<rect x="433" y="531" width="23" height="21" fill="#AA7000"/>
<rect x="433" y="552" width="43" height="39" fill="#815500"/>
<rect x="127" y="485" width="23" height="21" fill="#AA7000"/>
<rect x="89" y="552" width="43" height="39" fill="#815500"/>
<rect x="56" y="569" width="24" height="22" fill="#815500"/>
<rect x="65" y="547" width="24" height="22" fill="#996500"/>
<rect x="65" y="547" width="24" height="22" fill="#996500"/>
<rect x="65" y="547" width="24" height="22" fill="#996500"/>
<rect x="65" y="547" width="24" height="22" fill="#996500"/>
<rect x="65" y="547" width="24" height="22" fill="#996500"/>
<rect x="65" y="547" width="24" height="22" fill="#996500"/>
<rect x="68" y="474" width="24" height="22" fill="#996500"/>
<rect x="68" y="474" width="24" height="22" fill="#996500"/>
<rect x="68" y="474" width="24" height="22" fill="#996500"/>
<rect x="68" y="474" width="24" height="22" fill="#996500"/>
<rect x="68" y="474" width="24" height="22" fill="#996500"/>
<rect x="68" y="474" width="24" height="22" fill="#996500"/>
<rect x="29" y="407" width="13" height="12" fill="#996500"/>
<rect x="29" y="407" width="13" height="12" fill="#996500"/>
<rect x="29" y="407" width="13" height="12" fill="#996500"/>
<rect x="29" y="407" width="13" height="12" fill="#996500"/>
<rect x="29" y="407" width="13" height="12" fill="#996500"/>
<rect x="29" y="407" width="13" height="12" fill="#996500"/>
<rect x="132" y="591" width="111" height="38" fill="#483000"/>
<rect x="322" y="591" width="111" height="38" fill="#483000"/>
<rect x="243" y="489" width="79" height="102" fill="#483000"/>
<rect x="243" y="591" width="79" height="38" fill="#734C00"/>
<rect x="207" y="528.103" width="83.0103" height="11.6315" transform="rotate(-58.9313 207 528.103)" fill="#815500"/>
<rect x="342" y="430.831" width="73.3852" height="66.8827" transform="rotate(-30.2771 342 430.831)" fill="#815500"/>
<path d="M322 378L345.5 390.5L372.5 411.5L322 417V378Z" fill="#734C00"/>
<path d="M175 534L244 489V572L132 592L175 534Z" fill="#734C00"/>
<path d="M322 489L433 675V591H322V489Z" fill="#734C00"/>
<rect x="243" y="417" width="79" height="72" fill="#734C00"/>
<rect x="433" y="591" width="79" height="38" fill="#734C00"/>
<rect x="53" y="591" width="79" height="38" fill="#734C00"/>
<rect x="243" y="489" width="17" height="102" fill="#251900"/>
<rect x="323.135" y="574.1" width="17" height="80.1359" transform="rotate(89.7382 323.135 574.1)" fill="#251900"/>
<path d="M486 29.5006C486 81.1393 416.604 123.001 331 123.001C245.396 123.001 176 81.1393 176 29.5006C176 -22.138 386.396 179 472 179C557.604 179 486 -22.138 486 29.5006Z" fill="#015E05"/>
<path d="M171 310H246V330L165 327.5L119.5 272L171 310Z" fill="#734C00"/>
<rect x="267" y="197.787" width="31" height="295" transform="rotate(-20.3632 267 197.787)" fill="#563900"/>
<path d="M223 172.5C223 224.139 153.604 266 67.9999 266C-17.6042 266 68 254.139 68 202.5C68 150.861 -17.6042 79 67.9999 79C153.604 79 223 120.861 223 172.5Z" fill="#003F03"/>
<ellipse cx="124" cy="156.5" rx="52" ry="30.5" fill="#009606" fill-opacity="0.4"/>
<ellipse cx="135" cy="194.5" rx="55" ry="32.5" fill="#009606" fill-opacity="0.4"/>
</svg>
